<svg width="393" height="58" viewBox="0 0 393 58" fill="none" xmlns="http://www.w3.org/2000/svg">
<g clip-path="url(#clip0_2021_1767)">
<path d="M18.7071 57.6199C18.47 57.6199 18.47 57.2487 18.7071 57.2487C18.9443 57.2487 18.9443 57.6199 18.7071 57.6199Z" fill="#A5D1B9"/>
<path d="M35.9321 45.385L36.3027 45.385L36.3027 45.7562C36.1841 45.771 36.0507 45.7265 35.9321 45.7562C35.9025 45.6374 35.947 45.5037 35.9321 45.385Z" fill="#A5D1B9"/>
<path d="M35.1909 45.7561C35.1464 46.0382 35.1464 46.1719 34.8203 46.1273C34.9537 45.9492 34.8944 45.9492 35.1909 45.7561Z" fill="#A5D1B9"/>
<path d="M32.5969 49.8394L32.2263 49.8394C32.2263 49.8394 32.1671 49.4682 32.4042 49.4682L32.5821 49.8394L32.5969 49.8394Z" fill="#A5D1B9"/>
<path d="M34.0791 38.347C34.0791 38.1095 34.0791 37.857 34.0791 37.6046L33.3379 37.6046L32.9673 35.3774L32.4188 35.3774L32.5967 36.1198L31.485 36.1198L31.485 35.0062L30.9365 35.3774L30.388 34.2638L29.6469 34.8132C30.0619 35.0359 29.9433 35.3329 30.0174 35.5556C30.1657 36.001 30.892 35.4071 30.7586 36.105L29.2763 35.1844C29.128 34.6499 30.0026 34.5311 29.2763 34.0708L30.0174 33.3284L30.7586 33.3284C30.3139 32.8681 30.2398 32.5563 29.8395 33.1502L29.6617 32.4078L28.5499 32.4078L28.5499 33.1502L27.4382 32.779L28.5499 31.2942L26.697 32.4078C26.356 31.9475 27.364 31.4724 26.8749 31.2942C26.5191 31.1606 26.2226 31.2051 25.9558 30.7448L27.616 29.453C28.12 30.0618 28.461 30.3439 29.2763 30.1954L29.2763 30.9378L31.8704 32.0514L31.8704 32.7938L33.3527 32.7938L33.3527 33.9075L34.0939 33.9075L34.0939 34.6499C35.2353 34.6944 35.2798 35.0508 35.5762 35.5704C35.769 35.9268 36.4212 36.298 36.688 36.684L35.9468 37.2334L37.0586 37.0552L37.0586 37.6046L37.7998 37.6046C37.5033 38.3767 38.7929 38.8667 38.9115 39.2676C39.1042 39.9803 38.7336 41.1682 39.6527 41.866C39.8602 42.5936 39.3266 42.8163 39.2821 42.9796C39.1487 43.4696 39.5934 43.5438 39.6527 43.722C39.6824 43.8408 39.3711 45.6374 39.2821 45.9492C39.2228 46.1571 38.6002 46.4838 38.5409 46.6916C38.3334 47.4192 38.8374 48.4437 37.4292 48.3546L37.4292 49.097L36.688 49.097L37.0586 49.6464L36.688 50.567L34.6572 50.1958L34.1087 51.3094L34.8499 51.6806C34.3014 51.4727 33.9901 52.0518 33.9308 52.0518C33.7974 52.0518 33.6788 51.6806 33.5603 51.6806C33.4417 51.6806 33.1748 52.3042 32.8191 52.0518L32.8191 51.3094C32.493 51.8142 32.1668 51.8588 31.7073 52.0518C30.9958 52.3488 29.8989 52.7496 29.1132 52.7942C28.3869 52.8239 27.9125 52.913 27.453 52.2448L30.0471 52.0666L28.1941 51.6954L28.1941 50.953C29.0094 51.1015 29.3652 50.8194 29.8544 50.2106L30.225 50.5818C30.7438 49.5128 31.7814 50.0473 32.2558 49.8394L32.4337 50.2106C32.6708 50.2106 32.5967 49.8543 32.6116 49.8394C32.7301 49.7206 33.1897 49.8097 32.9821 49.097L34.8351 48.5476L33.916 48.7258L33.1748 47.9834L31.144 49.097L31.144 48.3546C31.7666 48.518 32.3299 47.7904 32.8042 47.6122C32.9821 47.538 33.8567 47.241 33.916 47.241C33.9901 47.241 34.5683 47.8943 35.2057 47.6122L34.4645 46.8698C34.257 46.1423 34.7906 46.172 34.8351 46.1274L35.5762 46.4986L35.5762 45.9492C35.6504 45.7117 35.8134 45.8008 35.9468 45.7711C35.9765 45.9047 35.8875 46.068 36.1247 46.1423C36.3619 46.1423 36.2878 45.7859 36.3026 45.7711C36.3322 45.7414 36.6139 45.8304 36.6732 45.5929C36.6732 45.3553 36.3174 45.4296 36.3026 45.4147C36.2878 45.3999 36.3471 45.0435 36.1247 45.0435C35.8875 45.1029 35.9617 45.3999 35.9468 45.4147C35.7986 45.5186 35.3687 45.682 35.2057 45.7859C35.265 45.3256 34.8351 44.2863 34.8351 44.1229C34.8351 44.0041 35.2057 43.8705 35.2057 43.7517L34.8351 43.2023C35.5762 43.336 35.6948 42.5193 36.1247 43.2023L36.1247 42.8311L37.0438 42.4599L34.8202 42.2818C34.6275 41.2572 35.6652 42.0887 36.1099 41.3612C36.3619 40.9603 36.3174 40.6782 36.2878 40.2476L34.9981 39.8764L35.176 41.1682L34.4348 41.3463C34.6868 40.6336 33.7826 40.3515 33.6937 40.0546C33.3379 38.7925 33.2193 38.8519 32.0334 38.0204C31.7221 37.7976 31.6925 37.5007 31.1144 37.6492L32.2261 36.5356L32.5967 38.0204C33.2489 37.9016 33.412 38.4955 34.0791 38.3916C34.0939 38.7628 34.0791 39.134 34.0791 39.5052L34.8202 39.5052L34.4497 38.5846L34.6275 38.0352C34.4497 38.2431 34.3607 38.3619 34.0791 38.4064L34.0791 38.347ZM36.4805 44.2863C36.7177 44.2863 36.7177 43.9151 36.4805 43.9151C36.2433 43.9151 36.2433 44.2863 36.4805 44.2863ZM35.1908 38.7182L35.1908 39.4606C35.6355 39.3418 35.7393 38.9409 36.3026 39.0894L36.3026 38.7182L35.1908 38.7182ZM30.1805 32.4226C30.4177 32.4226 30.4177 32.0514 30.1805 32.0514C29.9433 32.0514 29.9433 32.4226 30.1805 32.4226Z" fill="#A5D1B9"/>
<path d="M18.1439 45.7562C18.0549 44.7317 17.1211 44.0041 17.4027 42.7866L19.6262 44.4496L19.2556 46.1125L18.1439 45.7413L18.1439 45.7562Z" fill="#A5D1B9"/>
<path d="M19.2557 47.9835C19.3001 48.0874 19.9968 49.201 19.9968 49.2753C19.9968 49.3941 19.6559 49.498 19.6262 49.6465C19.5225 50.2552 19.7004 51.0422 19.6262 51.6807L18.5145 51.3095C19.226 50.1959 17.9957 49.7504 18.8851 48.3398L19.2557 47.9686L19.2557 47.9835Z" fill="#A5D1B9"/>
<path d="M18.8851 48.3547C18.3219 48.2656 17.892 46.4393 18.144 46.1275L19.6263 46.8699C19.7746 46.9887 19.0186 47.4935 19.2557 47.9835C18.8258 47.9241 18.9444 48.2656 18.8851 48.3547Z" fill="#A5D1B9"/>
<path d="M12.5999 35.3922C12.5999 35.3922 10.9693 35.2883 11.8587 34.4716L11.1175 33.9222C11.829 33.6698 12.1107 34.5756 12.4072 34.6647C12.6295 34.724 12.926 34.6053 13.1483 34.6647C13.3262 34.7092 14.1711 35.5704 14.0674 35.9564L12.9556 36.3276C12.422 35.9861 12.6295 35.4368 12.585 35.4071L12.5999 35.3922Z" fill="#A5D1B9"/>
<path d="M11.1177 46.4987L10.006 46.3205L10.3765 45.3851L11.1177 45.3851L10.7471 46.1275L11.8589 46.1275L11.6662 46.8699L12.0368 45.0139L12.9558 46.8699L11.1177 47.6123L11.1177 46.4987Z" fill="#A5D1B9"/>
<path d="M8.15298 43.1728L10.7471 43.544L11.1177 45.0288C10.836 45.2812 8.36051 43.8112 8.15298 43.1728Z" fill="#A5D1B9"/>
<path d="M12.5999 48.726C10.495 48.9041 11.6808 47.7905 12.7778 47.2411L12.5999 48.1617L13.7117 48.9041L12.7926 49.8247L12.6147 48.7111L12.5999 48.726Z" fill="#A5D1B9"/>
<path d="M16.6617 40.9456C16.9433 39.8913 16.0539 40.411 15.5499 39.6538L16.6617 38.7332L15.1793 38.7332L15.0014 37.6196L16.6617 37.6196C16.8395 37.7681 16.2911 38.0799 16.2911 38.169C16.2911 38.2581 17.2694 39.1935 17.4028 39.6538L17.4028 40.7674L16.6617 40.9456Z" fill="#A5D1B9"/>
<path d="M364.109 26.1271L365.028 25.3847L365.591 25.3847L365.591 26.1271L367.444 25.7559L366.51 26.4983L364.109 26.1271Z" fill="#A5D1B9"/>
<path d="M6.29994 41.6879C6.18135 41.0495 6.62605 41.4504 6.8484 41.3167C7.23381 41.0792 7.50062 40.6931 7.39686 40.2031C8.34556 40.2031 7.29309 41.2277 7.39686 41.3167L8.13803 41.4949L9.05708 40.9455L8.50862 42.0591L9.99097 41.5098C9.54626 41.9107 9.36839 42.371 8.70133 42.4304C7.73781 42.5194 7.24864 41.7176 6.29994 41.6879Z" fill="#A5D1B9"/>
<path d="M18.5146 56.8774L18.5146 55.2144L19.2558 54.1008C18.6184 53.5811 18.648 52.3487 19.6264 52.0666L19.4485 53.5514C19.9822 54.2492 19.4485 54.7541 18.9001 55.2144C19.4337 55.6598 19.7153 57.1892 18.5295 56.8774L18.5146 56.8774Z" fill="#A5D1B9"/>
<path d="M362.997 26.8695L362.256 26.4983L363.739 26.1271L362.627 27.9832L362.997 26.8695Z" fill="#A5D1B9"/>
<path d="M23.8955 30.5667C23.1544 29.9876 23.1544 29.6609 23.8955 29.0818C24.6367 29.6609 24.6367 29.9876 23.8955 30.5667Z" fill="#A5D1B9"/>
<path d="M2.96467 38.347L4.44702 38.347L4.44702 39.0894C3.75032 39.1785 3.15738 39.0894 2.96467 38.347Z" fill="#A5D1B9"/>
<path d="M16.2911 48.7258L17.0323 48.3546L16.6617 46.8698L17.4029 46.8698L17.7734 48.7258L16.2911 48.7258Z" fill="#A5D1B9"/>
<path d="M11.8587 50.953L11.8587 50.2106C12.17 49.8988 13.2521 50.8342 13.3411 51.3242L11.8587 50.953Z" fill="#A5D1B9"/>
<path d="M4.44713 39.832L5.92948 39.832L5.36618 38.7183L6.10736 39.832L5.92948 40.2032L6.67065 40.9456L4.44713 39.832Z" fill="#A5D1B9"/>
<path d="M12.6001 52.4379L13.3264 52.4379L13.3264 52.9872L12.778 53.5366L12.6001 53.5366L12.6001 52.4379Z" fill="#A5D1B9"/>
<path d="M5.55874 42.8015C5.51427 42.7273 5.58839 42.5491 5.55874 42.4303C5.87003 42.7273 6.52227 42.757 6.29992 43.5439L5.92933 43.5439C6.12203 42.7867 5.58839 42.8461 5.55874 42.8015Z" fill="#A5D1B9"/>
<path d="M5.18825 42.8015C4.9066 42.5194 4.59531 42.1779 4.44708 41.6879C5.23272 41.4652 5.24754 42.1185 5.55884 42.4303L5.18825 42.8015Z" fill="#A5D1B9"/>
<path d="M5.18825 42.8014L5.55884 42.8014L5.38096 43.1726C5.14379 43.1726 5.21791 42.8163 5.20309 42.8014L5.18825 42.8014Z" fill="#A5D1B9"/>
<path d="M16.6615 41.6878C17.121 41.4503 17.9511 42.2818 17.7733 42.4303C17.3137 42.6678 16.4836 41.8363 16.6615 41.6878Z" fill="#A5D1B9"/>
<path d="M17.4029 51.6956C17.5215 51.2501 17.9217 51.1462 17.7735 50.582L18.144 50.582L18.144 51.6956L17.4029 51.6956Z" fill="#A5D1B9"/>
<path d="M350.397 29.0818L351.138 29.0818L351.138 29.8242L350.397 29.0818Z" fill="#A5D1B9"/>
<path d="M28.5203 35.3923L28.8909 35.3923L28.8909 34.2787L28.5203 34.2787L28.5203 35.3923Z" fill="#A5D1B9"/>
<path d="M28.5203 49.4683L29.6321 49.4683L29.6321 49.0971L28.5203 49.0971L28.5203 49.4683Z" fill="#A5D1B9"/>
<path d="M17.4029 49.8394L17.7734 49.8394L17.7734 49.097L17.4029 49.097L17.4029 49.8394Z" fill="#A5D1B9"/>
<path d="M10.7471 49.8394L11.1177 49.8394L11.1177 49.097L10.7471 49.097L10.7471 49.8394Z" fill="#A5D1B9"/>
<path d="M10.3765 48.7258L11.1177 48.7258L11.1177 48.3546L10.3765 48.3546L10.3765 48.7258Z" fill="#A5D1B9"/>
<path d="M15.5498 42.8015L16.291 42.8015L16.291 42.4303L15.5498 42.4303L15.5498 42.8015Z" fill="#A5D1B9"/>
<path d="M14.8086 40.2031L15.1792 40.2031L15.1792 39.4607L14.8086 39.4607L14.8086 40.2031Z" fill="#A5D1B9"/>
<path d="M15.9204 36.8623L15.0014 36.8623L14.0675 37.4265L14.2602 36.5059L15.9204 36.8623Z" fill="#A5D1B9"/>
<path d="M386.329 21.3015L386.7 21.3015L386.7 20.5591L386.329 20.5591L386.329 21.3015Z" fill="#A5D1B9"/>
<path d="M17.9662 54.2791C17.729 54.2791 17.729 53.9079 17.9662 53.9079C18.2033 53.9079 18.2033 54.2791 17.9662 54.2791Z" fill="#A5D1B9"/>
<path d="M12.0367 54.2791C11.7995 54.2791 11.7995 53.9079 12.0367 53.9079C12.2739 53.9079 12.2739 54.2791 12.0367 54.2791Z" fill="#A5D1B9"/>
<path d="M17.9662 52.4377C17.729 52.4377 17.729 52.0665 17.9662 52.0665C18.2033 52.0665 18.2033 52.4377 17.9662 52.4377Z" fill="#A5D1B9"/>
<path d="M11.2955 51.6956C11.0583 51.6956 11.0583 51.3244 11.2955 51.3244C11.5327 51.3244 11.5327 51.6956 11.2955 51.6956Z" fill="#A5D1B9"/>
<path d="M24.6366 50.5818C24.3994 50.5818 24.3994 50.2106 24.6366 50.2106C24.8737 50.2106 24.8737 50.5818 24.6366 50.5818Z" fill="#A5D1B9"/>
<path d="M11.2955 50.5818C11.0583 50.5818 11.0583 50.2106 11.2955 50.2106C11.5327 50.2106 11.5327 50.5818 11.2955 50.5818Z" fill="#A5D1B9"/>
<path d="M9.44248 46.4985C9.2053 46.4985 9.2053 46.1273 9.44248 46.1273C9.67966 46.1273 9.67966 46.4985 9.44248 46.4985Z" fill="#A5D1B9"/>
<path d="M8.33091 45.7563C8.09373 45.7563 8.09373 45.3851 8.33091 45.3851C8.56808 45.3851 8.56808 45.7563 8.33091 45.7563Z" fill="#A5D1B9"/>
<path d="M7.5897 45.0139C7.35252 45.0139 7.35252 44.6427 7.5897 44.6427C7.82687 44.6427 7.82687 45.0139 7.5897 45.0139Z" fill="#A5D1B9"/>
<path d="M6.84849 43.5439C6.61131 43.5439 6.61131 43.1727 6.84849 43.1727C7.08566 43.1727 7.08566 43.5439 6.84849 43.5439Z" fill="#A5D1B9"/>
<path d="M18.3365 42.8015C18.0993 42.8015 18.0993 42.4303 18.3365 42.4303C18.5737 42.4303 18.5737 42.8015 18.3365 42.8015Z" fill="#A5D1B9"/>
<path d="M0.548499 38.7183L3.71817e-05 38.1689L0.177912 37.9759L0.741211 38.5401L0.548499 38.7183Z" fill="#A5D1B9"/>
<path d="M4.99546 38.3472C4.75828 38.3472 4.75828 37.976 4.99546 37.976C5.23263 37.976 5.23263 38.3472 4.99546 38.3472Z" fill="#A5D1B9"/>
<path d="M12.0367 37.2334C11.7995 37.2334 11.7995 36.8622 12.0367 36.8622C12.2739 36.8622 12.2739 37.2334 12.0367 37.2334Z" fill="#A5D1B9"/>
<path d="M265.77 35.3923C265.533 35.3923 265.533 35.0211 265.77 35.0211C266.007 35.0211 266.007 35.3923 265.77 35.3923Z" fill="#A5D1B9"/>
<path d="M27.972 35.021C27.7348 35.021 27.7348 34.6498 27.972 34.6498C28.2092 34.6498 28.2092 35.021 27.972 35.021Z" fill="#A5D1B9"/>
<path d="M299.108 34.2788C298.871 34.2788 298.871 33.9076 299.108 33.9076C299.345 33.9076 299.345 34.2788 299.108 34.2788Z" fill="#A5D1B9"/>
<path d="M10.5543 34.2786C10.3171 34.2786 10.3171 33.9074 10.5543 33.9074C10.7915 33.9074 10.7915 34.2786 10.5543 34.2786Z" fill="#A5D1B9"/>
<path d="M110.939 32.0515C110.702 32.0515 110.702 31.6803 110.939 31.6803C111.176 31.6803 111.176 32.0515 110.939 32.0515Z" fill="#A5D1B9"/>
<path d="M347.996 30.938C347.759 30.938 347.759 30.5668 347.996 30.5668C348.233 30.5668 348.233 30.938 347.996 30.938Z" fill="#A5D1B9"/>
<path d="M22.4132 30.5667C22.176 30.5667 22.176 30.1954 22.4132 30.1954C22.6504 30.1954 22.6504 30.5667 22.4132 30.5667Z" fill="#A5D1B9"/>
<path d="M352.072 29.8242C351.835 29.8242 351.835 29.453 352.072 29.453C352.31 29.453 352.31 29.8242 352.072 29.8242Z" fill="#A5D1B9"/>
<path d="M362.078 27.6118L361.515 27.0476L361.708 26.8694L362.256 27.4188L362.078 27.6118Z" fill="#A5D1B9"/>
<path d="M287.427 31.309C287.368 31.2347 287.472 31.0417 287.427 30.9378C287.546 31.0269 288.124 31.3535 288.168 31.309L288.539 30.3884L287.798 29.4678C288.391 29.2599 288.598 29.8242 288.717 29.839C288.954 29.8687 290.57 29.349 290.94 29.4678C292.156 29.839 296.292 29.7351 297.24 29.4678L298.53 29.646C298.056 30.4626 297.448 30.0617 296.87 30.1954C296.722 30.2251 296.499 30.7744 295.758 30.5666C294.631 30.2399 294.053 30.5666 292.793 30.1954C292.334 30.0617 290.095 30.9675 289.087 30.5666L287.976 31.6802C287.872 31.3981 287.442 31.3387 287.427 31.309Z" fill="#A5D1B9"/>
<path d="M294.839 31.6802L294.468 30.9378L296.321 30.9378L296.321 31.309L295.773 31.309C295.521 31.3981 295.625 31.5911 295.595 31.6802C295.506 31.6505 295.328 31.6802 295.224 31.6802C295.18 31.5911 295.284 31.309 295.046 31.309L294.869 31.6802L294.839 31.6802Z" fill="#A5D1B9"/>
<path d="M50.7407 16.4906L51.1113 16.8618L50.7407 16.8618C50.7556 16.743 50.7111 16.6094 50.7407 16.4906Z" fill="#A5D1B9"/>
<path d="M37.7849 19.4603L38.1555 19.4603L37.9776 19.8315C37.7405 19.8315 37.8146 19.4752 37.7998 19.4603L37.7849 19.4603Z" fill="#A5D1B9"/>
<path d="M283.366 30.9379C283.736 30.9231 284.107 30.9676 284.477 30.9379C284.507 31.0567 284.448 31.1903 284.477 31.3091C283.884 31.5764 284.285 32.0218 283.736 32.0515C283.41 31.6952 283.41 30.9825 283.366 30.9379Z" fill="#A5D1B9"/>
<path d="M287.057 30.5668C287.472 30.5074 287.368 30.8044 287.427 30.938C287.368 30.8934 286.997 30.9974 287.057 30.5668Z" fill="#A5D1B9"/>
<path d="M332.253 32.7938L332.624 32.7938L332.431 33.165L332.253 32.7938Z" fill="#A5D1B9"/>
<path d="M328.918 33.1652C329.037 33.1949 329.17 33.1355 329.289 33.1652C329.259 33.3285 329.333 33.4621 329.111 33.5364C328.874 33.5364 328.948 33.18 328.933 33.1652L328.918 33.1652Z" fill="#A5D1B9"/>
<path d="M127.423 25.0136L127.793 25.0136L127.601 25.3848L127.423 25.0136Z" fill="#A5D1B9"/>
<path d="M328.918 33.1652C328.785 33.1058 327.495 33.1058 327.258 33.1652C326.947 33.2395 325.612 33.5958 325.405 33.5364C325.227 33.4919 325.079 32.9722 324.486 33.1652L324.486 33.9076C324.308 33.8779 324.086 33.967 323.937 33.9076C323.3 33.6552 323.567 32.4525 322.826 32.794C322.455 32.9573 322.173 33.4622 322.277 33.9076L321.358 33.5364L320.617 34.2788L319.876 33.5364L316.733 33.9076L317.845 33.1652L316.363 32.987L316.733 32.0665L315.251 32.0665L315.621 33.9225C314.584 33.0761 313.991 34.1155 312.849 33.9225C312.701 33.8928 312.597 33.5513 312.479 33.5513C312.301 33.5513 312.197 34.2788 311.738 33.5513L311.916 34.2937L310.433 34.2937L310.433 33.1801L309.692 33.1801C309.855 31.7398 308.98 32.8386 308.21 32.8089L308.388 33.9225C307.75 33.0464 307.291 33.8037 306.905 33.9225C306.549 34.0412 306.09 33.8631 305.616 34.2937L305.438 33.5513C304.756 34.0858 303.807 34.7094 303.214 33.9225L302.473 34.6649L302.295 33.9225L301.183 34.4718L301.554 33.5513C300.635 34.3828 300.205 33.6107 299.894 33.5513C299.182 33.4176 298.248 33.6403 297.492 33.5513L297.492 32.8089L296.01 32.8089L297.492 33.7294L295.639 34.65L295.639 33.9076L294.898 33.9076L295.076 34.65C294.617 33.9225 294.513 34.7985 293.964 34.65C293.297 34.4718 292.793 34.3976 292.111 34.2788C291.103 34.1006 290.14 34.9321 288.969 34.65L289.339 33.7294L288.598 32.8089L288.598 35.0361L288.05 34.2937L287.131 34.6649L286.582 33.5513L286.404 34.2937L285.663 34.2937L285.663 33.7443L284.744 33.1949L284.922 34.6797L283.069 34.3085L283.069 35.0509L282.328 35.0509L282.328 34.3085C281.483 34.3976 280.46 34.0115 279.926 34.6797L279.378 34.3085L279.378 35.0509L278.088 34.3085C277.673 34.9618 276.888 34.5609 276.235 34.6797C276.102 34.7094 276.013 35.0064 275.865 35.0509C275.138 35.2736 274.812 34.6797 274.753 34.6797C274.694 34.6797 274.382 35.2588 273.834 35.0509L273.656 34.3085L272.174 35.0509L271.803 34.6797L271.803 33.9373L269.95 35.0509C269.105 34.2343 267.845 34.8133 266.808 35.0509L266.808 34.3085L266.259 34.6797C265.325 34.5015 264.48 34.3234 263.665 35.0509L262.553 34.3085L261.812 34.6797L261.264 34.3085L261.264 35.0509C260.419 34.4273 260.226 34.6946 259.603 35.4221L257.751 34.3085L257.573 35.0509L257.024 34.6797L255.912 35.4221L255.171 34.3085L254.43 35.0509L252.399 34.3085L252.399 35.0509L251.851 34.6797C251.376 35.3924 251.347 34.7243 251.11 34.6797C249.924 34.4867 249.197 35.1697 248.145 35.0509L247.967 34.3085L247.596 35.0509L246.307 35.0509L246.129 34.3085L245.758 35.0509L244.276 35.0509L244.276 34.3085L242.616 35.0509L242.438 33.9373L241.519 35.0509C240.837 34.3827 239.532 34.5758 238.747 35.0509L238.747 34.3085C238.095 34.2343 237.324 34.4124 236.716 34.3085C236.568 34.2788 236.464 33.9373 236.345 33.9373C236.168 33.9373 236.064 34.6649 235.604 33.9373L234.685 34.6797L234.685 33.9373C234.018 34.2194 233.455 33.5661 233.396 33.5661C233.307 33.5661 233.144 34.0709 232.654 33.9373C232.447 33.8779 231.276 33.5661 231.172 33.5661C231.098 33.5661 230.801 34.1452 230.253 33.9373L230.253 33.1949L229.512 33.1949L229.512 33.7443L228.771 33.9225L228.593 33.1801C227.852 34.1897 227.511 32.9276 227.11 32.8089C226.221 32.5564 224.828 32.8831 224.146 33.5513C223.093 33.0019 221.759 32.3634 220.81 32.8089L220.069 32.0664C219.328 32.497 218.083 32.408 217.105 31.6952L215.074 32.0664L215.444 31.5171L214.525 31.6952C213.191 30.4777 211.427 31.7546 210.078 30.5816L209.337 30.9528L208.596 30.2104L207.306 30.5816L207.484 29.8392C207.025 30.5668 206.921 29.8392 206.743 29.8392C206.654 29.8392 206.491 30.3441 206.002 30.2104C205.32 30.0174 204.312 29.8541 203.408 29.0968C202.503 29.4829 202.044 29.2899 201.184 29.0968C200.517 28.9484 199.509 29.2008 198.783 29.0968L198.961 28.3544C198.368 29.2156 197.982 28.3544 197.849 28.3544C197.79 28.3544 197.478 28.9335 196.93 28.7256L196.93 27.9832C196.085 28.7405 195.744 27.9832 195.64 27.9832C195.566 27.9832 195.27 28.5623 194.721 28.3544L194.721 27.612L193.431 27.2408L192.32 27.9832L191.401 27.612L191.401 26.8696C190.704 27.226 190.496 27.8496 189.548 27.612L189.37 26.8696C188.243 28.1614 186.865 26.246 186.035 26.4984C184.893 26.8399 182.492 26.6914 181.217 25.756C180.09 26.053 178.919 26.0827 177.882 25.3848L176.221 26.1272L176.221 25.3848L175.11 24.6424L174.561 25.3848C174.205 25.3403 173.79 25.4442 173.449 25.3848C171.804 25.0879 169.477 25.1621 167.52 24.6424C167.149 24.5385 166.72 24.8206 166.408 24.2712L166.586 25.0136C165.623 24.8354 164.985 24.2564 163.992 25.0136L163.621 24.2712L163.444 25.0136C162.406 24.583 161.65 24.2712 160.849 25.3848L160.672 24.6424C160.257 24.687 159.767 24.5682 159.382 24.6424C159.234 24.6721 159.13 25.0136 159.011 25.0136C158.819 25.0136 159.13 24.776 158.27 25.0136C157.233 25.2957 156.788 25.2512 156.047 25.0136C155.839 24.9394 155.557 25.0582 155.305 25.0136L155.128 25.756L154.757 25.0136C154.016 25.4739 153.749 25.9936 152.726 25.756C152.578 25.7263 152.504 25.4294 152.356 25.3848C151.852 25.2363 151.451 26.2757 150.873 25.3848L150.132 26.1272L149.584 25.3848L149.406 26.1272L148.487 26.4984L147.568 25.756C147.345 25.9193 146.53 26.4984 146.456 26.4984C146.337 26.4984 146.204 26.1272 146.085 26.1272C145.952 26.1272 145.151 26.8696 144.232 26.1272L143.313 26.4984L143.313 27.2408L142.024 26.4984L141.282 27.2408L140.541 26.8696C139.044 28.3247 136.702 27.9387 134.805 27.612L134.805 28.3544L132.581 28.3544L132.581 29.0968C130.699 29.5571 129.424 28.7405 127.956 29.8392C127.541 29.2453 126.8 29.5126 126.103 29.468L125.362 30.2104L124.621 29.8392L123.88 30.5816L123.139 29.468C122.442 30.0619 122.264 30.8637 121.478 30.2104L121.478 30.9528C120.826 31.0716 120.5 30.3738 119.818 30.5816C119.003 30.834 118.81 30.7153 117.965 30.9528C117.535 31.0716 116.735 30.0026 116.112 30.9528L115.564 30.5816L115.564 31.6952C114.956 31.9031 114.823 31.3834 114.645 31.324C113.904 31.1013 113.325 32.111 112.614 31.5022L112.243 32.0516L111.873 31.3092C111.057 31.1607 110.702 31.4428 110.212 32.0516C109.634 31.2201 109.323 32.1258 108.552 32.0516L108.73 30.938L107.618 32.0516C107.188 31.3686 107.07 32.1704 106.329 32.0516L106.151 31.3092L105.039 32.0516C104.313 31.4725 102.237 32.0367 101.333 32.4228L100.221 31.6804C99.5248 32.497 98.4574 31.9773 98.5612 30.938L97.6422 31.6804C96.6638 31.1162 96.4266 31.621 95.4186 31.6804L93.7584 30.938L93.7584 30.1956C92.5429 31.2052 91.0754 29.8689 90.2452 30.5668C89.5041 29.6759 88.6295 28.8889 87.6511 29.8244L86.91 29.082C86.4653 29.765 86.3467 28.9483 85.6203 29.082L85.7982 28.3396L85.057 29.082L84.138 28.7108L84.138 27.9684C83.4116 28.4881 83.4265 28.2059 82.8483 27.5972C82.3592 28.2208 81.277 27.2111 80.4469 27.226C80.6396 26.2905 80.1356 25.9342 79.5279 25.37L79.7057 26.4836L77.8528 26.1124L77.8528 25.37L75.822 25.7412L75.2735 24.6276L74.5323 24.6276L74.5323 23.8851L73.6133 24.2564L72.8721 23.1427L73.05 23.6921L72.131 24.2415C71.2712 23.3952 70.4263 22.0143 69.1663 23.1279L69.3441 22.3855L68.2324 22.7567L67.3133 22.3855L67.3133 21.6431L66.5721 22.3855C65.831 21.5243 65.3715 21.0492 64.1707 21.2719L64.1707 20.5295L63.6223 20.5295L63.8002 21.2719C63.1924 21.4649 62.9701 20.7671 62.5105 20.9007C62.3623 20.9452 62.2585 21.2719 62.14 21.2719C62.0658 21.2719 61.5173 20.6186 60.8503 20.9007L60.3018 19.7871L59.5606 20.5295C59.0863 20.4701 58.5082 20.6186 58.0783 20.5295C57.9449 20.4998 57.8708 20.2325 57.7077 20.1583C57.3371 19.995 56.9962 20.4849 57.1592 19.4159L56.7886 19.9653L56.6108 20.8858L56.0623 19.7722L55.5139 20.1434C54.8764 19.2229 54.3131 20.6928 53.6609 19.7722L53.483 20.5146C53.3644 20.6631 51.7932 18.7477 52.0007 20.5146L50.3404 19.7722L48.6802 20.5146L48.8581 19.7722C47.7463 19.5941 47.0052 19.9801 46.0861 20.5146L46.0861 18.2874L46.0861 19.208C45.9675 19.9207 43.4179 20.0395 42.9435 19.3862L42.0245 20.1286L41.8466 19.3862L41.1054 20.1286L40.7348 19.7574L40.1864 20.1286C40.3346 19.4159 39.6972 19.1338 39.2673 18.6438L38.7188 19.3862L38.7188 18.6438L38.3482 18.6438L38.3482 19.3862C38.3482 19.3862 38.1111 19.4604 37.9777 19.208C37.8887 19.0298 38.0518 18.718 37.9777 18.6586C37.9332 18.6141 37.2365 18.7626 37.0586 18.2874L36.8807 19.0298L35.2205 19.0298L34.6721 18.2874C34.42 18.7626 35.2946 19.2525 34.8499 19.401C34.2866 19.5941 33.8123 19.891 33.1897 19.7722C33.1156 19.698 33.2935 19.3862 33.1897 19.2229C32.5671 18.1241 31.0848 19.3416 31.3368 17.9311L32.997 18.3023L33.7382 17.5599C34.8499 18.3171 35.5614 17.3223 36.3323 17.1887C37.6664 16.9511 39.549 17.3668 40.9572 17.1887L40.9572 17.9311L41.6984 17.9311L41.5205 18.3023L42.0689 18.6735L41.6984 17.1887L42.8101 17.5599L42.8101 18.3023L43.1807 18.3023L43.9219 17.5599L42.2617 17.1887L42.0838 16.4463C43.6847 16.6096 45.1967 16.4611 45.0485 14.5903L46.1602 14.5903L45.9823 15.3327L46.7235 14.5903C48.443 14.5309 50.1625 14.5457 51.5411 15.3327L53.0235 14.5903C53.7647 14.9763 55.3952 15.6593 55.9882 14.9615L56.7293 15.7039L56.7293 14.5903C57.4557 15.8226 58.6416 15.0951 59.694 15.3327C60.6576 15.5554 61.4136 15.5108 62.2881 15.3327C62.555 15.2733 62.9108 15.3624 63.2072 15.3327L62.2881 16.4463C62.9849 15.8078 63.9484 15.5405 64.8823 15.7039C65.0305 15.7336 65.1194 16.0602 65.2528 16.0751C65.9496 16.1642 66.8538 15.9414 67.4764 16.0751C67.6098 16.1048 68.4251 16.7729 68.5881 16.8175C70.2187 17.2629 71.4935 17.8865 73.0352 18.3023C73.3168 18.3765 73.2872 19.0001 73.7763 18.3023L73.5985 19.0447C74.2507 18.7477 74.7695 19.401 74.8881 19.4159C75.57 19.5198 76.489 19.2822 77.1116 19.4159C78.09 19.6238 79.3352 21.5837 80.9954 20.9007L80.9954 21.6431L81.9145 21.2719L82.6556 22.0143C83.2189 21.2719 84.5827 22.5785 85.2497 22.7567C87.8883 23.4843 90.6158 24.4494 93.0321 25.3551C95.9227 26.4242 99.6582 25.5036 102.297 26.0975C102.949 26.246 104.342 26.632 105.261 26.4687C108.849 25.8154 112.644 26.2311 115.638 25.7263C116.364 25.6075 117.787 25.5778 118.232 26.0975C118.484 26.1718 118.988 25.8748 119.151 25.7263L119.151 26.8399L119.892 26.8399C119.744 26.2757 120.144 26.1718 120.263 25.7263L119.151 25.7263C119.774 25.2066 120.055 24.3454 121.182 25.3551L122.294 24.6127L123.405 25.3551L123.227 24.6127C124.221 24.5088 125.407 24.7463 126.37 24.6127C126.607 24.583 127.897 23.9594 128.223 23.8703C128.594 23.7664 129.023 24.0633 129.335 23.4991L129.513 24.9839L128.401 24.9839L128.223 24.6127L128.045 24.9839L126.563 24.6127L127.852 26.8399L129.335 25.7263C129.557 25.8896 130.372 26.4687 130.447 26.4687C130.639 26.4687 130.728 25.7412 131.188 26.4687L131.736 25.7263C130.995 25.8303 130.506 25.266 130.624 24.6127L129.883 24.4345C130.447 23.707 130.639 23.7812 131.366 24.2564C131.188 23.2912 132.077 23.2912 132.655 22.7715L134.138 23.1428C135.071 22.4449 137.117 21.851 138.214 22.0291C140.052 22.341 143.387 21.4501 145.255 20.5443C146.604 21.5095 149.005 19.3862 150.443 20.5443C151.852 19.4159 153.171 20.0989 154.89 19.8019C155.039 19.7722 155.217 19.2229 155.809 19.4307L155.632 20.1731C155.943 19.6089 156.417 19.9059 156.743 19.8019C157.129 19.6832 160.716 18.9556 161.19 19.0595C163.251 19.5347 163.399 19.312 164.896 19.0595C166.393 18.8071 168.202 19.7722 168.409 21.2867L168.587 21.2867L170.248 20.1731L168.395 19.4307C169.447 19.5792 170.959 19.2229 171.908 19.4307C172.723 19.6089 174.902 19.6386 175.614 19.4307C175.999 19.3268 178.593 20.1137 178.949 20.1731C181.261 20.5592 183.381 19.6683 185.249 20.9155C188.895 20.7671 193.728 21.5689 197.478 22.7716C200.147 22.6082 203.289 23.4546 206.372 23.8852C208.966 24.2415 211.62 25.5333 213.784 25.37C214.644 26.8548 215.593 25.5036 216.378 25.7412L218.231 26.8548C219.121 25.9342 220.944 27.0923 221.937 27.226C222.604 27.3151 223.612 27.0775 224.161 27.226C224.442 27.3002 225.243 28.4584 225.643 28.7108L225.465 27.5972C226.384 27.4635 226.947 28.1763 227.866 27.9684C229.304 27.6269 231.098 27.9387 233.055 28.3396C235.011 28.7405 237.828 28.4287 240.096 29.082C240.481 29.1859 241.089 28.4287 241.756 28.7108L241.756 29.4532L243.046 28.7108L243.594 29.4532C242.986 29.2899 241.964 30.2847 242.112 30.745C242.349 31.4577 243.416 31.1162 243.772 31.6656L245.996 32.0368L245.625 30.9231L244.513 31.2943L243.594 30.3738L244.335 29.8244L245.447 30.1956C245.269 29.2305 246.159 29.2305 246.737 28.7108C247.315 29.3938 248.441 28.9632 249.331 29.082C249.464 29.0968 249.568 29.4383 249.701 29.4532C251.51 29.6759 253.022 28.6959 254.519 29.8244L255.631 29.082L255.453 29.8244C256.046 30.0323 256.239 29.4829 256.372 29.4532C257.78 29.2008 261.219 29.9135 261.56 29.8244C263.072 29.3938 264.629 29.8689 266.007 29.4532C266.422 29.3196 267.831 29.8689 268.231 30.1956L268.409 29.4532L269.328 29.082C270.543 29.9135 272.633 29.2008 274.145 29.4532C274.382 29.4977 274.412 30.1659 274.886 29.4532L275.806 30.1956L275.806 29.4532L278.4 29.4532L278.029 30.938L278.578 30.938L279.497 31.6804L277.466 31.6804C276.873 31.4428 276.962 30.6113 276.917 30.5668C276.858 30.5074 275.628 30.1214 275.628 30.5668L274.709 29.8244C274.412 31.2647 275.109 30.6856 275.82 31.4874L275.45 31.8586L276.191 31.6804L276.191 32.4228C276.799 32.0219 277.495 31.9328 278.222 32.0516C279.289 32.2298 283.721 31.7695 284.329 32.0516C284.344 32.0516 284.255 32.3634 284.507 32.4228C285.085 32.5713 285.663 32.2892 285.797 31.6804L285.248 31.6804C285.011 31.6062 285.1 31.4428 285.07 31.3092C285.218 31.235 285.5 31.3389 285.441 30.938L286.36 31.3092L287.279 30.938L287.279 31.6804L288.02 31.3092L288.02 32.0516L291.726 32.0516L291.355 30.938C291.696 30.641 292.823 31.6359 293.016 31.6804C293.653 31.814 294.453 31.3834 294.869 32.0516C295.476 32.2149 295.387 31.6953 295.417 31.6804C295.491 31.6507 295.654 31.6953 295.788 31.6804C295.832 31.7843 295.713 31.9774 295.965 32.0516C296.203 32.0516 296.114 31.7695 296.143 31.6804C297.255 32.0071 296.721 31.8437 297.433 31.6804C298.1 31.5319 299.108 31.7843 299.834 31.6804L300.383 32.794C300.739 32.1704 301.332 32.5416 301.865 32.4228C302.013 32.3931 302.088 32.0813 302.236 32.0516C302.606 31.9774 303.125 32.0962 303.525 32.0516L304.074 33.1652L304.993 32.6158L304.993 31.6953C305.808 31.5468 306.164 31.8289 306.653 32.4377L307.394 31.6953C307.987 32.4822 308.921 31.8586 309.618 31.3241L311.471 32.8089C312.049 31.9774 312.568 33.0464 313.502 32.8089L313.502 32.4377L312.953 32.4377L313.324 32.0665L313.694 33.5513L315.355 32.8089L314.243 31.6953L315.355 31.8734L316.644 31.3241C317.415 32.2892 317.726 32.2892 318.497 31.3241C318.897 31.9031 321.921 30.8786 322.203 30.9529C322.485 31.0271 323.952 31.6953 324.056 31.6953C324.175 31.6953 324.278 31.3537 324.427 31.3241C324.931 31.235 325.553 31.3834 326.087 31.3241L325.346 30.2104L326.457 30.7598L327.569 31.6804L327.569 30.938L328.859 30.5668L329.971 31.3092L329.6 29.8244C330.223 30.7598 330.993 30.5965 332.001 30.5668C331.705 31.0271 331.705 31.2053 331.631 31.6804C331.142 31.6953 330.638 31.6804 330.148 31.6804L330.148 32.0516L331.631 32.794C331.66 32.4377 331.571 32.0219 331.631 31.6804C331.883 31.6804 332.12 31.6804 332.372 31.6804L333.113 30.5668L334.225 31.6804L333.484 32.0516L333.854 33.1652L333.113 32.794L332.935 32.4228C332.698 32.4228 332.772 32.7792 332.757 32.794C332.164 33.2395 331.705 33.7146 330.904 33.5364L330.904 32.794L329.793 33.1652C329.971 31.9477 328.34 31.5319 327.94 32.794C328.355 32.8534 328.874 32.7049 329.229 32.794C329.481 32.8534 329.392 33.1652 329.407 33.1652L328.918 33.1652ZM259.841 34.2788C260.078 34.2788 260.078 33.9076 259.841 33.9076C259.603 33.9076 259.603 34.2788 259.841 34.2788ZM255.957 34.2788L256.698 34.2788L256.698 33.9076L255.957 33.9076L255.957 34.2788ZM291.696 33.9076C291.933 33.9076 291.933 33.5364 291.696 33.5364C291.459 33.5364 291.459 33.9076 291.696 33.9076ZM282.802 33.9076C283.039 33.9076 283.039 33.5364 282.802 33.5364C282.565 33.5364 282.565 33.9076 282.802 33.9076ZM281.32 33.9076L281.498 33.7294L280.949 33.1801L280.771 33.3582L281.32 33.9076ZM310.952 33.5364C311.189 33.5364 311.189 33.1652 310.952 33.1652C310.715 33.1652 310.715 33.5364 310.952 33.5364ZM283.914 33.5364C284.151 33.5364 284.151 33.1652 283.914 33.1652C283.677 33.1652 283.677 33.5364 283.914 33.5364ZM240.214 33.5364C240.452 33.5364 240.452 33.1652 240.214 33.1652C239.977 33.1652 239.977 33.5364 240.214 33.5364ZM299.108 33.1652C299.345 33.1652 299.345 32.794 299.108 32.794C298.871 32.794 298.871 33.1652 299.108 33.1652ZM297.996 33.1652C298.233 33.1652 298.233 32.794 297.996 32.794C297.759 32.794 297.759 33.1652 297.996 33.1652ZM287.62 33.1652C287.857 33.1652 287.857 32.794 287.62 32.794C287.383 32.794 287.383 33.1652 287.62 33.1652ZM285.396 33.1652C285.634 33.1652 285.634 32.794 285.396 32.794C285.159 32.794 285.159 33.1652 285.396 33.1652ZM277.985 33.1652C278.222 33.1652 278.222 32.794 277.985 32.794C277.747 32.794 277.747 33.1652 277.985 33.1652ZM243.535 32.794C243.772 32.794 243.772 32.4228 243.535 32.4228C243.298 32.4228 243.298 32.794 243.535 32.794ZM270.024 31.3092L270.766 32.4228L270.766 30.5668L270.024 30.1956L269.283 30.745L270.024 31.2944L270.024 31.3092ZM319.105 32.0516C319.342 32.0516 319.342 31.6804 319.105 31.6804C318.868 31.6804 318.868 32.0516 319.105 32.0516ZM273.538 32.0516C273.775 32.0516 273.775 31.6804 273.538 31.6804C273.3 31.6804 273.3 32.0516 273.538 32.0516ZM272.426 32.0516C272.663 32.0516 272.663 31.6804 272.426 31.6804C272.189 31.6804 272.189 32.0516 272.426 32.0516ZM271.136 32.0516L271.877 32.0516L271.877 31.6804L271.136 31.6804L271.136 32.0516ZM269.105 32.0516C269.342 32.0516 269.342 31.6804 269.105 31.6804C268.868 31.6804 268.868 32.0516 269.105 32.0516ZM266.319 30.938C266.378 31.3686 266.037 32.1555 266.689 32.0516L266.867 31.3092L268.349 31.6804L268.898 30.7598L266.304 30.938L266.319 30.938ZM264.466 32.0516L265.577 32.0516L265.577 31.6804L264.466 31.6804L264.466 32.0516ZM260.389 32.0516L263.354 32.0516L262.983 31.5022L264.095 30.5816L261.871 30.2104L261.871 30.7598L261.501 30.5816L261.501 31.324L262.242 31.6952L260.582 31.324L260.404 32.0665L260.389 32.0516ZM257.988 32.0516C258.225 32.0516 258.225 31.6804 257.988 31.6804C257.751 31.6804 257.751 32.0516 257.988 32.0516ZM249.835 32.0516C250.072 32.0516 250.072 31.6804 249.835 31.6804C249.598 31.6804 249.598 32.0516 249.835 32.0516ZM248.175 32.0516L248.916 32.0516L248.916 31.6804L248.175 31.6804L248.175 32.0516ZM222.426 32.0516C222.663 32.0516 222.663 31.6804 222.426 31.6804C222.189 31.6804 222.189 32.0516 222.426 32.0516ZM259.099 31.6804C259.337 31.6804 259.337 31.3092 259.099 31.3092C258.862 31.3092 258.862 31.6804 259.099 31.6804ZM240.941 31.3092C241.178 31.3092 241.178 30.938 240.941 30.938C240.704 30.938 240.704 31.3092 240.941 31.3092ZM237.25 31.3092C237.487 31.3092 237.487 30.938 237.25 30.938C237.012 30.938 237.012 31.3092 237.25 31.3092ZM236.508 31.3092C236.746 31.3092 236.746 30.938 236.508 30.938C236.271 30.938 236.271 31.3092 236.508 31.3092ZM273.538 30.938C273.775 30.938 273.775 30.5668 273.538 30.5668C273.3 30.5668 273.3 30.938 273.538 30.938ZM272.248 30.938L272.989 30.938L272.989 30.5668L272.248 30.5668L272.248 30.938ZM252.429 30.938C252.666 30.938 252.666 30.5668 252.429 30.5668C252.192 30.5668 252.192 30.938 252.429 30.938ZM250.398 30.938L251.139 30.938L251.139 30.5668L250.398 30.5668L250.398 30.938ZM249.094 30.938C249.331 30.938 249.331 30.5668 249.094 30.5668C248.856 30.5668 248.856 30.938 249.094 30.938ZM246.692 30.938L247.433 30.938L247.433 30.5668L246.692 30.5668L246.692 30.938ZM240.214 30.5668C240.452 30.5668 240.452 30.1956 240.214 30.1956C239.977 30.1956 239.977 30.5668 240.214 30.5668ZM228.356 30.5668C228.593 30.5668 228.593 30.1956 228.356 30.1956C228.118 30.1956 228.118 30.5668 228.356 30.5668ZM258.536 30.1956L259.277 30.1956L259.277 29.8244L258.536 29.8244L258.536 30.1956ZM234.656 30.1956C234.893 30.1956 234.893 29.8244 234.656 29.8244C234.418 29.8244 234.418 30.1956 234.656 30.1956ZM116.127 30.1956L116.305 30.0174L115.756 29.468L115.579 29.6462L116.127 30.1956ZM248.352 29.8244C248.59 29.8244 248.59 29.4532 248.352 29.4532C248.115 29.4532 248.115 29.8244 248.352 29.8244ZM231.128 29.8244L231.869 29.8244L231.869 29.4532L231.128 29.4532L231.128 29.8244ZM226.681 29.4532L227.792 29.4532L227.792 29.082L226.681 29.082L226.681 29.4532ZM222.797 28.7108C223.034 28.7108 223.034 28.3396 222.797 28.3396C222.56 28.3396 222.56 28.7108 222.797 28.7108ZM112.599 27.612L112.228 28.7256L112.97 27.2408L110.746 27.2408L112.599 27.612ZM106.121 28.7108C106.358 28.7108 106.358 28.3396 106.121 28.3396C105.884 28.3396 105.884 28.7108 106.121 28.7108ZM218.172 28.3396L218.913 28.3396L218.913 27.9684L218.172 27.9684L218.172 28.3396ZM212.613 27.612L212.065 27.9832L211.516 27.8051L212.628 28.3544L212.628 27.612L212.613 27.612ZM107.04 27.612C106.862 27.7605 107.692 28.592 108.152 28.3544C108.33 28.2059 107.5 27.3744 107.04 27.612ZM101.674 28.3396C101.911 28.3396 101.911 27.9684 101.674 27.9684C101.437 27.9684 101.437 28.3396 101.674 28.3396ZM95.0036 28.3396C95.2408 28.3396 95.2408 27.9684 95.0036 27.9684C94.7664 27.9684 94.7664 28.3396 95.0036 28.3396ZM94.2624 28.3396C94.4996 28.3396 94.4996 27.9684 94.2624 27.9684C94.0252 27.9684 94.0252 28.3396 94.2624 28.3396ZM210.567 27.9832C210.805 27.9832 210.805 27.612 210.567 27.612C210.33 27.612 210.33 27.9832 210.567 27.9832ZM99.2727 27.9832L101.126 27.9832L101.126 27.612C100.577 27.6269 100.147 27.7308 99.836 27.2408L99.2876 27.9832L99.2727 27.9832ZM129.824 27.612C130.061 27.612 130.061 27.2408 129.824 27.2408C129.587 27.2408 129.587 27.612 129.824 27.612ZM120.93 27.612C121.167 27.612 121.167 27.2408 120.93 27.2408C120.693 27.2408 120.693 27.612 120.93 27.612ZM115.015 27.612C115.252 27.612 115.252 27.2408 115.015 27.2408C114.778 27.2408 114.778 27.612 115.015 27.612ZM110.198 27.612C110.435 27.612 110.435 27.2408 110.198 27.2408C109.96 27.2408 109.96 27.612 110.198 27.612ZM212.05 27.2408C212.287 27.2408 212.287 26.8696 212.05 26.8696C211.813 26.8696 211.813 27.2408 212.05 27.2408ZM117.787 26.4984L117.787 27.2408L118.158 27.2408L118.158 26.4984L117.787 26.4984ZM116.675 27.2408L117.417 27.2408L117.417 26.8696L116.675 26.8696L116.675 27.2408ZM210.567 26.8696C210.805 26.8696 210.805 26.4984 210.567 26.4984C210.33 26.4984 210.33 26.8696 210.567 26.8696ZM122.605 26.4984L122.056 25.756L121.137 26.6766L121.315 26.8548C121.627 26.3648 122.056 26.4687 122.605 26.4836L122.605 26.4984ZM80.5655 26.4984C80.8027 26.4984 80.8027 26.1272 80.5655 26.1272C80.3283 26.1272 80.3283 26.4984 80.5655 26.4984ZM133.722 26.1272L134.464 26.1272L134.464 25.756L133.722 25.756L133.722 26.1272ZM133.159 26.1272C133.396 26.1272 133.396 25.756 133.159 25.756C132.922 25.756 132.922 26.1272 133.159 26.1272ZM89.8154 26.1272C90.0525 26.1272 90.0525 25.756 89.8154 25.756C89.5782 25.756 89.5782 26.1272 89.8154 26.1272ZM85.7537 25.756C85.9909 25.756 85.9909 25.3848 85.7537 25.3848C85.5166 25.3848 85.5166 25.756 85.7537 25.756ZM197.982 25.3848C198.219 25.3848 198.219 25.0136 197.982 25.0136C197.745 25.0136 197.745 25.3848 197.982 25.3848ZM134.449 25.0136L135.19 25.0136L135.19 24.6424L134.449 24.6424L134.449 25.0136ZM83.1596 25.0136C83.3968 25.0136 83.3968 24.6424 83.1596 24.6424C82.9225 24.6424 82.9225 25.0136 83.1596 25.0136ZM198.723 24.6424C198.961 24.6424 198.961 24.2712 198.723 24.2712C198.486 24.2712 198.486 24.6424 198.723 24.6424ZM153.897 24.6424C154.134 24.6424 154.134 24.2712 153.897 24.2712C153.66 24.2712 153.66 24.6424 153.897 24.6424ZM132.611 24.6424L133.352 24.6424L133.352 24.2712L132.611 24.2712L132.611 24.6424ZM140.571 24.2712C140.808 24.2712 140.808 23.9 140.571 23.9C140.334 23.9 140.334 24.2712 140.571 24.2712ZM135.012 24.2712C135.249 24.2712 135.249 23.9 135.012 23.9C134.775 23.9 134.775 24.2712 135.012 24.2712ZM142.602 23.9L144.262 23.5288L145.922 23.707C145.329 22.8458 144.381 23.2021 143.521 23.1576L142.602 23.9ZM83.1596 23.9C83.3968 23.9 83.3968 23.5288 83.1596 23.5288C82.9225 23.5288 82.9225 23.9 83.1596 23.9ZM191.134 22.7864L191.134 23.5288L191.504 23.5288L191.504 22.7864L191.134 22.7864ZM79.4538 23.5288C79.6909 23.5288 79.6909 23.1576 79.4538 23.1576C79.2166 23.1576 79.2166 23.5288 79.4538 23.5288ZM166.868 23.1576C167.105 23.1576 167.105 22.7864 166.868 22.7864C166.631 22.7864 166.631 23.1576 166.868 23.1576ZM146.871 23.1576C147.108 23.1576 147.108 22.7864 146.871 22.7864C146.634 22.7864 146.634 23.1576 146.871 23.1576ZM78.342 23.1576C78.5792 23.1576 78.5792 22.7864 78.342 22.7864C78.1048 22.7864 78.1048 23.1576 78.342 23.1576ZM143.714 22.7864L144.825 22.7864L144.825 22.4152L143.714 22.4152L143.714 22.7864ZM80.5655 22.7864L81.114 22.237L80.9361 22.0588L80.3877 22.6082L80.5655 22.7864ZM76.8597 22.7864L77.4081 22.237L77.2302 22.0588L76.6818 22.6082L76.8597 22.7864ZM177.422 22.4152L178.163 22.4152L178.163 22.044L177.422 22.044L177.422 22.4152ZM175.569 22.4152L176.31 22.4152L176.31 22.044L175.569 22.044L175.569 22.4152ZM173.909 22.4152L174.087 22.237L173.538 21.6876L173.36 21.8658L173.909 22.4152ZM152.785 22.4152C153.023 22.4152 153.023 22.044 152.785 22.044C152.548 22.044 152.548 22.4152 152.785 22.4152ZM146.13 22.4152C146.367 22.4152 146.367 22.044 146.13 22.044C145.893 22.044 145.893 22.4152 146.13 22.4152ZM71.3008 22.4152C71.538 22.4152 71.538 22.044 71.3008 22.044C71.0637 22.044 71.0637 22.4152 71.3008 22.4152ZM172.427 22.044C172.664 22.044 172.664 21.6728 172.427 21.6728C172.189 21.6728 172.189 22.044 172.427 22.044ZM169.832 22.044C170.07 22.044 170.07 21.6728 169.832 21.6728C169.595 21.6728 169.595 22.044 169.832 22.044ZM168.721 22.044L169.269 21.4946L169.091 21.3164L168.543 21.8658L168.721 22.044ZM155.009 22.044C155.246 22.044 155.246 21.6728 155.009 21.6728C154.772 21.6728 154.772 22.044 155.009 22.044ZM149.643 22.044L150.384 22.044L150.384 21.6728L149.643 21.6728L149.643 22.044ZM141.683 22.044C141.92 22.044 141.92 21.6728 141.683 21.6728C141.446 21.6728 141.446 22.044 141.683 22.044ZM77.7787 22.044L78.5199 22.044L78.5199 21.6728L77.7787 21.6728L77.7787 22.044ZM165.193 21.6728L165.741 21.6728L166.29 20.9304L165.178 20.9304L165.178 21.6728L165.193 21.6728ZM152.608 21.6728L153.349 21.6728L153.349 21.3016L152.608 21.3016L152.608 21.6728ZM76.8597 21.6728C77.0968 21.6728 77.0968 21.3016 76.8597 21.3016C76.6225 21.3016 76.6225 21.6728 76.8597 21.6728ZM174.087 21.3016L175.199 21.3016L175.199 20.9304L174.087 20.9304L174.087 21.3016ZM74.0728 20.9304L76.2964 21.3016L75.5552 20.7522L75.5552 20.2028C74.6361 20.2919 74.0728 20.2474 73.5244 19.4604L74.0728 20.2028L74.0728 20.9452L74.0728 20.9304ZM73.5244 21.3016C73.7615 21.3016 73.7615 20.9304 73.5244 20.9304C73.2872 20.9304 73.2872 21.3016 73.5244 21.3016ZM163.355 20.5592L164.466 20.0098L164.289 19.8316L163.369 20.2028L163.369 20.574L163.355 20.5592ZM76.8597 20.5592C77.0968 20.5592 77.0968 20.188 76.8597 20.188C76.6225 20.188 76.6225 20.5592 76.8597 20.5592ZM70.5597 20.5592C70.7968 20.5592 70.7968 20.188 70.5597 20.188C70.3225 20.188 70.3225 20.5592 70.5597 20.5592ZM70.7524 19.8168L72.2347 20.188L72.2347 19.4456C71.4194 20.084 71.538 19.401 70.7524 19.0744L70.7524 19.8168ZM57.2334 19.8168C57.4706 19.8168 57.4706 19.4456 57.2334 19.4456C56.9962 19.4456 56.9962 19.8168 57.2334 19.8168ZM69.0773 19.0892L69.2552 18.911L68.7067 18.3617L68.5289 18.5398L69.0773 19.0892ZM67.2244 19.0892C67.4616 19.0892 67.4616 18.718 67.2244 18.718C66.9872 18.718 66.9872 19.0892 67.2244 19.0892ZM60.9244 19.0892C61.1616 19.0892 61.1616 18.718 60.9244 18.718C60.6872 18.718 60.6872 19.0892 60.9244 19.0892ZM33.5158 19.0892C33.753 19.0892 33.753 18.718 33.5158 18.718C33.2786 18.718 33.2786 19.0892 33.5158 19.0892ZM66.4832 18.718C66.7204 18.718 66.7204 18.3468 66.4832 18.3468C66.246 18.3468 66.246 18.718 66.4832 18.718ZM67.0465 18.3468L68.1583 18.3468L68.1583 17.9756C67.595 18.1241 67.4912 17.7232 67.0465 17.6044L67.0465 18.3468ZM50.1922 18.3468C50.4294 18.3468 50.4294 17.9756 50.1922 17.9756C49.955 17.9756 49.955 18.3468 50.1922 18.3468ZM37.7849 18.3468C38.5854 18.3765 39.1635 18.4953 39.6379 17.7974L39.46 17.6193L37.7998 17.9905L37.7998 18.3617L37.7849 18.3468ZM66.1126 17.9756C66.3498 17.9756 66.3498 17.6044 66.1126 17.6044C65.8755 17.6044 65.8755 17.9756 66.1126 17.9756ZM61.6656 17.9756C61.9028 17.9756 61.9028 17.6044 61.6656 17.6044C61.4284 17.6044 61.4284 17.9756 61.6656 17.9756ZM60.3759 17.9756L61.1171 17.9756L61.1171 17.6044L60.3759 17.6044L60.3759 17.9756ZM58.7009 17.9756C58.9381 17.9756 58.9381 17.6044 58.7009 17.6044C58.4637 17.6044 58.4637 17.9756 58.7009 17.9756ZM57.9745 17.6044C58.2117 17.6044 58.2117 17.2332 57.9745 17.2332C57.7374 17.2332 57.7374 17.6044 57.9745 17.6044ZM55.751 17.6044C55.9882 17.6044 55.9882 17.2332 55.751 17.2332C55.5139 17.2332 55.5139 17.6044 55.751 17.6044ZM53.5275 17.6044C53.7647 17.6044 53.7647 17.2332 53.5275 17.2332C53.2903 17.2332 53.2903 17.6044 53.5275 17.6044ZM50.7407 16.862L50.9186 17.2332C51.1557 17.2332 51.0816 16.8769 51.0964 16.862C51.0964 16.862 51.3781 16.9363 51.467 16.6838C51.719 16.0305 50.9037 15.7781 50.7259 16.5057C49.1694 17.8123 48.532 15.9266 47.9539 15.7633C46.9904 15.496 46.2047 16.1345 46.1009 16.1345C45.9823 16.1345 45.1374 15.1545 44.4407 16.3126L45.3598 17.2332L46.8421 16.1196C47.183 16.7432 47.8205 16.3572 48.3245 16.4908C48.532 16.5502 48.8581 17.1738 49.0656 17.2332C49.4362 17.3371 49.8661 17.055 50.1774 17.6044L50.7259 16.862L50.7407 16.862ZM44.0701 16.862L44.0701 17.6044L44.4407 17.6044L44.4407 16.862L44.0701 16.862ZM60.5538 17.2332C60.791 17.2332 60.791 16.862 60.5538 16.862C60.3167 16.862 60.3167 17.2332 60.5538 17.2332ZM46.6642 17.2332L47.776 17.2332L47.776 16.862L46.6642 16.862L46.6642 17.2332ZM58.1524 16.862L58.8936 16.862L58.8936 16.4908L58.1524 16.4908L58.1524 16.862ZM56.1216 16.4908C56.3588 16.4908 56.3588 16.1196 56.1216 16.1196C55.8844 16.1196 55.8844 16.4908 56.1216 16.4908ZM52.4157 16.4908C52.6529 16.4908 52.6529 16.1196 52.4157 16.1196C52.1786 16.1196 52.1786 16.4908 52.4157 16.4908ZM49.4511 16.1196C49.6882 16.1196 49.6882 15.7484 49.4511 15.7484C49.2139 15.7484 49.2139 16.1196 49.4511 16.1196Z" fill="#A5D1B9"/>
<path d="M283.366 30.938C283.158 30.7153 282.387 30.6262 282.624 29.8244L284.285 29.4532L285.396 30.1956L287.427 29.4532L287.057 30.5668C286.434 30.6559 285.574 30.4331 285.026 30.5668C284.774 30.6262 284.863 30.938 284.848 30.938C284.729 30.9528 284.596 30.938 284.477 30.938C284.344 30.4035 284.107 30.5519 283.558 30.5668L283.38 30.938L283.366 30.938Z" fill="#A5D1B9"/>
<path d="M351.88 29.0819L352.621 28.7107L352.621 27.5971L353.169 27.5971L352.992 26.8547C354.311 26.5577 353.392 27.8049 353.911 28.3395C354.444 27.5674 355.2 27.4337 356.134 27.5971C356.282 27.6268 356.771 28.2504 357.424 27.9683L356.683 26.8547C357.335 27.1516 357.913 26.4835 357.972 26.4835C358.18 26.4835 358.239 27.211 358.713 26.4835L361.485 26.3053L360.374 26.4835L360.374 27.2259L358.15 27.5971L357.779 29.4531C357.157 29.6461 356.949 28.9482 356.49 29.0819C355.556 29.3343 355.645 29.3046 354.637 29.0819C353.866 28.9037 352.695 29.2006 351.865 29.0819L351.88 29.0819ZM355.778 28.3395C356.015 28.3395 356.015 27.9683 355.778 27.9683C355.541 27.9683 355.541 28.3395 355.778 28.3395Z" fill="#A5D1B9"/>
<path d="M380.771 22.4151C380.667 21.4648 379.096 22.4448 378.74 22.7863L377.628 22.7863L377.628 21.6727C378.28 22.5487 378.755 21.7915 379.11 21.6727C380.237 21.3015 381.556 21.1233 382.446 21.3015C382.713 21.3609 383.068 21.2718 383.365 21.3015L383.365 20.5591L384.477 20.5591L384.299 22.7863L383.558 21.6727L382.268 22.0439L382.638 22.7863L380.608 22.7863L380.608 23.8999L380.786 22.4151L380.771 22.4151Z" fill="#A5D1B9"/>
<path d="M278.177 30.5667L278.726 29.4531L279.096 30.1955L279.467 29.4531C280.342 29.9431 280.356 29.4976 280.579 29.4531C280.638 29.4531 280.86 30.047 281.498 29.4531L280.949 30.9379L280.208 30.5667L279.467 31.3091L278.177 30.5667Z" fill="#A5D1B9"/>
<path d="M326.695 29.8243L326.695 28.9037L326.517 28.7255C325.983 29.2155 325.346 29.4679 324.664 29.4679C324.189 29.4679 323.315 29.4679 323.552 28.7255L325.405 28.7255C325.909 27.998 328.755 28.8294 329.111 28.7255C329.289 28.681 329.437 28.1613 330.03 28.3543L330.771 29.0967L328.74 29.0967C328.266 29.9579 327.569 28.9779 327.451 29.0967L326.709 29.8391L326.695 29.8243Z" fill="#A5D1B9"/>
<path d="M348.545 26.4984L350.575 26.1272L351.494 25.3848L351.124 26.8696L350.205 26.4984C349.701 26.929 348.856 27.612 348.545 26.4984Z" fill="#A5D1B9"/>
<path d="M314.109 29.8243C313.872 29.7204 313.19 29.8986 312.82 29.8243L311.901 29.0819L313.561 28.7107C313.768 29.1265 314.154 29.0077 314.302 29.0819C314.569 29.2156 314.465 29.4383 314.48 29.4531L314.109 29.8243Z" fill="#A5D1B9"/>
<path d="M314.109 29.8243L314.48 29.4531C314.613 29.5125 314.984 29.4234 315.221 29.4531L315.221 30.1955C314.391 30.4776 314.169 29.854 314.109 29.8243Z" fill="#A5D1B9"/>
<path d="M304.104 30.5667L303.733 29.453L306.327 30.0173L304.104 30.5667Z" fill="#A5D1B9"/>
<path d="M306.698 30.1956L307.617 29.082C307.869 29.2453 308.18 29.765 308.358 29.8244C308.966 30.0026 309.173 28.9335 309.648 29.275C309.114 29.8244 308.61 30.6113 307.795 30.0174L306.683 30.1956L306.698 30.1956Z" fill="#A5D1B9"/>
<path d="M359.291 23.8998L361.515 23.5286L360.596 24.271L359.291 23.8998Z" fill="#A5D1B9"/>
<path d="M352.991 25.7559L354.281 25.0135L355.2 25.3847L355.2 24.6423L355.571 24.8205L357.053 24.6423C357.32 25.9192 356.075 25.2214 355.393 25.3847C355.244 25.4144 355.156 25.7411 355.022 25.7559C354.4 25.845 353.644 25.6965 352.991 25.7559Z" fill="#A5D1B9"/>
<path d="M38.8969 15.7483L39.4453 14.6347L39.638 15.3771L41.1204 14.6347L41.491 15.5553L38.8969 15.7483Z" fill="#A5D1B9"/>
<path d="M391.147 19.0891L392.081 17.9755L393 18.1537L392.452 19.0891L391.147 19.0891Z" fill="#A5D1B9"/>
<path d="M342.259 27.9832L343.178 26.8695L343.371 27.612L344.853 26.8695L343.919 27.9832L343.371 27.7901L342.259 27.9832Z" fill="#A5D1B9"/>
<path d="M335.959 28.7107L336.878 27.9831L337.249 28.3395L338.553 27.4189L337.812 28.7107L335.959 28.7107Z" fill="#A5D1B9"/>
<path d="M298.915 30.1956L298.915 29.8244L299.849 29.4532L300.768 30.0174L298.915 30.1956Z" fill="#A5D1B9"/>
<path d="M41.8615 15.7482L41.8615 15.0058C42.573 14.9018 43.077 15.4067 42.9733 16.1194L41.8615 15.7482Z" fill="#A5D1B9"/>
<path d="M37.0438 15.377L38.5261 15.377L38.5261 15.5552L37.9628 16.1194L37.5923 16.1194L37.0438 15.377Z" fill="#A5D1B9"/>
<path d="M334.848 32.0516L334.106 31.6804L334.106 30.5668C334.966 30.3886 335.574 30.0471 336.508 30.1956C336.656 30.2253 336.745 30.5519 336.878 30.5668C336.952 30.5668 337.531 29.9135 338.168 30.1956L337.427 30.745L337.975 31.2943C338.598 30.5965 339.813 31.0271 340.747 30.9231L339.636 30.5519C339.472 29.0077 340.688 30.1362 340.925 30.1807C341.429 30.2698 342.067 30.1213 342.585 30.1807L342.956 30.9231L343.327 29.8095L342.215 29.4383L344.616 30.1807C345.624 30.3589 346.039 29.9877 346.647 29.2602L346.276 28.8889L348.129 29.0671L348.129 30.1807L346.469 30.9231C345.684 30.2401 344.839 31.2943 344.616 31.2943C344.498 31.2943 344.364 30.9231 344.246 30.9231C344.142 30.9231 342.941 31.7398 342.763 32.0367L340.54 31.2943L339.25 32.0367L339.072 32.7791L338.894 32.0367L338.346 32.4079L335.574 31.2943L335.944 32.2149L335.396 33.1355L333.736 32.5861L334.848 32.0367L334.848 32.0516Z" fill="#A5D1B9"/>
<path d="M296.692 31.3091L298.545 31.3091L298.545 30.9379L296.692 30.9379L296.692 31.3091Z" fill="#A5D1B9"/>
<path d="M316.703 29.0819C317.163 28.8443 317.993 29.6758 317.815 29.8243C317.356 30.0619 316.526 29.2304 316.703 29.0819Z" fill="#A5D1B9"/>
<path d="M303.363 29.082L303.363 29.8244L302.058 30.1956L301.88 30.0174L303.363 29.082Z" fill="#A5D1B9"/>
<path d="M349.286 28.3394L350.027 28.3394L350.027 29.0818L349.286 28.3394Z" fill="#A5D1B9"/>
<path d="M350.397 27.6118L351.509 27.6118L351.509 27.2406L350.397 27.2406L350.397 27.6118Z" fill="#A5D1B9"/>
<path d="M371.15 21.6726L371.15 21.3014L373.003 20.9302L373.003 21.3014L371.15 21.6726Z" fill="#A5D1B9"/>
<path d="M375.597 20.9304L376.709 20.9304L376.709 20.5592L375.597 20.5592L375.597 20.9304Z" fill="#A5D1B9"/>
<path d="M385.218 19.8168L385.959 19.8168L385.41 20.9304L385.588 20.381L385.218 19.8168Z" fill="#A5D1B9"/>
<path d="M387.071 19.4604L387.812 19.4604L387.812 19.6386L387.071 20.188L387.071 19.4604Z" fill="#A5D1B9"/>
<path d="M299.657 31.6802L300.027 31.6802L300.027 30.9378L299.657 30.9378L299.657 31.6802Z" fill="#A5D1B9"/>
<path d="M317.801 30.938L318.542 30.938L318.542 30.5668L317.801 30.5668L317.801 30.938Z" fill="#A5D1B9"/>
<path d="M310.404 30.938L311.145 30.938L311.145 30.5668L310.404 30.5668L310.404 30.938Z" fill="#A5D1B9"/>
<path d="M309.662 30.1956L310.404 30.1956L310.404 29.8244L309.662 29.8244L309.662 30.1956Z" fill="#A5D1B9"/>
<path d="M345.595 27.6118L346.336 27.6118L346.336 27.2406L345.595 27.2406L345.595 27.6118Z" fill="#A5D1B9"/>
<path d="M364.85 23.5288L365.221 23.5288L365.221 22.7864L364.85 22.7864L364.85 23.5288Z" fill="#A5D1B9"/>
<path d="M388.182 19.8167L388.553 19.8167L388.553 19.0742L388.182 19.0742L388.182 19.8167Z" fill="#A5D1B9"/>
<path d="M40.7498 16.8618L41.1204 16.8618L41.1204 16.1194L40.7498 16.1194L40.7498 16.8618Z" fill="#A5D1B9"/>
<path d="M303.54 32.4226L303.362 32.2444L303.911 31.6802L304.104 31.8732L303.54 32.4226Z" fill="#A5D1B9"/>
<path d="M333.543 31.3091C333.306 31.3091 333.306 30.9379 333.543 30.9379C333.78 30.9379 333.78 31.3091 333.543 31.3091Z" fill="#A5D1B9"/>
<path d="M316.881 31.3091C316.644 31.3091 316.644 30.9379 316.881 30.9379C317.119 30.9379 317.119 31.3091 316.881 31.3091Z" fill="#A5D1B9"/>
<path d="M315.399 31.3091L315.029 30.5667C315.399 31.027 315.399 31.027 315.77 30.5667L315.399 31.3091Z" fill="#A5D1B9"/>
<path d="M307.617 31.3091C307.38 31.3091 307.38 30.9379 307.617 30.9379C307.854 30.9379 307.854 31.3091 307.617 31.3091Z" fill="#A5D1B9"/>
<path d="M322.811 30.938L322.248 30.3886L322.44 30.1956L322.989 30.7598L322.811 30.938Z" fill="#A5D1B9"/>
<path d="M309.47 30.938C309.233 30.938 309.233 30.5668 309.47 30.5668C309.707 30.5668 309.707 30.938 309.47 30.938Z" fill="#A5D1B9"/>
<path d="M282.061 30.5667C281.824 30.5667 281.824 30.1954 282.061 30.1954C282.298 30.1954 282.298 30.5667 282.061 30.5667Z" fill="#A5D1B9"/>
<path d="M315.77 30.1956C315.532 30.1956 315.532 29.8244 315.77 29.8244C316.007 29.8244 316.007 30.1956 315.77 30.1956Z" fill="#A5D1B9"/>
<path d="M335.766 29.8242C335.529 29.8242 335.529 29.453 335.766 29.453C336.004 29.453 336.004 29.8242 335.766 29.8242Z" fill="#A5D1B9"/>
<path d="M318.734 29.8242C318.497 29.8242 318.497 29.453 318.734 29.453C318.972 29.453 318.972 29.8242 318.734 29.8242Z" fill="#A5D1B9"/>
<path d="M322.811 29.4531C322.574 29.4531 322.574 29.0819 322.811 29.0819C323.048 29.0819 323.048 29.4531 322.811 29.4531Z" fill="#A5D1B9"/>
<path d="M320.217 29.4531C319.979 29.4531 319.979 29.0819 320.217 29.0819C320.454 29.0819 320.454 29.4531 320.217 29.4531Z" fill="#A5D1B9"/>
<path d="M311.323 29.4531C311.085 29.4531 311.085 29.0819 311.323 29.0819C311.56 29.0819 311.56 29.4531 311.323 29.4531Z" fill="#A5D1B9"/>
<path d="M334.284 28.7107C334.047 28.7107 334.047 28.3395 334.284 28.3395C334.521 28.3395 334.521 28.7107 334.284 28.7107Z" fill="#A5D1B9"/>
<path d="M330.593 28.7107C330.356 28.7107 330.356 28.3395 330.593 28.3395C330.83 28.3395 330.83 28.7107 330.593 28.7107Z" fill="#A5D1B9"/>
<path d="M335.025 28.3396C334.788 28.3396 334.788 27.9684 335.025 27.9684C335.263 27.9684 335.263 28.3396 335.025 28.3396Z" fill="#A5D1B9"/>
<path d="M340.955 27.9832C340.718 27.9832 340.718 27.612 340.955 27.612C341.192 27.612 341.192 27.9832 340.955 27.9832Z" fill="#A5D1B9"/>
<path d="M346.884 27.6118C346.647 27.6118 346.647 27.2406 346.884 27.2406C347.121 27.2406 347.121 27.6118 346.884 27.6118Z" fill="#A5D1B9"/>
<path d="M352.443 26.1272C352.206 26.1272 352.206 25.756 352.443 25.756C352.68 25.756 352.68 26.1272 352.443 26.1272Z" fill="#A5D1B9"/>
<path d="M367.815 24.2711L369.297 24.6423L369.475 23.8999L369.846 24.2711C370.824 23.3951 371.862 24.1078 372.81 23.1575L373.729 23.5287L373.729 22.7863C374.871 22.8012 375.82 22.4894 376.501 23.5287C376.828 23.7069 376.916 23.3951 377.05 23.3505C377.85 23.0239 377.791 23.6327 378.532 23.5287L377.243 24.2711L376.694 23.8999L376.694 25.0135L376.146 24.6423C375.745 25.3253 375.434 24.4048 374.663 24.6423C373.3 25.0581 372.573 25.2956 371.328 25.0135C370.498 24.8353 368.586 25.0729 369.846 26.1271L371.135 25.5778L370.765 26.4983C369.786 26.4389 368.764 26.825 368.171 25.949L367.8 24.286L367.815 24.2711ZM368.734 25.3847C368.971 25.3847 368.971 25.0135 368.734 25.0135C368.497 25.0135 368.497 25.3847 368.734 25.3847ZM373.181 24.6423C373.418 24.6423 373.418 24.2711 373.181 24.2711C372.944 24.2711 372.944 24.6423 373.181 24.6423ZM374.663 23.5287C374.9 23.5287 374.9 23.1575 374.663 23.1575C374.426 23.1575 374.426 23.5287 374.663 23.5287Z" fill="#A5D1B9"/>
<path d="M358.743 24.271C358.506 24.271 358.506 23.8998 358.743 23.8998C358.98 23.8998 358.98 24.271 358.743 24.271Z" fill="#A5D1B9"/>
<path d="M366.51 23.1575L366.333 22.9793L366.881 22.4151L367.074 22.6081L366.51 23.1575Z" fill="#A5D1B9"/>
<path d="M369.475 22.415L368.927 21.8657L369.105 21.6726L369.668 22.2369L369.475 22.415Z" fill="#A5D1B9"/>
<path d="M367.993 22.0439C367.756 22.0439 367.756 21.6727 367.993 21.6727C368.23 21.6727 368.23 22.0439 367.993 22.0439Z" fill="#A5D1B9"/>
<path d="M373.922 20.9304C373.685 20.9304 373.685 20.5592 373.922 20.5592C374.159 20.5592 374.159 20.9304 373.922 20.9304Z" fill="#A5D1B9"/>
<path d="M379.11 19.8167C378.873 19.8167 378.873 19.4454 379.11 19.4454C379.348 19.4454 379.348 19.8167 379.11 19.8167Z" fill="#A5D1B9"/>
<path d="M382.816 19.0891C382.579 19.0891 382.579 18.7179 382.816 18.7179C383.053 18.7179 383.053 19.0891 382.816 19.0891Z" fill="#A5D1B9"/>
<path d="M384.669 18.718C384.432 18.718 384.432 18.3468 384.669 18.3468C384.906 18.3468 384.906 18.718 384.669 18.718Z" fill="#A5D1B9"/>
<path d="M30.1805 17.9756C29.9433 17.9756 29.9433 17.6044 30.1805 17.6044C30.4177 17.6044 30.4177 17.9756 30.1805 17.9756Z" fill="#A5D1B9"/>
<path d="M391.71 16.8618C391.473 16.8618 391.473 16.4906 391.71 16.4906C391.947 16.4906 391.947 16.8618 391.71 16.8618Z" fill="#A5D1B9"/>
<path d="M33.516 15.3772C33.2788 15.3772 33.2788 15.006 33.516 15.006C33.7531 15.006 33.7531 15.3772 33.516 15.3772Z" fill="#A5D1B9"/>
</g>
<defs>
<clipPath id="clip0_2021_1767">
<rect width="393" height="58" fill="white" transform="translate(393 58) rotate(-180)"/>
</clipPath>
</defs>
</svg>
