<svg width="377" height="57" viewBox="0 0 377 57" fill="none" xmlns="http://www.w3.org/2000/svg">
<g clip-path="url(#clip0_2021_1553)">
<path d="M374.457 8.26256L374.874 7.41788L375.009 7.981C375.515 7.76702 375.942 8.26256 375.987 8.26256C376.044 8.26256 376.482 7.76702 376.966 7.981C377.101 9.10725 376.336 8.26256 376.269 8.26256C376.134 8.26256 376.055 8.81442 375.706 8.26256L374.446 8.26256L374.457 8.26256Z" fill="#A5D1B9"/>
<path d="M375.301 7.71082L375.864 7.71082L375.864 7.42925L375.301 7.42925L375.301 7.71082Z" fill="#A5D1B9"/>
<path d="M0.562481 22.8812L1.125 22.8812L1.125 22.5997L0.562481 22.5997L0.562481 22.8812Z" fill="#A5D1B9"/>
<path d="M179.072 0.9646L179.354 0.9646L179.354 0.401478L179.072 0.401478L179.072 0.9646Z" fill="#A5D1B9"/>
<path d="M179.635 0.682983L179.916 0.682983L179.916 0.119861L179.635 0.119861L179.635 0.682983Z" fill="#A5D1B9"/>
<path d="M1.25999 22.3181L0.843731 21.9014L0.97873 21.755L1.40625 22.183L1.25999 22.3181Z" fill="#A5D1B9"/>
<path d="M0.135015 22.5997C-0.0449909 22.5997 -0.0449909 22.3182 0.135015 22.3182C0.315021 22.3182 0.315021 22.5997 0.135015 22.5997Z" fill="#A5D1B9"/>
<path d="M267.489 26.8231C267.309 26.8231 267.309 26.5416 267.489 26.5416C267.669 26.5416 267.669 26.8231 267.489 26.8231Z" fill="#A5D1B9"/>
<path d="M122.291 29.0643L122.573 29.0643L122.573 28.5012L122.291 28.5012L122.291 29.0643Z" fill="#A5D1B9"/>
<path d="M105.416 29.9091C105.326 29.8978 105.225 29.9316 105.135 29.9091C105.135 29.7739 105.135 29.6838 105.27 29.6275L105.405 29.9091L105.416 29.9091Z" fill="#A5D1B9"/>
<path d="M122.291 28.5012L121.448 27.938C121.549 28.321 121.898 28.2759 121.583 28.7827C121.2 29.4134 120.593 28.5687 120.041 28.7827L120.604 29.6274L119.198 29.909L119.198 30.7537L117.791 30.4721L117.791 31.3168L116.666 31.0352L116.531 31.5983L116.25 31.3168L116.385 31.8799L115.26 31.5983L115.822 32.2966C115.519 32.7246 115.215 32.7809 114.697 32.7133L114.697 33.2764L114 32.7133C113.82 33.0174 113.201 33.1976 113.021 32.8485L114 32.1502L116.25 30.7424L115.687 29.8977L115.687 30.7424C115.339 30.7987 114.855 30.6636 114.562 30.7424C114.472 30.7649 113.55 31.5308 113.156 31.5871L112.875 31.3055L112.74 31.8686L111.896 31.3055L111.761 31.8686C111.334 31.2492 111.176 32.3079 110.501 32.1502L109.939 31.5871L110.074 32.1502L109.23 32.4318L108.813 32.1502L108.813 32.7133L108.397 32.4318L107.553 32.9949L106.856 32.7133L106.44 33.558C106.091 33.0061 106.012 33.558 105.877 33.558C105.787 33.558 105.708 33.299 105.596 33.2764C105.303 33.2201 104.932 33.3102 104.617 33.2764L104.617 33.8396L103.773 33.558L103.773 34.1211L103.076 33.558L102.232 34.4027L101.67 34.1211L101.107 34.6842L101.107 32.7133L100.128 33.4116L100.691 33.2764C100.724 33.6932 100.758 34.5491 100.274 34.6842C100.004 34.7631 99.6669 34.5378 99.4307 34.9658L99.2957 33.558L98.7332 33.558C98.8232 34.1887 98.1369 34.4928 97.7544 34.9658L96.3481 35.5289C95.2568 35.4163 96.6181 35.2136 96.7644 34.8307L97.0456 33.8508L95.6393 33.5693L96.4831 34.6955C96.1568 34.887 95.5381 34.3802 95.3581 34.5604C95.0993 34.8194 95.0093 34.4252 94.7955 34.2788L95.3581 34.1436L95.0768 33.0174L95.9206 33.0174L95.6393 32.4543L96.8994 31.8912C97.3944 32.4318 98.5757 31.0127 99.1494 31.6096C99.5657 31.0803 100.061 30.7424 100.556 31.328L101.118 30.7649C101.343 30.9339 102.592 30.8775 103.087 30.7649C103.346 30.7086 103.92 30.0441 104.347 30.2018L104.347 29.6387C104.775 29.5148 104.876 29.8527 105.191 29.9202C105.191 30.0554 105.191 30.1455 105.326 30.2018C105.506 30.2018 105.45 29.9315 105.461 29.9202C106.327 29.2783 107.351 29.4923 108.127 28.794L109.387 29.0756L109.387 28.5124C110.737 27.893 112.222 28.0056 113.46 27.1046L113.876 27.3862L113.876 26.8231C113.977 26.7217 115.552 26.8906 115.98 26.8231C116.093 26.8005 116.171 26.5415 116.261 26.5415C116.318 26.5415 116.711 26.8569 117.24 26.5415L117.24 25.9784C118.838 25.9784 120.311 24.8521 121.875 25.4153L122.438 24.8521L123.135 25.9784L123.698 25.9784L123.698 26.2599L123.135 26.2599C122.921 27.1609 123.597 27.6677 123.698 28.5124L123.281 27.9493L122.584 28.5124C122.584 28.1408 122.303 28.1408 122.303 28.5124L122.291 28.5012ZM99.937 34.4027C100.117 34.4027 100.117 34.1211 99.937 34.1211C99.7569 34.1211 99.7569 34.4027 99.937 34.4027ZM96.9894 33.558L98.1144 33.8396L98.1144 32.9949C97.7206 33.2201 97.4731 33.3665 96.9894 33.2764L96.9894 33.558ZM101.906 33.558C102.086 33.558 102.086 33.2764 101.906 33.2764C101.726 33.2764 101.726 33.558 101.906 33.558ZM104.01 32.7246L104.01 33.2877L104.291 33.2877L104.291 32.7246L104.01 32.7246ZM102.603 32.443L102.603 33.2877L102.885 33.2877L102.885 32.443L102.603 32.443ZM101.478 33.0061L102.322 33.0061L102.322 32.7246L101.478 32.7246L101.478 33.0061ZM106.26 32.443L106.822 32.443L106.406 31.8799L106.271 31.8799L106.271 32.443L106.26 32.443ZM110.625 31.3168C110.805 31.3168 110.805 31.0352 110.625 31.0352C110.445 31.0352 110.445 31.3168 110.625 31.3168ZM108.656 31.3168C108.836 31.3168 108.836 31.0352 108.656 31.0352C108.476 31.0352 108.476 31.3168 108.656 31.3168ZM108.093 31.0352C108.273 31.0352 108.273 30.7537 108.093 30.7537C107.913 30.7537 107.913 31.0352 108.093 31.0352ZM112.447 30.1905L112.447 30.7537L112.729 30.7537L112.729 30.1905L112.447 30.1905ZM109.781 30.7537C109.961 30.7537 109.961 30.4721 109.781 30.4721C109.601 30.4721 109.601 30.7537 109.781 30.7537ZM116.948 29.909L116.948 30.4721L117.51 30.0554L116.813 29.6387L116.396 30.0554L116.959 29.9202L116.948 29.909ZM117.926 30.1905C118.106 30.1905 118.106 29.909 117.926 29.909C117.746 29.909 117.746 30.1905 117.926 30.1905ZM112.864 29.909C113.044 29.909 113.044 29.6274 112.864 29.6274C112.684 29.6274 112.684 29.909 112.864 29.909ZM106.968 29.909C107.148 29.909 107.148 29.6274 106.968 29.6274C106.788 29.6274 106.788 29.909 106.968 29.909ZM116.239 28.5012C116.419 28.5012 116.419 28.2196 116.239 28.2196C116.059 28.2196 116.059 28.5012 116.239 28.5012ZM117.791 28.2196L118.635 28.2196L118.635 27.6565L118.219 27.6565L117.803 28.2196L117.791 28.2196ZM120.041 27.938L120.604 27.938L120.604 27.5213L120.188 27.1046L120.053 27.1046L120.053 27.9493L120.041 27.938ZM119.051 27.6565C119.231 27.6565 119.231 27.3749 119.051 27.3749C118.871 27.3749 118.871 27.6565 119.051 27.6565Z" fill="#A5D1B9"/>
<path d="M91.9268 33.8396L90.6668 34.1211L90.3855 34.4027L89.5418 33.8396L88.563 34.1211C88.518 33.6932 88.878 33.9297 89.2605 33.558C89.3955 33.4341 90.543 33.4341 89.2605 33.2765C88.9342 33.7495 88.4505 33.4229 88.0004 33.6932C86.8192 34.4252 87.0554 33.8734 86.4591 33.8283C86.4029 33.8283 85.9641 34.3239 85.4804 34.1099L86.0429 33.8283L86.0429 32.9836L86.7404 33.2652L87.3029 32.7021L87.8654 33.2652C88.5967 32.7359 89.7893 32.2741 90.678 32.4205C91.2068 32.5106 92.9169 32.5444 93.7719 32.4205C93.8619 32.4093 94.2669 31.9137 94.7507 32.139C94.2669 32.657 94.8519 32.7584 94.7507 33.1188C94.3231 33.5806 93.5694 33.9635 92.9281 33.8171C92.8831 33.8171 92.4218 33.6143 92.2306 33.5355C92.1856 33.513 92.0393 33.04 91.3868 33.2539L91.9493 33.8171L91.9268 33.8396Z" fill="#A5D1B9"/>
<path d="M92.208 33.558C92.253 33.8846 91.9718 33.8058 91.9268 33.8396L92.208 33.558Z" fill="#A5D1B9"/>
<path d="M27.8334 6.02135C27.7659 5.52581 28.4746 5.75105 28.8121 5.73979C29.5097 5.72853 30.2184 5.73979 30.9159 5.73979C31.0509 6.86604 30.2859 6.02135 30.2184 6.02135C30.0722 6.02135 29.3409 6.12271 28.9584 6.1565L27.8334 6.02135Z" fill="#A5D1B9"/>
<path d="M146.176 8.54419L147.864 7.71077L147.301 8.12748L147.301 8.40904L146.176 8.54419Z" fill="#A5D1B9"/>
<path d="M162.624 6.58447L163.468 6.02135L165.009 5.60464C164.672 5.91999 164.537 6.23534 164.03 6.30291C163.547 6.37049 162.973 6.10019 162.624 6.58447Z" fill="#A5D1B9"/>
<path d="M90.5205 35.2474L90.9368 34.4027C91.3418 34.8194 91.3643 35.0897 91.9156 34.6843C91.9381 35.146 92.0506 35.315 91.4993 35.2474C90.9931 35.1798 91.0381 34.8532 90.5205 35.2474Z" fill="#A5D1B9"/>
<path d="M93.8958 34.6842L93.052 34.9658L93.052 34.4027C93.682 34.5153 93.952 34.2901 94.312 33.8396L94.177 35.5289L93.8958 34.6842Z" fill="#A5D1B9"/>
<path d="M169.791 5.17667C170.004 4.51218 170.679 4.3883 171.051 4.89511C171.478 4.28693 171.906 4.26441 172.592 4.33198L171.332 5.17667C171.084 5.31182 171.017 5.0753 170.916 5.04151C170.308 4.79374 170.353 5.2555 169.791 5.17667Z" fill="#A5D1B9"/>
<path d="M24.4584 6.02136L24.4584 5.7398C25.156 5.88621 25.5722 5.51455 26.146 5.45824L26.146 6.02136L24.4584 6.02136Z" fill="#A5D1B9"/>
<path d="M126.974 10.8437L127.075 10.2327L125.999 10.0533L125.897 10.6643L126.974 10.8437Z" fill="#A5D1B9"/>
<path d="M154.614 39.4708L154.76 38.9077L153.489 38.063L155.177 39.0429L154.614 39.4708Z" fill="#A5D1B9"/>
<path d="M152.082 7.42919L153.208 7.14763C153.106 7.71075 152.51 7.63191 152.229 7.99231L152.094 7.42919L152.082 7.42919Z" fill="#A5D1B9"/>
<path d="M19.1145 5.45822L19.5307 5.73978L19.812 5.45822L20.2395 6.02135L18.8332 6.15649L19.1145 5.45822Z" fill="#A5D1B9"/>
<path d="M123.686 10.5151L124.53 10.5151L124.53 11.0782L124.114 11.0782L123.686 10.5151Z" fill="#A5D1B9"/>
<path d="M136.062 8.82567L136.906 8.82567L136.906 9.38879L136.478 9.38879L136.062 8.82567Z" fill="#A5D1B9"/>
<path d="M143.093 8.26256L144.219 8.26256L144.219 8.54412C143.881 8.48781 143.712 8.54412 143.521 8.82568L143.105 8.26256L143.093 8.26256Z" fill="#A5D1B9"/>
<path d="M200.155 38.3445L199.458 38.3445C199.12 38.5923 198.456 39.2005 198.051 38.6261L197.635 39.1892L198.198 38.4909L198.614 38.3558L200.155 38.3558L200.155 38.3445Z" fill="#A5D1B9"/>
<path d="M144.781 7.99233L145.625 7.99233L145.625 8.12748L145.197 8.54419L144.781 7.99233Z" fill="#A5D1B9"/>
<path d="M175.134 2.6427L175.562 2.07958L175.978 2.50755L175.978 2.6427L175.134 2.6427Z" fill="#A5D1B9"/>
<path d="M22.7709 5.45818C23.1196 5.27798 23.7496 5.90868 23.6146 6.0213C23.2659 6.2015 22.6359 5.57081 22.7709 5.45818Z" fill="#A5D1B9"/>
<path d="M92.4781 34.628C92.2855 34.628 92.1294 34.7843 92.1294 34.9772C92.1294 35.17 92.2855 35.3263 92.4781 35.3263C92.6708 35.3263 92.8269 35.17 92.8269 34.9772C92.8269 34.7843 92.6708 34.628 92.4781 34.628Z" fill="#A5D1B9"/>
<path d="M124.812 10.7966L125.239 10.2335L125.656 10.6615L125.656 10.7966L124.812 10.7966Z" fill="#A5D1B9"/>
<path d="M159.676 6.86609L160.52 6.43811L161.645 6.15655L159.676 6.86609Z" fill="#A5D1B9"/>
<path d="M111.041 34.4027C110.985 34.4365 110.85 34.3802 110.76 34.4027C111.12 33.8959 111.266 33.8847 111.739 33.558L111.874 33.6932C111.705 34.0761 111.278 34.0423 111.176 34.1099C110.974 34.2338 111.053 34.3802 111.041 34.3915L111.041 34.4027Z" fill="#A5D1B9"/>
<path d="M111.041 34.4027L111.323 34.5378C111.323 34.718 111.053 34.6617 111.041 34.673L111.041 34.3914L111.041 34.4027Z" fill="#A5D1B9"/>
<path d="M111.041 34.6842C111.041 34.6842 110.816 35.3037 110.479 34.9658C110.141 34.6279 110.737 34.4365 110.76 34.4027L111.041 34.6842Z" fill="#A5D1B9"/>
<path d="M184.135 40.8673L184.697 40.7322L185.823 40.5857L185.114 40.8673L184.135 40.8673Z" fill="#A5D1B9"/>
<path d="M197.062 39.1892L197.343 39.1892L197.343 38.3445L197.062 38.3445L197.062 39.1892Z" fill="#A5D1B9"/>
<path d="M174.291 3.20581L174.853 2.64269L174.853 3.20581L174.291 3.20581Z" fill="#A5D1B9"/>
<path d="M127.343 38.6261L127.343 38.063L127.489 38.063L127.906 38.6261L127.343 38.6261Z" fill="#A5D1B9"/>
<path d="M137.468 23.1628L137.75 23.1628L137.75 22.3182L137.468 22.3182L137.468 23.1628Z" fill="#A5D1B9"/>
<path d="M133.812 9.10729L134.375 9.10729L134.375 9.2537L133.812 9.67041L133.812 9.10729Z" fill="#A5D1B9"/>
<path d="M132.406 24.2891L132.406 23.7259L132.552 23.7259L132.968 24.2891L132.406 24.2891Z" fill="#A5D1B9"/>
<path d="M135.499 9.67041L135.499 9.10729L135.635 9.10729L136.062 9.67041L135.499 9.67041Z" fill="#A5D1B9"/>
<path d="M165.583 40.8674L165.583 41.4305L164.739 40.7323L164.874 40.5859L165.583 40.8674Z" fill="#A5D1B9"/>
<path d="M132.687 37.2184L133.25 37.2184L133.25 36.9368L132.687 36.9368L132.687 37.2184Z" fill="#A5D1B9"/>
<path d="M138.593 9.38879L138.875 9.38879L138.875 8.82567L138.593 8.82567L138.593 9.38879Z" fill="#A5D1B9"/>
<path d="M137.468 9.38879L137.75 9.38879L137.75 8.82567L137.468 8.82567L137.468 9.38879Z" fill="#A5D1B9"/>
<path d="M155.739 7.14764L155.739 6.86608L156.583 7.28279L156.448 7.4292L155.739 7.14764Z" fill="#A5D1B9"/>
<path d="M10.3955 6.86609L10.958 6.86609L10.958 6.58453L10.3955 6.58453L10.3955 6.86609Z" fill="#A5D1B9"/>
<path d="M21.0832 6.02136L21.6458 6.02136L21.6458 5.7398L21.0832 5.7398L21.0832 6.02136Z" fill="#A5D1B9"/>
<path d="M15.1767 6.02136L15.7393 6.02136L15.7393 5.7398L15.1767 5.7398L15.1767 6.02136Z" fill="#A5D1B9"/>
<path d="M218.707 33.5581L218.989 33.5581L218.989 32.995L218.707 32.995L218.707 33.5581Z" fill="#A5D1B9"/>
<path d="M85.1765 33.558L85.739 33.558L85.739 33.2764L85.1765 33.2764L85.1765 33.558Z" fill="#A5D1B9"/>
<path d="M169.228 41.4305L169.791 41.4305L169.791 41.149L169.228 41.149L169.228 41.4305Z" fill="#A5D1B9"/>
<path d="M231.78 31.0353C231.6 31.0353 231.6 30.7537 231.78 30.7537C231.96 30.7537 231.96 31.0353 231.78 31.0353Z" fill="#A5D1B9"/>
<path d="M95.1558 32.4431C94.9758 32.4431 94.9758 32.1616 95.1558 32.1616C95.3358 32.1616 95.3358 32.4431 95.1558 32.4431Z" fill="#A5D1B9"/>
<path d="M230.374 30.7537C230.194 30.7537 230.194 30.4721 230.374 30.4721C230.554 30.4721 230.554 30.7537 230.374 30.7537Z" fill="#A5D1B9"/>
<path d="M225.041 32.4431C224.861 32.4431 224.861 32.1616 225.041 32.1616C225.221 32.1616 225.221 32.4431 225.041 32.4431Z" fill="#A5D1B9"/>
<path d="M177.25 2.6427C177.07 2.6427 177.07 2.36114 177.25 2.36114C177.43 2.36114 177.43 2.6427 177.25 2.6427Z" fill="#A5D1B9"/>
<path d="M220.541 33.0062C220.361 33.0062 220.361 32.7247 220.541 32.7247C220.721 32.7247 220.721 33.0062 220.541 33.0062Z" fill="#A5D1B9"/>
<path d="M174.437 3.76892C174.257 3.76892 174.257 3.48736 174.437 3.48736C174.617 3.48736 174.617 3.76892 174.437 3.76892Z" fill="#A5D1B9"/>
<path d="M112.864 33.558C112.684 33.558 112.684 33.2764 112.864 33.2764C113.044 33.2764 113.044 33.558 112.864 33.558Z" fill="#A5D1B9"/>
<path d="M16.1668 5.17664C15.9867 5.17664 15.9867 4.89507 16.1668 4.89507C16.3468 4.89507 16.3468 5.17664 16.1668 5.17664Z" fill="#A5D1B9"/>
<path d="M29.0935 5.45825L28.9585 5.31184L29.3747 4.89513L29.521 5.03028L29.0935 5.45825Z" fill="#A5D1B9"/>
<path d="M236.562 30.1906C236.382 30.1906 236.382 29.909 236.562 29.909C236.742 29.909 236.742 30.1906 236.562 30.1906Z" fill="#A5D1B9"/>
<path d="M16.7293 5.45825C16.5492 5.45825 16.5492 5.17669 16.7293 5.17669C16.9093 5.17669 16.9093 5.45825 16.7293 5.45825Z" fill="#A5D1B9"/>
<path d="M215.478 34.1212C215.298 34.1212 215.298 33.8397 215.478 33.8397C215.658 33.8397 215.658 34.1212 215.478 34.1212Z" fill="#A5D1B9"/>
<path d="M235.999 29.9091C235.819 29.9091 235.819 29.6275 235.999 29.6275C236.179 29.6275 236.179 29.9091 235.999 29.9091Z" fill="#A5D1B9"/>
<path d="M215.76 34.6843C215.58 34.6843 215.58 34.4028 215.76 34.4028C215.94 34.4028 215.94 34.6843 215.76 34.6843Z" fill="#A5D1B9"/>
<path d="M11.948 6.58447C11.768 6.58447 11.768 6.30291 11.948 6.30291C12.128 6.30291 12.128 6.58447 11.948 6.58447Z" fill="#A5D1B9"/>
<path d="M88.4055 34.9658C88.2255 34.9658 88.2255 34.6843 88.4055 34.6843C88.5855 34.6843 88.5855 34.9658 88.4055 34.9658Z" fill="#A5D1B9"/>
<path d="M241.062 29.6274C240.882 29.6274 240.882 29.3459 241.062 29.3459C241.242 29.3459 241.242 29.6274 241.062 29.6274Z" fill="#A5D1B9"/>
<path d="M239.656 29.6274C239.476 29.6274 239.476 29.3459 239.656 29.3459C239.836 29.3459 239.836 29.6274 239.656 29.6274Z" fill="#A5D1B9"/>
<path d="M109.781 34.9658C109.601 34.9658 109.601 34.6843 109.781 34.6843C109.961 34.6843 109.961 34.9658 109.781 34.9658Z" fill="#A5D1B9"/>
<path d="M213.228 34.9658C213.048 34.9658 213.048 34.6843 213.228 34.6843C213.408 34.6843 213.408 34.9658 213.228 34.9658Z" fill="#A5D1B9"/>
<path d="M213.791 34.9658C213.611 34.9658 213.611 34.6843 213.791 34.6843C213.971 34.6843 213.971 34.9658 213.791 34.9658Z" fill="#A5D1B9"/>
<path d="M12.2293 5.45825C12.0492 5.45825 12.0492 5.17669 12.2293 5.17669C12.4093 5.17669 12.4093 5.45825 12.2293 5.45825Z" fill="#A5D1B9"/>
<path d="M94.5933 35.5289C94.4133 35.5289 94.4133 35.2474 94.5933 35.2474C94.7733 35.2474 94.7733 35.5289 94.5933 35.5289Z" fill="#A5D1B9"/>
<path d="M95.437 35.5289C95.257 35.5289 95.257 35.2474 95.437 35.2474C95.617 35.2474 95.617 35.5289 95.437 35.5289Z" fill="#A5D1B9"/>
<path d="M87.8543 35.8105C87.6742 35.8105 87.6742 35.529 87.8543 35.529C88.0343 35.529 88.0343 35.8105 87.8543 35.8105Z" fill="#A5D1B9"/>
<path d="M88.968 36.092C88.788 36.092 88.788 35.8105 88.968 35.8105C89.148 35.8105 89.148 36.092 88.968 36.092Z" fill="#A5D1B9"/>
<path d="M148.854 8.26257C148.674 8.26257 148.674 7.98101 148.854 7.98101C149.034 7.98101 149.034 8.26257 148.854 8.26257Z" fill="#A5D1B9"/>
<path d="M246.125 28.7827C245.945 28.7827 245.945 28.5012 246.125 28.5012C246.305 28.5012 246.305 28.7827 246.125 28.7827Z" fill="#A5D1B9"/>
<path d="M90.9368 36.092C90.7568 36.092 90.7568 35.8105 90.9368 35.8105C91.1168 35.8105 91.1168 36.092 90.9368 36.092Z" fill="#A5D1B9"/>
<path d="M91.7805 36.092C91.6005 36.092 91.6005 35.8105 91.7805 35.8105C91.9605 35.8105 91.9605 36.092 91.7805 36.092Z" fill="#A5D1B9"/>
<path d="M135.353 36.3737C135.173 36.3737 135.173 36.0921 135.353 36.0921C135.533 36.0921 135.533 36.3737 135.353 36.3737Z" fill="#A5D1B9"/>
<path d="M127.489 9.67041C127.309 9.67041 127.309 9.38885 127.489 9.38885C127.669 9.38885 127.669 9.67041 127.489 9.67041Z" fill="#A5D1B9"/>
<path d="M128.896 9.67041C128.716 9.67041 128.716 9.38885 128.896 9.38885C129.076 9.38885 129.076 9.67041 128.896 9.67041Z" fill="#A5D1B9"/>
<path d="M134.521 36.9368C134.341 36.9368 134.341 36.6552 134.521 36.6552C134.701 36.6552 134.701 36.9368 134.521 36.9368Z" fill="#A5D1B9"/>
<path d="M144.354 36.9368C144.174 36.9368 144.174 36.6552 144.354 36.6552C144.534 36.6552 144.534 36.9368 144.354 36.9368Z" fill="#A5D1B9"/>
<path d="M207.322 36.9368C207.142 36.9368 207.142 36.6552 207.322 36.6552C207.502 36.6552 207.502 36.9368 207.322 36.9368Z" fill="#A5D1B9"/>
<path d="M252.863 28.2196C252.683 28.2196 252.683 27.938 252.863 27.938C253.043 27.938 253.043 28.2196 252.863 28.2196Z" fill="#A5D1B9"/>
<path d="M146.604 37.4999L146.457 37.3535L146.885 36.9368L147.02 37.0719L146.604 37.4999Z" fill="#A5D1B9"/>
<path d="M114.27 11.9229C114.09 11.9229 114.09 11.6413 114.27 11.6413C114.45 11.6413 114.45 11.9229 114.27 11.9229Z" fill="#A5D1B9"/>
<path d="M148.573 37.7815C148.393 37.7815 148.393 37.4999 148.573 37.4999C148.753 37.4999 148.753 37.7815 148.573 37.7815Z" fill="#A5D1B9"/>
<path d="M97.9683 28.2196C97.7883 28.2196 97.7883 27.938 97.9683 27.938C98.1483 27.938 98.1483 28.2196 97.9683 28.2196Z" fill="#A5D1B9"/>
<path d="M99.3745 27.9381C99.1945 27.9381 99.1945 27.6565 99.3745 27.6565C99.5545 27.6565 99.5545 27.9381 99.3745 27.9381Z" fill="#A5D1B9"/>
<path d="M254.832 27.6565C254.652 27.6565 254.652 27.3749 254.832 27.3749C255.012 27.3749 255.012 27.6565 254.832 27.6565Z" fill="#A5D1B9"/>
<path d="M155.885 39.4708L155.458 39.0429L155.604 38.9077L156.02 39.3244L155.885 39.4708Z" fill="#A5D1B9"/>
<path d="M346.197 13.6123C346.017 13.6123 346.017 13.3307 346.197 13.3307C346.377 13.3307 346.377 13.6123 346.197 13.6123Z" fill="#A5D1B9"/>
<path d="M125.239 39.4708C125.059 39.4708 125.059 39.1893 125.239 39.1893C125.419 39.1893 125.419 39.4708 125.239 39.4708Z" fill="#A5D1B9"/>
<path d="M341.426 14.4457C341.246 14.4457 341.246 14.1641 341.426 14.1641C341.606 14.1641 341.606 14.4457 341.426 14.4457Z" fill="#A5D1B9"/>
<path d="M124.114 40.0227L123.968 39.8876L124.395 39.4708L124.53 39.606L124.114 40.0227Z" fill="#A5D1B9"/>
<path d="M340.583 14.7273C340.403 14.7273 340.403 14.4457 340.583 14.4457C340.763 14.4457 340.763 14.7273 340.583 14.7273Z" fill="#A5D1B9"/>
<path d="M123.552 40.0227C123.372 40.0227 123.372 39.7411 123.552 39.7411C123.732 39.7411 123.732 40.0227 123.552 40.0227Z" fill="#A5D1B9"/>
<path d="M338.051 15.0088C337.871 15.0088 337.871 14.7272 338.051 14.7272C338.231 14.7272 338.231 15.0088 338.051 15.0088Z" fill="#A5D1B9"/>
<path d="M189.614 40.3042C189.434 40.3042 189.434 40.0226 189.614 40.0226C189.794 40.0226 189.794 40.3042 189.614 40.3042Z" fill="#A5D1B9"/>
<path d="M190.176 40.3042C189.996 40.3042 189.996 40.0226 190.176 40.0226C190.356 40.0226 190.356 40.3042 190.176 40.3042Z" fill="#A5D1B9"/>
<path d="M163.468 40.8673C163.288 40.8673 163.288 40.5857 163.468 40.5857C163.648 40.5857 163.648 40.8673 163.468 40.8673Z" fill="#A5D1B9"/>
<path d="M105.844 27.375C105.664 27.375 105.664 27.0934 105.844 27.0934C106.024 27.0934 106.024 27.375 105.844 27.375Z" fill="#A5D1B9"/>
<path d="M63.1145 27.375C62.9345 27.375 62.9345 27.0934 63.1145 27.0934C63.2945 27.0934 63.2945 27.375 63.1145 27.375Z" fill="#A5D1B9"/>
<path d="M106.969 26.8231C106.789 26.8231 106.789 26.5416 106.969 26.5416C107.149 26.5416 107.149 26.8231 106.969 26.8231Z" fill="#A5D1B9"/>
<path d="M119.333 24.2891C119.153 24.2891 119.153 24.0075 119.333 24.0075C119.513 24.0075 119.513 24.2891 119.333 24.2891Z" fill="#A5D1B9"/>
<path d="M50.458 25.4153C50.278 25.4153 50.278 25.1337 50.458 25.1337C50.638 25.1337 50.638 25.4153 50.458 25.4153Z" fill="#A5D1B9"/>
<path d="M178.937 41.4305C178.757 41.4305 178.757 41.149 178.937 41.149C179.117 41.149 179.117 41.4305 178.937 41.4305Z" fill="#A5D1B9"/>
<path d="M170.218 41.712C170.038 41.712 170.038 41.4305 170.218 41.4305C170.398 41.4305 170.398 41.712 170.218 41.712Z" fill="#A5D1B9"/>
<path d="M7.86402 23.4444C7.86402 23.7034 7.59398 23.8273 7.44772 24.0075C7.00896 24.1201 6.90771 23.8836 7.03147 23.4444C7.30148 23.4669 7.60524 23.4106 7.87524 23.4444L7.86402 23.4444Z" fill="#A5D1B9"/>
<path d="M120.323 20.64L120.041 20.64C120.041 20.2684 120.323 20.2684 120.323 20.64Z" fill="#A5D1B9"/>
<path d="M7.86398 23.4444C7.86398 23.2192 7.71772 23.1629 7.58272 23.0277L7.71772 22.8926C7.80772 22.8926 7.88647 23.1516 7.99898 23.1741C8.584 23.2755 9.25901 23.3205 9.82153 23.4557C9.82153 23.7147 9.55153 23.8386 9.40527 24.0188C9.12402 23.6697 9.12402 23.6697 8.84276 24.0188C8.49399 23.5683 8.359 23.5233 7.86398 23.4557L7.86398 23.4444Z" fill="#A5D1B9"/>
<path d="M102.603 26.8231C102.525 26.902 101.737 26.6317 102.187 27.1047L102.187 27.3862C101.433 26.5753 100.848 27.6678 100.218 28.2309L100.5 26.8231L98.8121 27.3862L98.9471 27.9494L97.6871 27.3862C97.1583 27.6678 96.0333 27.5214 95.1557 27.6678C95.0207 27.6903 94.4695 27.9156 94.312 27.9494C94.1095 27.9944 93.8395 27.9268 93.6144 27.9494L94.177 28.5125C93.7269 28.6589 93.1532 28.0057 92.9169 27.9494C92.1406 27.7804 91.0719 28.2647 90.9481 28.2309C89.4181 27.8142 85.5704 28.3886 85.0416 28.2309C82.8816 27.5777 79.5515 28.8053 76.8851 27.9494L75.7601 28.5125L75.4788 27.9494L74.7813 28.5125L74.7813 27.9494C74.4663 27.9831 74.095 27.893 73.8025 27.9494C72.8238 28.1183 72.0587 27.8593 70.9899 27.6678C70.2474 27.5326 69.7749 27.848 69.1674 27.9494L69.1674 27.3862L68.6049 27.3862L68.7399 27.9494C68.4586 27.4876 68.0198 27.7466 67.6148 27.6678C66.7823 27.4989 65.7698 26.947 64.8022 27.1047C63.8347 27.2623 63.3172 26.6542 62.2709 26.8231C61.8546 26.8907 61.1009 27.0484 60.5833 26.5415L60.1671 26.8231L60.1671 26.26L59.7508 26.5415C59.4583 26.0573 59.1321 26.7105 58.4908 26.5415L58.4908 25.9784C58.3895 25.8771 56.8145 26.0573 56.3869 25.9784C55.8132 25.8771 55.8357 25.5505 54.9807 25.6969C54.1256 25.8433 53.6419 25.4604 53.2931 25.4153C52.2356 25.2914 51.268 25.6518 50.4805 24.5706L50.0642 24.5706L50.0642 25.1337C49.6142 24.9085 49.4567 24.6157 49.0855 25.1337L48.5229 24.5706C46.8804 24.9873 44.9228 24.8634 43.179 24.2891L42.054 24.8522C40.2539 24.2327 38.2626 24.2327 36.4288 24.5706L35.585 24.0075L34.7412 24.5706C34.3812 23.9512 32.3337 24.5143 32.0749 24.2891L32.2099 23.7259L31.3661 24.2891C30.9836 24.3904 30.8936 23.9061 30.5223 24.0075C28.1935 24.6495 25.2909 23.771 23.2096 24.2891L22.6471 23.7259C22.1408 24.4129 21.6458 23.6471 20.9595 23.7259L20.9595 24.2891L20.262 23.7259L20.262 24.2891L19.8458 24.0075C19.452 24.4017 18.2032 24.3904 17.5957 24.2891C17.2132 24.2215 15.3231 23.8836 14.7831 24.0075C13.7706 24.2327 11.813 24.4467 10.8455 23.4444C10.4067 24.0413 10.2604 23.5457 9.86668 23.4444C9.86668 23.1741 9.43916 23.0502 9.58542 22.5997C9.39417 22.5997 9.20291 22.5997 9.0229 22.5997C9.05666 22.5321 8.97789 22.3632 9.1579 22.3181L10.1367 22.3181L10.1367 22.8813L10.6992 22.5997L11.2617 22.7348L10.6992 22.3181L10.1367 21.4734C10.2154 21.3946 10.6204 21.9127 11.1155 21.755C11.228 21.7212 11.2842 21.5072 11.3967 21.4734C11.6667 21.3946 12.1055 21.9803 12.803 21.4734L13.2193 22.0366L12.5218 22.5997L14.063 22.3181L14.063 21.755L15.0418 21.4734L15.7394 21.755L15.7394 22.0366L14.8956 22.3181L16.4369 22.3181L16.3019 21.4734L17.5619 21.755L18.1245 21.1919C18.2145 21.1919 18.2932 21.4397 18.4057 21.4734C19.272 21.6987 20.7683 21.5973 21.4996 21.4734C22.5346 21.3045 23.1421 21.496 23.7496 22.3181L23.3334 21.1919C23.9521 21.0793 24.2334 21.3045 24.5934 21.755L25.1559 21.4734L25.5722 21.755L25.5722 21.1919C26.0447 21.0455 26.2022 21.5748 26.551 21.4734C27.8898 21.1018 27.8673 21.4734 29.0823 21.755C29.7123 21.9014 31.0511 21.2144 31.6136 21.1919L32.1762 21.755C32.6824 21.2707 33.875 21.5861 34.4262 22.0366C35.2925 21.2369 35.6075 21.541 36.395 21.755C36.6876 21.8338 37.6776 20.9441 38.2176 21.8902L38.0826 22.3069L39.2076 21.4622C39.7702 21.2933 40.0064 21.7437 40.0514 21.7437C40.1414 21.7437 40.2427 21.4622 40.3327 21.4622C40.4227 21.4622 40.5014 21.7212 40.6139 21.7437C41.9865 21.969 43.7865 21.5185 44.8328 21.7437C45.2153 21.8226 46.0816 22.4308 46.5204 22.3069C47.3867 22.0704 48.3654 22.2168 49.0517 22.0253C49.243 21.969 50.5705 22.2393 50.7393 22.3069L51.1555 22.0253L51.1555 22.5884C51.268 22.7236 51.493 22.2055 51.853 22.3069C52.8206 22.5772 54.2269 23.129 55.2282 22.3069C55.8357 23.0389 57.1857 23.4894 57.7595 23.1516L58.6033 23.7147C58.8845 23.2529 59.8183 23.5457 60.2908 23.7147C60.4483 23.771 60.9433 24.1314 61.1346 24.2778L60.9996 23.4331L61.8434 23.5683L61.8434 23.985C62.4847 23.512 62.6309 23.7147 63.1034 24.2665L63.9472 23.7034L64.5097 24.2665C65.8823 24.0188 67.5136 24.0863 69.0099 25.1112C69.6399 24.03 70.3712 24.9198 70.6974 24.8297C71.4399 24.6269 73.2738 25.2576 73.7913 25.1112C74.4325 24.9198 75.3438 25.3815 76.3226 25.1112C76.6264 25.0211 77.5489 25.4716 78.8539 25.1112C79.1577 25.0211 80.204 25.9559 80.8228 24.8297C81.0253 24.9761 81.194 25.2689 81.3853 25.3928C81.599 25.5167 82.3303 25.6406 82.3641 25.6743L82.3641 25.1112L82.9266 25.5279L82.9266 25.6631L82.3641 25.6631C82.3641 25.6631 82.3416 26.3276 82.7803 26.5078C83.1066 26.0911 84.0404 26.046 84.4679 26.5078L83.2078 25.5279L83.6241 24.8297L85.0304 25.6743L85.5929 25.1112C86.3805 25.4378 87.123 24.7846 88.1243 25.1112C89.1256 25.4378 90.0368 24.7396 90.9368 25.3928C92.2194 23.9737 93.8169 25.1901 95.437 24.2665L96.6971 24.5481L96.6971 23.985L97.9571 24.5481L98.9359 23.985L99.2171 24.5481L99.3521 23.985C99.7009 23.9399 100.162 24.0526 100.477 23.985C100.59 23.9625 100.646 23.7372 100.758 23.7034C101.051 23.6246 101.512 24.199 102.018 23.985L102.018 23.4219L102.997 23.985L103.841 23.4219C105.101 23.9287 106.294 22.8475 107.779 23.1403L108.341 22.5772C108.544 22.9376 109.399 22.5884 109.747 22.2956L110.873 22.8587L111.57 22.5772L111.57 22.0141L112.549 22.2956L113.393 21.7325C113.719 21.6424 113.955 22.1717 114.518 22.0141C114.866 21.9127 114.945 21.023 115.778 21.7325L116.194 20.8878L117.319 21.4509L118.444 20.6062C118.917 21.3496 119.625 20.4373 119.985 20.6062C119.997 20.6062 119.94 20.8878 120.12 20.8878C120.312 20.8428 120.244 20.6175 120.255 20.6062C120.514 20.4936 121.279 20.6851 121.662 20.6062L121.527 20.0431C122.078 20.6851 123.225 19.953 123.777 20.6062L124.62 20.0431C125.194 20.4148 125.408 20.0431 125.464 20.0431C125.52 20.0431 125.746 20.4824 126.162 20.3247L126.162 19.7616C126.634 19.6152 126.792 20.1445 127.141 20.0431C127.748 19.8742 128.108 19.9305 128.828 19.7616C129.436 19.6264 130.043 19.9418 130.516 20.3247L130.651 19.7616L131.629 20.3247C133.103 19.6039 133.981 20.8315 135.286 20.3247C135.59 20.6626 136.04 21.0004 136.411 21.1694C136.658 21.282 137.288 21.0455 137.39 21.7325C137.075 21.6874 136.681 21.8001 136.411 21.7325C136.096 21.6649 135.376 20.9103 135.286 20.8878C134.892 20.7752 134.206 20.9666 133.745 20.8878C133.688 21.3946 134.161 21.0455 134.588 21.3045C134.87 21.4847 134.915 21.6874 134.87 22.0028L135.567 22.0028L136.827 22.8475C136.062 22.87 135.477 22.9939 135.005 22.2844L135.14 22.8475L134.296 23.129L135.14 23.4106L134.015 23.2754L133.733 23.4106C133.778 22.0591 132.282 22.9263 131.629 22.2844C130.549 23.3205 129.604 22.5547 128.401 22.5659C128.434 21.8789 127.759 21.3045 126.994 21.4397L128.119 22.1379L127.422 22.5547C126.837 22.656 126.106 22.3181 125.734 22.8362C125.183 22.2506 124.992 22.442 124.609 22.5547C124.26 22.656 124.08 22.1267 123.63 22.2731L123.765 22.8362L123.068 22.7011C122.607 23.3318 121.988 23.2304 121.38 22.8362L121.38 23.3993L120.683 23.1178L120.12 23.6809C119.175 23.6021 118.512 23.8611 117.87 23.6809C117.229 23.5007 116.891 24.1314 116.464 24.5256C115.024 23.5683 114.203 25.2126 112.808 24.8071C112.189 24.6269 109.68 26.0347 108.589 25.6518L108.026 26.2149C106.429 25.6518 104.764 26.6542 102.829 26.7781C102.829 26.6429 102.828 26.5528 102.693 26.4965C102.513 26.4965 102.57 26.7668 102.558 26.7781L102.603 26.8231ZM76.0413 27.6565C76.2214 27.6565 76.2214 27.375 76.0413 27.375C75.8613 27.375 75.8613 27.6565 76.0413 27.6565ZM93.0519 26.5416L93.6144 26.5416L93.6144 26.26L93.0519 26.26L93.0519 26.5416ZM94.7395 26.26L95.5833 26.26L95.5833 25.9784L94.7395 25.9784L94.7395 26.26ZM87.573 26.26C87.753 26.26 87.753 25.9784 87.573 25.9784C87.393 25.9784 87.393 26.26 87.573 26.26ZM86.0204 26.26L86.8642 26.26L86.8642 25.9784L86.0204 25.9784L86.0204 26.26ZM79.4165 26.26C79.5965 26.26 79.5965 25.9784 79.4165 25.9784C79.2365 25.9784 79.2365 26.26 79.4165 26.26ZM76.6039 26.26C76.7839 26.26 76.7839 25.9784 76.6039 25.9784C76.4239 25.9784 76.4239 26.26 76.6039 26.26ZM75.7601 25.9784C75.9401 25.9784 75.9401 25.6969 75.7601 25.6969C75.5801 25.6969 75.5801 25.9784 75.7601 25.9784ZM55.2394 23.7259C55.4194 23.7259 55.4194 23.4444 55.2394 23.4444C55.0594 23.4444 55.0594 23.7259 55.2394 23.7259ZM53.9681 23.7259L54.5306 23.7259L54.5306 23.4444L53.9681 23.4444L53.9681 23.7259ZM52.1456 23.7259C52.3256 23.7259 52.3256 23.4444 52.1456 23.4444C51.9656 23.4444 51.9656 23.7259 52.1456 23.7259ZM29.3748 23.7259C29.5548 23.7259 29.5548 23.4444 29.3748 23.4444C29.1948 23.4444 29.1948 23.7259 29.3748 23.7259ZM34.1562 23.4444L34.2912 23.3092C33.83 22.5434 32.9524 23.1966 32.4687 22.611L32.3337 22.7461C32.7949 23.5119 33.6725 22.8587 34.1562 23.4444ZM50.7393 23.1628C50.9193 23.1628 50.9193 22.8813 50.7393 22.8813C50.5593 22.8813 50.5593 23.1628 50.7393 23.1628ZM28.1148 22.0366L27.271 22.4533L27.6873 23.1516L27.5523 22.3069L28.1148 22.3069L28.1148 22.0253L28.1148 22.0366ZM23.1871 23.1628C23.3671 23.1628 23.3671 22.8813 23.1871 22.8813C23.0071 22.8813 23.0071 23.1628 23.1871 23.1628ZM22.2083 23.1628L22.7709 23.1628L22.7709 22.8813L22.2083 22.8813L22.2083 23.1628ZM122.145 22.8813C122.325 22.8813 122.325 22.5997 122.145 22.5997C121.965 22.5997 121.965 22.8813 122.145 22.8813ZM47.6454 22.8813C47.8254 22.8813 47.8254 22.5997 47.6454 22.5997C47.4654 22.5997 47.4654 22.8813 47.6454 22.8813ZM47.0829 22.8813C47.2629 22.8813 47.2629 22.5997 47.0829 22.5997C46.9029 22.5997 46.9029 22.8813 47.0829 22.8813ZM45.5416 22.8813L46.3854 22.8813L46.3854 22.5997L45.5416 22.5997L45.5416 22.8813ZM45.1141 22.8813C45.2941 22.8813 45.2941 22.5997 45.1141 22.5997C44.9341 22.5997 44.9341 22.8813 45.1141 22.8813ZM43.989 22.8813C44.1691 22.8813 44.1691 22.5997 43.989 22.5997C43.809 22.5997 43.809 22.8813 43.989 22.8813ZM39.9164 22.5997C40.2539 22.5434 40.4227 22.5997 40.6139 22.8813L41.0302 22.3181L39.9052 22.3181L39.9052 22.5997L39.9164 22.5997ZM29.8023 22.5997C30.2299 22.4871 30.3086 22.7912 30.6461 22.8813L30.6461 22.3181L29.8023 22.3181L29.8023 22.5997ZM39.5002 22.5997C39.6802 22.5997 39.6802 22.3181 39.5002 22.3181C39.3202 22.3181 39.3202 22.5997 39.5002 22.5997ZM36.9688 22.5997C37.1488 22.5997 37.1488 22.3181 36.9688 22.3181C36.7888 22.3181 36.7888 22.5997 36.9688 22.5997ZM30.9161 22.5997L31.4786 22.5997L31.4786 22.3181L30.9161 22.3181L30.9161 22.5997ZM122.708 22.3181C122.888 22.3181 122.888 22.0366 122.708 22.0366C122.528 22.0366 122.528 22.3181 122.708 22.3181ZM35.135 22.3181L35.6975 22.3181L35.6975 22.0366L35.135 22.0366L35.135 22.3181ZM22.6246 22.3181C22.8046 22.3181 22.8046 22.0366 22.6246 22.0366C22.4446 22.0366 22.4446 22.3181 22.6246 22.3181ZM21.0833 22.3181L21.9271 22.3181L21.9271 22.0366L21.0833 22.0366L21.0833 22.3181ZM18.552 22.3181L19.1145 22.3181L19.1145 22.0366L18.552 22.0366L18.552 22.3181ZM17.1457 22.3181L18.2707 22.3181L18.2707 22.0366L17.1457 22.0366L17.1457 22.3181ZM14.4793 22.3181C14.6593 22.3181 14.6593 22.0366 14.4793 22.0366C14.2993 22.0366 14.2993 22.3181 14.4793 22.3181ZM126.646 22.0366C126.826 22.0366 126.826 21.755 126.646 21.755C126.466 21.755 126.466 22.0366 126.646 22.0366ZM129.312 21.755C129.942 21.8676 130.212 21.6424 130.572 21.1919C130.853 21.0455 130.369 20.6513 130.291 20.6288C129.942 20.5274 129.458 20.8315 129.166 20.3472L127.906 20.6288L128.603 21.1919L128.884 20.9103L129.301 21.755L129.312 21.755ZM121.729 21.1919C122.427 21.0117 122.843 21.8226 123.27 21.1919L124.53 21.4735C124.508 20.8428 123.507 21.4847 123.27 20.9103L121.729 21.1919ZM133.115 21.1919L133.531 20.7752L133.396 20.64L132.98 21.0567L133.115 21.1919ZM132.552 20.9103C132.732 20.9103 132.732 20.6288 132.552 20.6288C132.372 20.6288 132.372 20.9103 132.552 20.9103ZM130.999 20.9103L131.562 20.9103L131.562 20.6288L130.999 20.6288L130.999 20.9103Z" fill="#A5D1B9"/>
<path d="M102.604 26.8231C102.694 26.8231 102.795 26.8231 102.885 26.8231C102.885 26.9582 102.885 27.0483 102.75 27.1046L102.615 26.8231L102.604 26.8231Z" fill="#A5D1B9"/>
<path d="M7.03143 23.4443C5.8389 23.3317 5.37764 23.0502 4.3651 22.5997L2.82381 21.755C3.31882 21.6649 3.75759 21.8113 4.2301 21.8901C4.70262 21.969 4.81512 22.1717 5.35514 21.755L5.49014 22.3181C5.9289 21.7324 6.21016 22.1604 6.61518 22.5997L7.03143 22.1829L6.75018 21.9014L8.57273 22.3181C8.76399 22.3631 8.68526 22.5321 8.70776 22.5997C8.2465 22.5997 7.76273 22.5997 7.30147 22.5997C7.42522 23.0051 7.11021 23.1177 7.02021 23.4443L7.03143 23.4443Z" fill="#A5D1B9"/>
<path d="M8.70775 22.5997C8.79776 22.5997 8.89901 22.5997 8.98901 22.5997C8.95526 22.6672 9.03399 22.8812 8.85398 22.8812C8.66272 22.8249 8.74148 22.6785 8.71898 22.5997L8.70775 22.5997Z" fill="#A5D1B9"/>
<path d="M10.6768 22.3182L10.6768 22.5997C10.3055 22.5997 10.3055 22.3182 10.6768 22.3182Z" fill="#A5D1B9"/>
<path d="M130.999 37.4999L131.416 36.9368L132.394 36.9368L132.394 37.2184C131.877 37.1846 131.596 37.6463 130.988 37.4999L130.999 37.4999Z" fill="#A5D1B9"/>
<path d="M181.604 40.8674C181.604 40.8674 181.795 40.8448 181.885 40.8674L181.75 41.1489C181.57 41.1489 181.626 40.8786 181.615 40.8674L181.604 40.8674Z" fill="#A5D1B9"/>
<path d="M371.926 7.42921C371.926 7.42921 371.971 7.18143 371.926 7.14765L372.489 6.86609L372.489 7.42921C372.309 7.40668 371.971 7.47426 371.926 7.42921Z" fill="#A5D1B9"/>
<path d="M168.114 40.5858L168.396 40.5858L168.396 40.8674C168.396 40.8674 168.058 40.9011 168.114 40.5858Z" fill="#A5D1B9"/>
<path d="M333.405 11.6413C333.405 11.6413 333.45 11.8778 333.405 11.9229L333.124 11.7877C333.124 11.6075 333.394 11.6638 333.405 11.6526L333.405 11.6413Z" fill="#A5D1B9"/>
<path d="M181.604 40.5857C181.604 40.5857 181.559 40.8223 181.604 40.8673C181.592 40.856 181.322 40.9011 181.322 40.7322L181.604 40.597L181.604 40.5857Z" fill="#A5D1B9"/>
<path d="M346.624 12.7676C346.703 12.7451 346.827 12.7676 346.905 12.7676C346.883 12.869 346.95 12.9929 346.77 13.0492L346.635 12.7676L346.624 12.7676Z" fill="#A5D1B9"/>
<path d="M346.905 12.7676C346.928 12.6775 346.894 12.5762 346.905 12.4861L348.03 12.7676L348.03 13.0492C347.569 13.0605 347.412 12.8127 346.905 12.7676Z" fill="#A5D1B9"/>
<path d="M174.853 41.149C174.853 41.149 174.876 41.577 174.291 41.4305C174.313 41.2503 174.257 41.0251 174.291 40.8674C174.381 40.8787 174.482 40.8674 174.572 40.8674C174.617 41.0589 174.583 41.1828 174.853 41.149Z" fill="#A5D1B9"/>
<path d="M176.541 35.2474L176.26 35.2474C176.26 35.2474 176.215 35.0109 176.395 34.9659C176.575 34.9659 176.518 35.2362 176.53 35.2474L176.541 35.2474Z" fill="#A5D1B9"/>
<path d="M326.947 16.9798L327.228 16.9798C327.228 17.3515 326.947 17.3515 326.947 16.9798Z" fill="#A5D1B9"/>
<path d="M174.853 41.149C174.842 41.0589 174.876 40.9575 174.853 40.8674C175.033 40.8674 175.236 40.8787 175.416 40.8674L175.281 41.149C175.135 41.2053 174.954 41.1039 174.864 41.149L174.853 41.149Z" fill="#A5D1B9"/>
<path d="M325.26 13.3307L324.978 13.3307C324.978 12.959 325.26 12.959 325.26 13.3307Z" fill="#A5D1B9"/>
<path d="M174.572 40.5857C174.842 40.552 174.808 40.6758 174.853 40.8673C174.763 40.8673 174.662 40.8673 174.572 40.8673C174.55 40.7772 174.583 40.6758 174.572 40.5857Z" fill="#A5D1B9"/>
<path d="M168.395 40.8674C168.486 40.8448 168.632 40.9012 168.677 40.8674C168.666 40.8674 168.722 41.1039 168.542 41.1489C168.362 41.1489 168.418 40.8786 168.407 40.8674L168.395 40.8674Z" fill="#A5D1B9"/>
<path d="M167.27 40.5858C167.057 40.5408 166.978 40.462 166.854 40.3043L166.292 40.5858L165.729 40.0227C165.11 40.8111 164.379 39.5159 163.76 40.3043L162.782 39.7412L162.365 40.8674L162.5 40.0227L160.813 39.4596L160.948 40.5858L160.531 39.7412L159.125 40.0227L159.823 39.178C159.361 39.8763 158.754 39.178 158.698 39.178C158.596 39.178 158.506 39.4596 158.416 39.4596L157.854 38.8965L157.989 39.3132L157.145 39.7299L157.426 38.8852C156.504 39.0541 156.166 38.6937 155.604 38.0405L154.76 38.3221C154.423 38.1644 153.23 37.1958 153.073 37.1958C152.983 37.1958 152.904 37.4436 152.791 37.4774C152.499 37.5562 152.071 36.9931 151.531 37.1958L151.666 37.759L150.822 36.9143L149.844 37.1958L149.844 36.6327L149 36.6327L149.844 37.331L149.281 37.7477L148.437 37.1846L148.719 36.6215C148.1 36.7341 147.819 36.5201 147.459 36.0583C147.2 36.5314 146.716 36.2385 146.334 36.3399C146.154 36.3849 145.737 37.0269 145.49 37.1846L146.187 36.0583L145.49 36.3399L144.365 35.4952C143.465 35.9795 141.856 35.3038 140.708 35.4952C140.596 35.5177 140.517 35.7768 140.427 35.7768L140.011 35.4952L140.011 36.3399L139.448 36.2047L139.73 35.5065C139.325 35.5515 138.852 35.4389 138.47 35.5065C137.828 35.6078 136.366 35.9795 135.376 35.788C135.286 35.7655 135.072 35.3713 134.959 35.5065L134.959 36.0696L134.543 35.788C133.812 36.216 132.676 36.2498 132.012 36.0696C131.494 36.858 130.763 36.6215 129.908 36.6327L129.908 37.1958L129.492 36.9143L128.232 37.1958L128.513 38.0405L127.815 37.4774C127.467 37.9504 126.837 37.7139 126.274 37.759L126.274 38.3221L125.149 38.3221L125.149 38.8852C124.227 38.6937 123.777 39.2569 123.045 39.7299L122.629 39.4483L122.629 40.0114C122.404 40.0452 122.111 39.9551 121.931 40.0114C121.459 40.1353 120.683 40.7097 120.244 40.8561C120.064 40.9124 119.771 40.8223 119.546 40.8561L119.546 41.4193L118.849 41.1377L118.433 41.9824C117.623 41.8134 117.105 42.3991 116.329 42.2639C115.8 42.1738 115.62 42.2977 115.485 42.2639C115.328 42.2301 115.012 41.7684 114.506 41.9824L115.069 42.6806C114.787 42.8383 114.551 42.3991 114.09 42.5455C113.955 42.5905 113.719 42.9847 113.527 43.1086L111.705 42.2639L112.267 43.1086L111.705 42.5455L111.289 42.8271L110.726 42.5455L109.747 43.1086L109.747 42.5455L108.904 42.8271L108.487 41.9824L107.925 42.2639L107.79 41.7008L106.946 41.9824L106.383 40.293L105.821 40.293C105.922 39.7299 105.303 39.6398 105.821 39.3132C104.786 38.705 105.54 38.0743 105.54 37.9054C105.54 37.8153 105.258 37.7139 105.258 37.6238C105.258 37.5337 105.517 37.4549 105.54 37.3422C105.596 37.0494 105.506 36.6778 105.54 36.3624L106.383 36.3624L106.665 36.9255L106.665 35.7993L107.79 35.7993L108.071 36.4976L107.79 38.0405L108.634 38.0405L108.634 38.6036L109.05 38.3221L109.185 38.8852L110.591 38.7501L110.872 38.3333L111.154 38.8965L111.716 38.8965L111.716 38.3333C112.121 38.3784 112.594 38.2658 112.976 38.3333C113.089 38.3559 113.167 38.6149 113.257 38.6149C113.347 38.6149 113.426 38.3671 113.539 38.3333C113.719 38.2883 113.932 38.3784 114.101 38.3333C114.72 38.1531 116.205 36.2723 116.914 37.2071L118.174 36.644C118.073 35.6754 118.95 35.9795 119.434 35.5177L119.85 35.7993L119.85 35.2362C120.413 35.4389 121.166 34.4591 121.391 34.3915C122.404 34.0987 123.788 33.8509 124.485 32.9837L125.048 33.2652L125.61 32.7021L125.892 32.9837C126.308 32.4544 126.803 32.1165 127.298 32.7021L127.163 32.2854C127.523 31.7899 128.029 31.6435 128.423 32.1503C130.133 30.7537 132.529 30.81 134.611 30.4609C135.106 30.3821 137.322 29.7852 137.986 29.8978C138.177 29.9316 138.188 30.4384 138.548 29.8978L139.111 30.4609C141.552 29.864 144.308 31.2155 146.705 30.4609C147.222 31.1704 147.819 31.2155 148.527 30.7425C148.437 31.6435 149.495 31.9025 150.069 31.3056C151.115 31.8349 152.397 32.1503 153.444 32.4318C155.491 32.9837 157.516 33.1526 159.631 33.5581C159.901 33.6144 160.532 34.0761 161.173 33.8396L161.173 34.4028C162.838 34.7857 164.312 34.0086 165.808 35.2474C166.157 34.7744 166.607 34.5154 167.214 34.6843C167.372 34.7294 167.619 35.2024 167.777 35.2474C168.002 35.315 168.834 35.529 168.902 35.529C168.992 35.529 169.071 35.27 169.183 35.2474C169.847 35.1348 170.713 35.5065 171.152 34.9659L172.277 35.8106C172.761 35.1461 173.109 35.7205 173.402 35.8106C173.661 35.8894 174.021 35.6642 174.246 36.0921L174.662 35.6754L174.099 35.2587C174.662 35.2587 175.078 35.0109 174.943 35.8218L175.224 35.8218L175.224 35.2587C175.539 35.2024 176.136 35.3488 176.35 35.2587C176.35 35.6304 176.631 35.6304 176.631 35.2587C176.991 35.529 177.317 35.8781 177.756 35.8218L177.756 35.2587C178.307 35.5065 178.948 34.9771 179.016 34.9771C179.061 34.9771 179.297 35.4164 179.86 35.2587C180.613 35.0447 181.615 34.7294 182.672 35.2587C184.045 34.0536 185.541 35.1348 186.891 34.1325C187.825 35.4051 188.174 34.2451 188.579 34.1325C189.119 33.986 190.019 34.2676 190.548 33.5693L191.808 34.414L191.526 33.5693L192.651 33.986L192.37 33.5693C192.876 33.7833 193.304 33.2878 193.349 33.2878C193.394 33.2878 193.63 33.727 194.193 33.5693C194.271 33.5468 195.115 32.7247 195.318 32.7247C195.993 32.7247 196.634 32.6346 197.568 32.4431C198.637 32.2291 200.11 31.7448 200.943 31.88C202.304 32.1052 202.597 30.8551 203.474 31.5984C203.992 30.8213 205.083 31.0128 205.724 30.4722C207.412 31.452 208.211 29.4586 210.078 29.909L210.078 29.3459C210.641 29.4473 210.731 28.8279 211.057 29.3459L211.619 28.7828C212.171 29.0306 212.497 28.9968 213.026 28.5012C213.498 29.177 213.937 28.5125 214.432 28.5012L214.848 29.0644L214.713 28.2197C215.073 28.1746 215.501 28.2873 215.838 28.2197C215.94 28.1972 216.007 27.9719 216.12 27.9381C216.468 27.8368 217.211 28.2647 217.807 27.9381L218.223 28.2197L218.64 27.375L219.056 27.9381L219.191 27.375C219.54 27.3187 220.023 27.4538 220.316 27.375C220.53 27.3187 222.071 26.4515 222.566 26.2488C224.186 25.6068 225.221 26.2488 226.504 25.4041C227.201 26.3389 229.024 24.6833 229.598 24.841C230.644 25.1338 230.936 24.3116 231.848 24.5594C232.151 24.6382 234.863 24.1202 235.223 24.5594L235.785 23.9963C237.484 23.7147 239.307 24.1202 240.848 23.1516C243.514 23.726 246.732 22.0704 249.567 22.5885C250.906 21.7776 253.268 21.71 254.63 22.0253C255.608 22.2506 257.858 21.023 258.849 21.7438L259.692 21.1807C260.3 21.7888 261.324 21.4397 261.942 20.8991C262.786 21.237 263.832 21.5185 264.474 20.6175C265.284 21.0906 266.037 20.167 267.005 20.336C267.118 20.3585 267.196 20.6175 267.286 20.6175L267.703 20.336L267.703 20.8991L268.4 20.6175L268.816 20.8991L268.816 20.336L269.514 20.0544L270.639 20.6175C272.124 19.5138 274.149 20.381 275.42 19.4913L275.983 20.0544C276.77 19.2097 277.659 20.167 278.514 19.2097L279.639 19.7729C280.213 19.2998 281.079 18.8831 281.608 19.4913C282.879 18.2975 284.319 19.2097 285.546 18.3651C286.997 18.8944 288.471 17.4641 290.046 18.3651C290.417 18.061 290.946 17.6555 291.171 18.0835C291.711 17.3289 293.128 17.3627 293.702 17.5204C294.242 17.678 295.581 16.9347 296.233 17.8019L296.796 17.2388L297.64 17.8019L298.056 16.9572C298.484 16.7996 298.697 17.2388 298.754 17.2388C298.81 17.2388 299.024 16.8672 299.597 17.2388C300.205 16.2027 300.835 16.9572 301.004 16.9572C301.071 16.9572 301.926 16.5405 302.129 16.3941L302.691 16.9573L302.556 16.3941L303.535 16.1126L304.098 16.6757L304.379 16.3941L305.076 16.9573L304.795 16.1126C305.11 16.0788 305.481 16.1689 305.774 16.1126C306.066 16.0563 307.304 15.7296 307.743 15.831C307.866 15.8648 307.99 16.2702 308.44 16.1126C308.508 16.0563 307.9 15.5832 308.575 15.2679L308.71 15.831C309.734 16.1238 309.97 15.2003 310.814 15.2679L311.23 15.5494L311.23 14.9863L311.928 14.7048L312.49 15.2679C313.053 15.1102 313.919 14.8962 314.74 14.7048C315.089 14.6259 315.618 14.6372 315.865 14.9863L315.73 14.1416L316.428 14.7048L317.553 13.8601L318.115 14.4232L319.094 14.1416L318.813 14.2768C318.813 14.457 319.083 14.4007 319.094 14.4119C319.117 14.4345 319.049 14.6484 319.229 14.6935C319.409 14.6935 319.353 14.4232 319.364 14.4119C319.454 14.3218 319.803 14.3894 319.646 13.8488C319.893 13.8038 320.321 13.9164 320.489 13.8488L320.624 14.1304L320.759 13.8488L321.322 14.1304L321.322 13.5673L321.738 13.8488L322.582 13.2857C323.268 13.7137 323.988 13.0717 324.551 13.5673L324.967 13.2857L325.102 13.5673C325.282 13.5673 325.226 13.297 325.237 13.2857C325.541 13.1505 326.486 13.3758 326.925 13.2857L326.79 12.7226C327.105 13.2406 327.521 12.3622 327.915 13.0041L328.477 12.441L329.04 12.7226C329.456 12.1932 329.951 11.8554 330.446 12.441L331.008 11.8779L332.133 12.441L331.998 11.8779L333.405 11.8779L333.686 11.5963L334.249 11.8779L334.249 11.3148C334.969 11.2472 335.362 11.281 335.79 11.8779L338.04 10.4701C338.647 11.1458 339.176 10.1885 340.009 10.7516L340.852 10.1885C341.516 10.8305 342.518 10.3349 343.238 10.1885L343.238 9.62541C344.318 9.67045 345.24 10.1435 346.185 9.34384L347.029 9.62541L346.613 8.78072C347.074 8.63431 347.243 9.16364 347.591 9.06228C348.379 8.83703 349.887 9.14112 350.685 8.2176C351.09 8.72441 351.878 8.43159 352.508 8.49916L351.945 7.80089C352.283 7.65448 352.193 7.99235 352.789 7.80089C352.868 7.77836 352.913 7.65448 352.924 7.66574C352.992 7.66574 353.194 8.10497 353.622 7.9473L353.487 7.38418C353.712 7.72205 353.959 7.69953 354.33 7.66574C355.129 7.5869 356.4 7.38418 357.143 7.38418C357.211 7.38418 357.312 7.59817 357.424 7.66574L357.289 7.10262C357.818 7.30534 358.268 6.74222 358.549 6.82106C359.033 6.95621 359.269 6.99 359.674 7.10262C359.922 7.1702 361.159 6.33677 361.643 7.10262L361.778 6.5395L363.038 7.10262L362.903 6.5395L364.872 6.67464L365.716 6.5395L364.872 7.10262C364.771 7.51933 365.356 7.45175 365.57 7.38418C365.817 7.30534 366.402 6.57328 366.267 6.25793L367.111 6.5395L366.83 7.66574L367.955 7.53059L367.82 6.55076L368.517 6.68591C368.843 6.92242 368.731 7.05757 368.798 7.24903C368.911 7.56438 369.608 7.21524 369.777 7.66574L369.215 6.5395C369.642 7.18145 370.013 6.5395 370.058 6.5395C370.171 6.56202 370.238 6.8098 370.34 6.82106C370.868 6.85484 371.78 6.61834 371.881 7.10262L370.756 7.10262L371.037 7.9473L371.881 7.38418C371.904 7.81215 372.421 7.81215 372.444 7.38418C373.062 7.84594 374.165 7.36166 374.131 8.51043C373.715 8.25139 373.377 8.13876 372.871 8.22886C371.78 8.42033 369.991 8.62305 368.652 8.22886C367.516 9.37763 365.367 8.74694 364.152 9.07355C363.353 9.28753 361.531 9.88444 360.496 9.35511C359.303 10.6278 357.537 9.69298 356.558 10.7629C355.984 10.5602 355.602 10.5602 355.152 10.4814C354.274 10.3349 354.015 10.7291 353.464 11.326C353.104 10.7854 352.98 11.5851 352.62 11.0445C352.08 11.7878 350.944 11.7765 350.37 11.6076C349.83 11.4499 349.594 11.968 349.11 11.8892L349.11 12.4523L348.694 12.1707C348.12 12.0243 347.929 12.441 347.85 12.4523C347.805 12.4523 347.096 11.709 346.871 12.4523L346.59 12.7338C345.96 12.8803 345.758 13.4659 345.049 13.0154L344.205 13.8601L344.34 13.297C343.856 13.3533 343.249 13.2181 342.799 13.297C342.27 13.3871 342.214 13.8038 341.392 13.5785C341.032 13.4772 340.774 14.1754 340.132 13.5785C340.279 14.2881 339.896 14.5584 339.435 14.9863L339.851 14.1416L338.726 14.1416L338.726 14.7048C337.86 14.1754 336.724 14.5133 335.779 14.7048C335.61 14.7386 335.407 15.358 334.935 14.7048L335.07 15.1215L334.372 16.1013L333.393 15.8197L334.8 15.5382L334.384 14.9751L333.123 15.2566L333.123 15.8197L331.436 15.5382L332.842 15.8197L332.426 16.3829C331.897 16.3491 331.335 16.5518 331.02 16.1013L330.041 16.6644L330.885 16.1013C330.783 15.3355 329.861 16.2027 329.478 16.1013L329.478 16.6644L328.916 16.6644L328.916 17.2276L328.353 17.2276L328.916 16.3829C327.836 16.1464 328.241 16.7095 327.656 17.2276C327.588 17.0248 327.296 16.991 327.24 16.946C327.228 16.946 327.273 16.6644 327.105 16.6644L326.97 16.946L325.844 17.2276L325.709 16.6644L325.012 17.0811L325.012 17.4978C324.213 17.5767 323.684 18.275 322.762 18.061L322.481 17.2163C322.537 17.5316 322.987 17.633 322.481 17.9146C322.087 18.1398 321.693 18.0497 321.221 18.0497L321.356 18.6128L320.658 17.7681L320.377 18.8944L319.679 18.8944L319.544 17.7681L318.847 18.0497L319.409 18.8944L318.43 18.6128L317.452 19.176L318.295 18.1961L317.598 18.061L317.182 18.9057L316.619 18.3425L316.9 19.1872C316.585 19.1422 316.192 19.2548 315.922 19.1872C315.809 19.1647 315.753 18.9394 315.64 18.9057C315.55 18.8831 314.167 19.2773 313.953 19.4688L312.974 18.9057L313.537 19.7503L312.693 19.6152C312.265 20.2571 311.579 19.9981 310.87 20.0319L310.735 19.4688L310.454 20.0319L309.756 19.7503C308.958 20.9329 307.439 20.8766 306.381 20.0319L306.516 20.8766C306.224 20.8541 306.325 20.6288 305.954 20.7414C305.526 20.8766 305.29 21.068 304.975 20.6063C304.829 20.9329 303.659 21.451 303.569 21.451C303.479 21.451 303.4 21.1919 303.287 21.1694C302.995 21.1131 302.624 21.2032 302.309 21.1694L302.309 21.7325L301.049 21.451L300.632 22.0141L300.07 21.451C299.98 21.3721 299.654 21.9127 299.226 21.451L299.226 22.0141C298.731 21.9578 298.146 22.0929 297.685 22.0141C297.572 21.9916 297.437 21.5748 296.987 21.7325L296.987 22.2956L296.571 22.0141C296.132 22.6673 295.806 22.0141 295.727 22.0141C295.637 22.0141 295.536 22.2956 295.446 22.2956C295.39 22.2956 294.771 21.8564 294.602 21.7325L295.018 22.5772C294.523 22.352 294.13 22.8475 294.04 22.8588C293.342 22.9601 292.465 22.7461 291.79 22.8588C290.091 23.1403 287.526 23.5908 285.321 23.4219C284.724 23.9174 284.229 23.8499 283.633 23.985C283.127 24.0976 282.362 23.9062 281.811 23.985L281.946 24.5481C281.743 24.3679 281.045 23.9174 280.82 23.985C280.404 24.1089 278.897 24.6495 278.57 24.5481C277.04 24.0864 276.579 24.9986 275.195 24.5481L274.633 25.1113C273.823 25.0324 272.596 24.3454 271.82 25.3928L270.841 24.9761L271.123 25.3928C270.583 25.1901 270.155 25.7532 269.863 25.6744C269.3 25.5167 268.524 25.4717 267.894 25.6744C267.061 25.9447 265.936 25.6969 265.081 26.2375L264.237 25.6744L263.259 26.2375L263.124 25.6744L261.999 26.5191L261.436 25.9559L260.874 26.5191C260.244 25.832 259.535 26.6655 258.905 26.2375C258.185 26.8907 256.835 27.0822 256.092 26.5191L255.53 27.0822L254.405 26.2375L254.54 26.6542C254.54 27.1385 252.706 27.3074 252.436 26.7894L252.571 27.3525C252.166 27.3975 251.693 27.2849 251.311 27.3525C251.086 27.3863 250.253 27.7354 249.904 27.634C249.758 27.589 249.668 27.2061 249.207 27.3525L249.207 27.9156L248.228 27.3525L247.666 27.9156C246.867 27.3525 246.327 28.3098 245.697 27.634L245.134 28.1972C244.313 27.7917 244.291 28.4337 243.447 28.1972C242.828 28.017 242.479 28.8616 242.04 28.1972L241.624 28.6139L242.187 29.0306L240.927 28.4675C240.533 28.49 239.588 28.8504 239.239 28.749C238.407 28.5125 238.17 29.0081 237.833 29.0306C237.777 29.0306 237.18 28.5012 236.708 28.749L236.843 29.3121C236.089 29.177 236.213 28.9517 235.436 29.3121C235.403 29.2333 235.493 29.0869 235.301 29.0306C235.121 29.0306 235.178 29.3009 235.166 29.3121C234.941 29.4811 234.683 29.5149 234.469 29.5937C234.075 29.7289 234.806 29.9428 234.469 30.1568L234.334 29.3121L232.928 29.8753L232.793 29.3121L232.095 29.5937L232.095 30.1568C231.668 30.3145 231.454 29.8753 231.398 29.8753C231.308 29.8753 231.206 30.1568 231.116 30.1568C230.97 30.1568 231.139 30.0555 230.554 30.1568C230.003 30.2469 229.305 30.0892 228.731 30.1568L228.731 30.7199L227.325 30.4384L227.325 31.0015L226.481 30.7199L226.616 31.5646C226.38 31.1817 226.132 31.3056 225.772 31.2831C224.479 31.2042 223.466 31.6885 222.679 31.2831L222.116 31.8462L220.856 31.5646L220.856 31.9813L220.721 31.8462C220.181 32.6796 219.157 32.2291 218.471 32.9724L217.492 32.6909L217.627 33.5356L216.086 32.9724L216.086 33.5356C215.445 33.3666 215.118 34.0198 214.826 33.5356L214.263 34.0987C213.982 33.7495 213.982 33.7495 213.701 34.0987L213.285 33.8171L213.285 34.3802C212.778 34.5942 212.351 34.0987 212.306 34.0987C212.013 34.0987 210.303 34.8082 209.493 34.9434C209.381 34.9659 209.313 35.2249 209.212 35.2249C209.167 35.2249 208.931 34.7857 208.514 34.9434L208.796 35.788L207.108 34.9434L207.671 36.0696C207.356 36.0246 206.962 36.1372 206.692 36.0696C206.579 36.0471 206.523 35.8218 206.411 35.788C206.231 35.743 205.162 36.3174 204.588 36.0696L204.588 36.6327L203.609 36.3512C203.283 36.7679 202.642 37.072 202.203 37.1958C199.627 37.9504 197.095 37.6689 194.89 38.6037L194.328 38.3221C193.788 38.6825 193.889 39.1217 193.911 39.7299L192.933 39.4483L191.954 40.0115C191.898 39.7637 192.46 39.5835 192.089 39.4483C191.774 39.3357 191.56 39.1668 191.526 39.1668C191.448 39.1668 191.335 39.5497 190.964 39.4483C190.84 39.4145 190.671 38.9978 190.12 39.1668L188.86 40.293L189.141 39.1668C188.77 39.2456 188.781 39.6511 188.444 39.1668L188.579 39.7299L187.172 39.4483C187.229 39.865 187.172 40.3719 186.756 40.5746C185.924 40.9575 187.049 39.5947 186.34 39.7299L186.205 40.293C185.856 39.7412 185.766 40.4056 185.361 40.293C185.249 40.2592 185.192 40.034 185.08 40.0115C184.697 39.9214 184.169 39.9551 183.955 40.293L184.09 41.1377L183.527 40.293L183.246 41.1377L182.683 40.5746L182.121 40.8561C182.121 40.507 181.851 40.5858 181.84 40.5746C181.615 40.293 181.435 39.8087 180.996 39.7299L180.996 40.293C180.568 40.1353 180.355 40.5746 180.298 40.5746C180.208 40.5746 180.13 40.3268 180.017 40.293C179.477 40.1353 179.072 40.766 178.476 40.5746L178.476 41.1377L177.778 40.5746C177.407 41.1039 177.43 40.6309 177.216 40.5746C177.137 40.5521 176.181 40.8111 175.674 40.8561L174.977 40.293C174.786 40.3381 174.853 40.5633 174.842 40.5746C174.786 40.6196 174.639 40.4845 174.561 40.8561C174.257 40.8111 174.144 40.4394 173.717 40.5746L173.154 41.1377L173.289 40.5746L173.154 41.4193L171.748 41.1377L171.748 40.5746L171.186 40.5746L171.186 41.1377C170.432 41.2616 170.252 40.1691 169.498 40.293L169.498 40.8561C169.318 40.8787 169.037 40.8111 168.936 40.8561C168.958 40.8449 169.003 40.507 169.217 40.4394L169.217 40.0227L168.936 40.0227L168.654 40.5858L168.519 40.3043C168.339 40.3043 168.396 40.5746 168.384 40.5858C168.306 40.6309 168.002 40.5858 167.822 40.5858C167.822 40.3944 167.822 40.2142 167.822 40.0227L167.54 40.0227C167.518 40.2029 167.585 40.4394 167.54 40.5858L167.27 40.5858ZM182.166 40.3043L182.729 40.3043L182.729 40.0227L182.166 40.0227L182.166 40.3043ZM192.989 39.1893C193.169 39.1893 193.169 38.9077 192.989 38.9077C192.809 38.9077 192.809 39.1893 192.989 39.1893ZM112.301 38.9077C112.481 38.9077 112.481 38.6262 112.301 38.6262C112.121 38.6262 112.121 38.9077 112.301 38.9077ZM133.677 35.8106C133.857 35.8106 133.857 35.529 133.677 35.529C133.497 35.529 133.497 35.8106 133.677 35.8106ZM136.197 35.529C136.377 35.529 136.377 35.2474 136.197 35.2474C136.017 35.2474 136.017 35.529 136.197 35.529ZM134.093 35.2474L134.656 35.2474L134.656 34.9659L134.093 34.9659L134.093 35.2474ZM137.041 30.7537C137.221 30.7537 137.221 30.4722 137.041 30.4722C136.861 30.4722 136.861 30.7537 137.041 30.7537ZM254.832 26.26C255.012 26.26 255.012 25.9785 254.832 25.9785C254.652 25.9785 254.652 26.26 254.832 26.26ZM226.447 26.26C226.627 26.26 226.627 25.9785 226.447 25.9785C226.267 25.9785 226.267 26.26 226.447 26.26ZM232.624 25.1338C232.804 25.1338 232.804 24.8522 232.624 24.8522C232.444 24.8522 232.444 25.1338 232.624 25.1338ZM293.916 21.755C294.096 21.755 294.096 21.4735 293.916 21.4735C293.736 21.4735 293.736 21.755 293.916 21.755ZM303.467 20.9104C303.647 20.9104 303.647 20.6288 303.467 20.6288C303.287 20.6288 303.287 20.9104 303.467 20.9104ZM305.718 20.3585C305.898 20.3585 305.898 20.0769 305.718 20.0769C305.538 20.0769 305.538 20.3585 305.718 20.3585ZM308.53 20.0769C308.71 20.0769 308.71 19.7954 308.53 19.7954C308.35 19.7954 308.35 20.0769 308.53 20.0769ZM307.405 20.0769C307.585 20.0769 307.585 19.7954 307.405 19.7954C307.225 19.7954 307.225 20.0769 307.405 20.0769ZM311.478 19.5138L312.322 19.5138L312.322 18.9507C311.984 19.0408 311.905 19.3449 311.478 19.2323L311.478 19.5138ZM311.061 19.5138C311.241 19.5138 311.241 19.2323 311.061 19.2323C310.881 19.2323 310.881 19.5138 311.061 19.5138ZM285.478 19.2323C285.658 19.2323 285.658 18.9507 285.478 18.9507C285.298 18.9507 285.298 19.2323 285.478 19.2323ZM291.666 18.3876C291.846 18.3876 291.846 18.106 291.666 18.106C291.486 18.106 291.486 18.3876 291.666 18.3876ZM322.019 17.8245C322.199 17.8245 322.199 17.5429 322.019 17.5429C321.839 17.5429 321.839 17.8245 322.019 17.8245ZM323.988 17.5429L324.404 17.1262L324.269 16.991L323.853 17.4077L323.988 17.5429ZM317.53 14.7273C317.71 14.7273 317.71 14.4457 317.53 14.4457C317.35 14.4457 317.35 14.7273 317.53 14.7273ZM339.176 11.9229L339.592 11.5062L339.457 11.3711L339.041 11.7878L339.176 11.9229ZM346.196 10.5151C346.376 10.5151 346.376 10.2336 346.196 10.2336C346.016 10.2336 346.016 10.5151 346.196 10.5151ZM345.634 10.5151C345.814 10.5151 345.814 10.2336 345.634 10.2336C345.454 10.2336 345.454 10.5151 345.634 10.5151ZM357.863 7.71079C358.009 8.27391 358.459 8.34149 358.988 8.27391C358.842 7.71079 358.392 7.64321 357.863 7.71079ZM368.405 7.71079C368.585 7.71079 368.585 7.42923 368.405 7.42923C368.225 7.42923 368.225 7.71079 368.405 7.71079ZM364.478 7.42923C364.658 7.42923 364.658 7.14767 364.478 7.14767C364.298 7.14767 364.298 7.42923 364.478 7.42923Z" fill="#A5D1B9"/>
<path d="M320.759 13.8938L320.478 13.8938C320.478 13.8938 320.433 13.6122 320.613 13.6122L320.748 13.8938L320.759 13.8938Z" fill="#A5D1B9"/>
<path d="M319.072 14.1754L319.353 14.4457L319.072 14.4457L319.072 14.1754Z" fill="#A5D1B9"/>
<path d="M333.686 11.6414C333.596 11.6639 333.439 11.6076 333.405 11.6414C333.416 11.6301 333.371 11.3598 333.54 11.3598L333.675 11.6414L333.686 11.6414Z" fill="#A5D1B9"/>
<path d="M167.552 40.5858C167.552 40.7773 167.552 40.9575 167.552 41.1489L166.989 41.1489C166.989 40.9237 167.192 40.8561 167.27 40.5858C167.361 40.5971 167.462 40.5858 167.552 40.5858Z" fill="#A5D1B9"/>
<path d="M235.02 29.3459C235.02 29.3459 235.223 29.3797 235.302 29.3459C235.437 29.6612 235.673 29.8189 235.583 30.1906L235.302 30.1906L235.02 29.3459Z" fill="#A5D1B9"/>
<path d="M8.14522 22.0365L8.14522 21.7549L8.85396 21.4734L9.55151 21.7549L9.55151 22.0365L8.14522 22.0365Z" fill="#A5D1B9"/>
<path d="M349.718 12.4861L350.28 12.4861L350.28 12.2045L349.718 12.2045L349.718 12.4861Z" fill="#A5D1B9"/>
<path d="M139.01 36.092C138.83 36.092 138.83 35.8105 139.01 35.8105C139.19 35.8105 139.19 36.092 139.01 36.092Z" fill="#A5D1B9"/>
<path d="M141.26 36.092C141.08 36.092 141.08 35.8105 141.26 35.8105C141.44 35.8105 141.44 36.092 141.26 36.092Z" fill="#A5D1B9"/>
<path d="M143.51 36.3737C143.33 36.3737 143.33 36.0921 143.51 36.0921C143.69 36.0921 143.69 36.3737 143.51 36.3737Z" fill="#A5D1B9"/>
<path d="M144.072 36.3737C143.892 36.3737 143.892 36.0921 144.072 36.0921C144.252 36.0921 144.252 36.3737 144.072 36.3737Z" fill="#A5D1B9"/>
<path d="M130.302 37.2184C130.122 37.2184 130.122 36.9368 130.302 36.9368C130.482 36.9368 130.482 37.2184 130.302 37.2184Z" fill="#A5D1B9"/>
<path d="M150.26 37.7815C150.08 37.7815 150.08 37.4999 150.26 37.4999C150.44 37.4999 150.44 37.7815 150.26 37.7815Z" fill="#A5D1B9"/>
<path d="M153.073 38.3446C152.893 38.3446 152.893 38.063 153.073 38.063C153.253 38.063 153.253 38.3446 153.073 38.3446Z" fill="#A5D1B9"/>
<path d="M343.103 13.8938C342.923 13.8938 342.923 13.6122 343.103 13.6122C343.283 13.6122 343.283 13.8938 343.103 13.8938Z" fill="#A5D1B9"/>
<path d="M342.54 14.1754C342.36 14.1754 342.36 13.8939 342.54 13.8939C342.72 13.8939 342.72 14.1754 342.54 14.1754Z" fill="#A5D1B9"/>
<path d="M187.645 40.3042C187.465 40.3042 187.465 40.0226 187.645 40.0226C187.825 40.0226 187.825 40.3042 187.645 40.3042Z" fill="#A5D1B9"/>
<path d="M164.312 40.5858C164.132 40.5858 164.132 40.3043 164.312 40.3043C164.492 40.3043 164.492 40.5858 164.312 40.5858Z" fill="#A5D1B9"/>
<path d="M179.5 41.1489C179.32 41.1489 179.32 40.8674 179.5 40.8674C179.68 40.8674 179.68 41.1489 179.5 41.1489Z" fill="#A5D1B9"/>
<path d="M148.145 6.86611L146.604 6.30299C146.21 6.65212 145.647 6.94495 145.062 6.86611L145.062 6.02143L147.031 5.45831L147.031 6.02143L147.729 5.73987C148.077 6.07774 148.314 6.13405 147.864 6.43814L148.707 6.57329L148.145 5.7286L149.551 5.44704L149.686 6.01016L150.665 5.44704L150.384 5.03033L151.925 5.44704L151.79 4.88392L152.634 4.88392L152.915 6.01016C152.454 6.16784 152.353 5.76239 152.218 5.7286C151.835 5.62724 151.531 6.40435 151.092 5.7286L151.227 6.29172C150.766 6.14531 150.665 6.52824 150.53 6.57329C150.305 6.64086 149.956 6.52824 149.686 6.57329C149.101 6.67465 149.27 6.57329 149.124 6.57329C149.067 6.57329 148.842 7.01252 148.426 6.85485L148.291 7.41797L148.156 6.85485L148.145 6.86611Z" fill="#A5D1B9"/>
<path d="M31.4787 4.61357C30.9274 4.71493 30.6686 5.90875 30.0724 5.03028L30.9161 4.18559L30.4999 3.48732C30.1511 3.98287 29.5549 3.67879 29.0936 3.76889C28.4636 3.88151 28.8798 4.02792 27.9686 3.76889C27.7435 3.70131 26.9448 4.29822 26.4273 4.05045L26.9898 4.61357L26.011 4.89513L26.011 4.33201L25.3134 4.74872L25.5947 3.48732L26.8547 3.76889L28.261 2.9242C28.9361 3.4648 30.1399 3.12693 31.0736 3.20576C31.1749 3.20576 31.2536 3.47606 31.3549 3.48732C32.0412 3.5549 32.7725 3.44227 33.4587 3.48732L32.4799 4.05045L31.2199 3.76889L31.7824 4.89513L32.1987 4.61357L33.1775 5.17669L31.9174 5.45825L31.5012 4.61357L31.4787 4.61357Z" fill="#A5D1B9"/>
<path d="M139.156 7.71068L139.156 8.2738L138.875 7.71068C138.177 8.34138 137.84 7.33902 137.333 7.99224L135.23 7.85709L135.511 7.15882L136.49 7.72194C136.636 7.36155 137.153 7.47417 137.187 7.44038C137.221 7.4066 137.165 6.75337 137.603 6.5957L137.468 7.15882C137.693 7.1363 137.963 7.20387 138.166 7.15882C138.683 7.0462 139.156 6.74211 139.853 7.44038L141.114 6.87726C141.057 7.17008 140.832 7.17009 140.832 7.57553C140.832 8.00351 141.226 8.07108 140.967 8.2738L140.405 7.71068L139.145 7.71068L139.156 7.71068Z" fill="#A5D1B9"/>
<path d="M116.948 10.7966C116.948 10.6727 116.937 10.5601 117.083 10.515C117.229 10.515 117.364 10.515 117.499 10.515L117.364 10.7966C117.229 10.8417 117.06 10.7628 116.948 10.7966Z" fill="#A5D1B9"/>
<path d="M114.979 11.3597C115.665 11.4385 115.71 11.3597 116.104 11.0781C116.453 10.8304 116.655 10.8754 116.948 10.7966C116.948 11.202 117.904 11.1345 118.208 11.0781C118.298 11.0669 118.489 10.6389 119.051 10.7966C119.13 10.8191 119.614 11.2133 119.333 11.3597L118.77 11.9228C118.298 11.2246 117.825 11.889 117.645 11.9228C117.004 12.0355 115.271 12.0242 114.979 11.3597Z" fill="#A5D1B9"/>
<path d="M43.0102 7.99225L43.2915 7.99225C43.2915 8.36391 43.0102 8.36391 43.0102 7.99225Z" fill="#A5D1B9"/>
<path d="M114.979 11.3598C114.495 11.3035 114.405 11.1345 114.135 11.2246C113.64 11.3823 113.235 11.4048 112.729 11.3598L113.854 12.2044C113.359 12.2495 112.796 12.1369 112.312 12.2044C111.086 12.3621 110.13 12.8126 108.937 12.486C108.679 12.4184 107.745 13.0153 107.531 13.0491C107.205 13.1054 105.832 13.1167 105.562 13.0491C105.483 13.0266 105 12.6324 105.281 12.486L106.26 11.9229C105.416 11.9567 104.268 11.6075 104.291 12.7676L105.135 13.0491L103.312 13.3307L102.468 12.7676L102.052 13.0491C102.153 12.3734 101.917 11.8553 101.208 11.9229L101.625 12.7676L101.208 13.0491L101.771 13.3307L100.792 12.7676L99.2508 13.3307C99.3633 12.8802 100.185 12.6887 99.3858 12.2044C99.262 12.1256 98.7333 11.9454 98.542 11.9229C98.272 11.8891 97.9795 11.9454 97.6982 11.9229L97.1357 12.486C96.7307 11.9905 96.2919 12.0355 96.4382 12.7676L97.6982 13.0491L98.3958 12.7676L98.5308 12.2044L99.2283 13.0491L98.3845 13.1843C97.5295 13.342 96.3932 13.4996 95.4369 13.0491L94.5931 13.6123L92.4893 13.3307L93.8956 12.7676L92.9168 12.2044L91.938 12.486L92.5005 12.7676L92.2193 13.6123C91.6455 13.5447 90.9368 13.7136 90.3967 13.6123C89.1254 13.387 87.0554 13.646 85.8966 13.3307C85.5253 13.2293 85.4466 13.5897 85.3341 13.6123C84.5128 13.8037 83.9278 12.914 83.3653 13.6123L82.6677 13.1955L82.949 12.7788C82.634 12.745 82.2515 12.8351 81.9702 12.7788C80.8339 12.5536 79.2926 12.2157 78.3139 12.4973C78.0213 12.5761 77.5601 12.0017 77.0538 12.2157C77.3688 13.1505 78.4601 12.6662 79.1576 12.7788C79.2701 12.8014 79.3489 13.0604 79.4389 13.0604C79.5289 13.0604 79.6076 12.8014 79.7201 12.7788C80.4627 12.6549 81.0027 12.9703 81.689 13.0604C82.4427 13.1618 81.8915 13.3194 82.3865 13.7587L80.8452 13.342C80.6202 13.7699 80.0914 13.3645 79.7201 13.0604L79.1576 13.6235C78.7526 13.5785 78.2913 13.387 78.0326 13.342C76.7275 13.128 75.3325 13.9952 74.3762 12.7788L72.9699 13.342L72.1261 12.7788C71.7999 12.8464 70.0111 12.8126 69.8761 12.7788C68.6835 12.4522 66.6922 12.5761 65.3759 12.2157C65.1284 12.1481 64.8247 11.3598 64.1159 11.6526L63.9809 12.2157L62.5746 11.371C62.102 12.0242 61.8995 11.4048 61.7308 11.371C61.022 11.2133 60.2795 11.6976 59.762 10.8079L59.627 11.371L59.2107 11.0895C58.8394 11.6188 58.8619 11.1458 58.6482 11.0895C58.3669 11.0106 58.0407 11.2246 57.8044 10.8079L57.3882 11.0895L57.3882 10.5263L56.4094 10.8079C55.3743 10.0421 54.1031 9.98574 53.0343 10.2448L51.628 9.40009L51.3467 9.96322C51.0542 9.62534 50.6154 9.31 50.2217 9.11853C49.5241 8.78066 50.1317 9.70418 49.9404 9.68166L49.0966 8.83697C48.8154 9.41136 48.2866 8.62299 47.9716 8.55541C47.3753 8.42026 46.2953 8.93833 45.4403 8.55541L44.034 7.42917L44.169 8.27385C43.854 8.33016 43.5614 8.16123 43.3252 7.99229C43.3139 7.99229 43.3589 7.71073 43.1902 7.71073C43.0102 7.75578 43.0664 7.98103 43.0552 7.99229C42.9989 8.03734 42.7064 8.07113 42.6389 8.27385L40.6701 7.14761L39.9726 7.71073L39.8376 7.14761L39.5563 7.42917C38.9713 7.57558 38.825 7.17013 38.7125 7.14761C38.1163 7.01246 37.475 6.95614 37.025 7.14761C36.4062 6.21282 35.2812 6.83226 34.4936 6.86605L33.9311 6.30292L33.3686 6.86605L32.1086 6.30292L32.2436 5.7398L33.5036 6.02136L33.2223 5.60465L33.7849 4.62482C33.4361 4.80502 32.8061 4.17432 32.9411 4.0617C33.6611 4.12927 34.0549 4.09548 34.4824 3.49857L35.3261 4.0617L36.305 3.78014C36.3612 4.02791 35.7874 4.21937 36.1699 4.34326C36.6537 4.51219 37.2612 4.60229 37.5762 4.90638L37.7113 4.34326L38.2738 4.34326L38.1387 3.78014C38.5775 4.29821 39.4325 3.9716 40.1076 4.0617C41.2213 4.19685 42.6051 4.4221 43.7639 4.62482C45.7215 4.96269 48.6803 5.22173 50.5142 6.31419C51.4367 6.17904 52.978 6.39302 54.1705 6.59575C54.9356 6.7309 56.1281 7.31654 56.7019 7.44043C57.1406 7.53053 57.7707 7.37286 58.2432 7.44043L58.2432 8.00355C59.132 7.33907 59.8632 8.00355 60.7745 8.00355L60.7745 8.56668L61.0558 8.56668L61.0558 8.00355C61.517 7.85714 61.5958 8.2288 61.7533 8.28511C62.9458 8.70182 64.4309 8.56668 65.6909 8.84824C69.1898 9.63661 72.2274 9.54651 75.9513 10.1096L76.6488 9.97448L76.5138 10.5376L77.3576 10.4025L77.9201 10.5376L77.9201 9.97448C78.4151 9.89564 78.6513 10.4137 79.1801 10.256C80.3952 9.88438 81.8577 10.47 83.1177 10.256C83.7928 10.1434 85.9641 10.6052 86.2116 10.5376C88.1692 9.99701 90.1942 10.5827 91.8368 10.8192C92.6243 9.81681 93.9969 10.4137 94.9306 10.256C96.2132 10.0421 96.9782 10.256 98.0245 10.8192C98.3395 10.9881 98.4745 11.2471 99.0033 11.1007L98.722 10.256C99.2283 10.3236 99.4645 9.82807 99.9821 9.97448C100.5 10.1209 99.9821 10.7178 101.388 10.256C102.795 9.79429 103.965 10.2786 105.326 9.97448C106.091 9.80555 108.836 9.4902 109.545 9.69292C110.107 9.8506 110.344 9.32126 110.67 9.41136L111.367 9.69292L111.086 10.1096C111.435 10.3912 111.435 10.3912 111.086 10.6728L112.065 11.6526L111.367 10.8079L111.93 10.3912L111.367 9.97448L112.492 10.1096L113.336 10.8079L112.639 9.96322C112.357 9.81681 112.841 9.42263 112.92 9.4001C113.381 9.27621 113.798 9.45641 114.18 9.68166L114.18 9.11854C114.585 9.07349 115.069 9.18611 115.44 9.11854C115.609 9.08475 116.768 8.55542 116.846 8.55542C116.914 8.55542 117.038 8.93834 117.409 8.83698C117.544 8.80319 117.668 8.39774 117.971 8.55542L118.669 9.68166L117.825 9.26495L118.804 10.2448C119.108 9.83934 119.344 9.83934 119.648 10.2448L119.513 9.68166C120.008 9.77176 120.435 9.4001 120.356 8.83698L120.638 9.4001C120.705 9.47894 121.065 8.9496 121.482 9.4001L121.482 8.83698L122.325 8.70183C122.325 8.51037 121.425 9.11854 121.763 8.42027C121.954 8.01482 122.494 8.04861 122.742 7.722L122.742 8.28512L124.992 7.722L125.273 8.56668L125.408 7.58685L126.105 7.4517C126.252 7.65442 126.544 7.82336 126.668 8.01482C126.904 8.38648 126.668 8.75814 126.949 8.8595L127.512 7.4517L127.928 8.43153L127.928 8.84824L127.084 8.84824L127.084 9.41136L126.24 9.41136L126.803 8.99466L125.959 8.01482L125.959 9.70419L125.262 9.42263C124.587 10.1659 123.765 9.73797 123.293 9.70419C123.237 9.70419 122.798 10.1997 122.314 9.98575L122.314 10.8304L123.439 11.112C123 11.0895 122.46 11.2809 122.179 10.8304C121.853 10.3349 121.279 9.18612 121.2 10.5489L120.221 10.2673L120.086 10.8304L120.649 10.8304L120.086 11.3936L120.086 10.8304C119.636 10.9881 119.49 10.5714 119.389 10.5489C118.939 10.47 118.061 10.5151 117.566 10.5489L116.441 9.98575L116.16 11.112L114.754 10.9768C114.945 11.0782 114.968 11.2471 115.035 11.3936L114.979 11.3598ZM85.7391 13.0491C86.2678 13.1167 86.5491 13.0604 86.8641 12.6324L86.7291 12.4973L85.7503 12.7788L85.7503 13.0604L85.7391 13.0491ZM85.1765 12.7676L84.479 12.486L84.344 12.6212L85.1878 13.0379L85.1878 12.7563L85.1765 12.7676ZM102.322 12.486L103.02 12.7676L103.717 12.486L103.717 12.2044L102.311 12.2044L102.311 12.486L102.322 12.486ZM95.5832 12.7676L96.1457 12.7676L96.1457 12.486L95.5832 12.486L95.5832 12.7676ZM95.1556 12.7676C95.3356 12.7676 95.3356 12.486 95.1556 12.486C94.9756 12.486 94.9756 12.7676 95.1556 12.7676ZM91.218 12.7676C91.398 12.7676 91.398 12.486 91.218 12.486C91.038 12.486 91.038 12.7676 91.218 12.7676ZM89.6767 12.7676L90.5205 12.7676L90.5205 12.486L89.6767 12.486L89.6767 12.7676ZM87.9891 12.2044L88.4054 12.7676L89.3842 12.7676L89.3842 12.486C88.8667 12.5198 88.5854 12.058 87.9779 12.2044L87.9891 12.2044ZM106.541 12.2044C106.879 12.1481 107.047 12.2044 107.239 12.486L107.655 11.9229L106.53 11.9229L106.53 12.2044L106.541 12.2044ZM100.781 12.486L100.916 12.3509L100.5 11.9341L100.365 12.0693L100.781 12.486ZM75.4787 12.486C75.6587 12.486 75.6587 12.2044 75.4787 12.2044C75.2987 12.2044 75.2987 12.486 75.4787 12.486ZM74.0724 12.486C74.2524 12.486 74.2524 12.2044 74.0724 12.2044C73.8924 12.2044 73.8924 12.486 74.0724 12.486ZM110.479 12.2044L111.322 12.2044L111.322 11.6413L110.479 11.6413L110.479 12.2044ZM109.219 12.2044C109.399 12.2044 109.399 11.9229 109.219 11.9229C109.039 11.9229 109.039 12.2044 109.219 12.2044ZM107.947 12.2044L108.51 12.2044L108.51 11.9229L107.947 11.9229L107.947 12.2044ZM72.6661 12.2044L72.8011 12.0693L72.3849 11.6526L72.2499 11.7877L72.6661 12.2044ZM71.9686 12.2044L71.5524 11.6413C71.2486 12.058 70.7311 12.058 70.4273 11.6413L70.2923 11.7765C70.6973 12.3846 71.3049 12.1819 71.9799 12.1932L71.9686 12.2044ZM102.468 11.9229C102.648 11.9229 102.648 11.6413 102.468 11.6413C102.288 11.6413 102.288 11.9229 102.468 11.9229ZM69.8535 11.9229C70.0336 11.9229 70.0336 11.6413 69.8535 11.6413C69.6735 11.6413 69.6735 11.9229 69.8535 11.9229ZM68.3123 11.9229L68.8748 11.9229L68.8748 11.6413L68.3123 11.6413L68.3123 11.9229ZM70.9786 11.6413C71.1586 11.6413 71.1586 11.3598 70.9786 11.3598C70.7986 11.3598 70.7986 11.6413 70.9786 11.6413ZM67.1872 11.6413L67.7497 11.6413L67.7497 11.3598L67.1872 11.3598L67.1872 11.6413ZM68.166 11.3598C68.346 11.3598 68.346 11.0782 68.166 11.0782C67.986 11.0782 67.986 11.3598 68.166 11.3598ZM88.968 11.0782C89.148 11.0782 89.148 10.7966 88.968 10.7966C88.7879 10.7966 88.7879 11.0782 88.968 11.0782ZM74.9162 10.7966C75.0962 10.7966 75.0962 10.5151 74.9162 10.5151C74.7362 10.5151 74.7362 10.7966 74.9162 10.7966ZM56.3644 10.2335C56.5444 10.2335 56.5444 9.95195 56.3644 9.95195C56.1844 9.95195 56.1844 10.2335 56.3644 10.2335ZM115.395 9.95196C115.575 9.95196 115.575 9.6704 115.395 9.6704C115.215 9.6704 115.215 9.95196 115.395 9.95196ZM122.708 9.38884C122.888 9.38884 122.888 9.10728 122.708 9.10728C122.528 9.10728 122.528 9.38884 122.708 9.38884ZM124.395 9.10728C124.575 9.10728 124.575 8.82572 124.395 8.82572C124.215 8.82572 124.215 9.10728 124.395 9.10728ZM52.4267 9.10727C52.6067 9.10727 52.6067 8.82571 52.4267 8.82571C52.2467 8.82571 52.2467 9.10727 52.4267 9.10727ZM50.0417 8.54415L51.0204 8.82571L51.1554 8.69056C50.8404 8.26259 50.5592 8.20628 50.0304 8.27385L50.0304 8.55541L50.0417 8.54415ZM45.8228 7.71073L46.3853 7.71073L46.3853 7.42917L45.8228 7.42917L45.8228 7.71073ZM45.114 7.71073C45.294 7.71073 45.294 7.42917 45.114 7.42917C44.934 7.42917 44.934 7.71073 45.114 7.71073ZM49.0516 7.14761C49.2316 7.14761 49.2316 6.86605 49.0516 6.86605C48.8716 6.86605 48.8716 7.14761 49.0516 7.14761ZM39.7813 6.86605C39.9613 6.86605 39.9613 6.58449 39.7813 6.58449C39.6013 6.58449 39.6013 6.86605 39.7813 6.86605ZM37.6663 6.58449L38.2288 6.58449L38.2288 6.30292L37.6663 6.30292L37.6663 6.58449ZM33.7286 5.7398C34.1786 5.59339 34.7524 6.24661 34.9887 6.30292C35.6524 6.44934 36.6537 6.20156 37.3737 6.30292C37.3962 5.7398 36.485 6.11146 36.1137 6.02136C36.0012 5.99884 35.9449 5.77359 35.8324 5.7398C35.4612 5.62718 35.3599 6.12273 34.9887 6.02136L33.7286 5.7398Z" fill="#A5D1B9"/>
<path d="M17.4269 4.89514L17.7082 4.05046L19.3958 3.7689L19.3958 3.20578L21.6458 3.48734C21.6683 4.0392 20.757 3.70132 20.3858 3.7689C20.1833 3.80268 19.2045 4.28697 18.9795 4.33202C18.6982 4.38833 18.3044 4.29823 18.0007 4.33202L17.4382 4.89514L17.4269 4.89514Z" fill="#A5D1B9"/>
<path d="M132.406 7.42915L132.968 7.71071L132.968 7.14759L134.656 6.86603L134.093 7.5643L133.249 7.42915L134.375 8.27383L133.677 8.83696C132.912 8.97211 132.597 8.69055 132.136 8.13869L132.417 7.44041L132.406 7.42915Z" fill="#A5D1B9"/>
<path d="M21.6457 5.17664L22.4895 4.89507L22.2082 3.48727C22.8495 3.94903 22.9845 3.75757 23.4683 3.20571L23.4683 3.76883L24.0308 3.48727L24.4471 3.76883L24.5821 2.92415C25.3246 3.40843 25.7183 4.57973 24.5821 3.76883L23.322 4.4671L24.4471 4.60225L21.6345 5.16537L21.6457 5.17664Z" fill="#A5D1B9"/>
<path d="M153.77 5.45831L153.77 5.0416L153.208 4.62489L154.749 4.62489C155.075 5.14296 155.165 4.53479 155.728 4.62489L155.728 5.46957C155.165 5.42452 154.524 5.66103 154.186 5.18801L153.77 5.46957L153.77 5.45831Z" fill="#A5D1B9"/>
<path d="M159.958 5.45825L159.958 4.33201L161.645 4.33201L161.083 5.03028L161.218 5.44699C160.835 4.94018 160.43 5.16543 159.958 5.44699L159.958 5.45825Z" fill="#A5D1B9"/>
<path d="M175.978 1.79793L177.103 1.52763L176.822 1.09965L178.51 0.964505L177.103 1.94434L175.978 1.79793Z" fill="#A5D1B9"/>
<path d="M158.551 6.02136L159.114 4.89512L158.27 4.61356L159.53 4.332L159.395 5.31183L158.551 6.02136Z" fill="#A5D1B9"/>
<path d="M143.375 6.86602L143.375 6.3029C144.05 6.20154 144.567 6.43805 144.5 7.14758L143.375 6.86602Z" fill="#A5D1B9"/>
<path d="M120.041 8.54419L120.739 7.99233L121.448 8.26263L121.448 8.54419L120.041 8.54419Z" fill="#A5D1B9"/>
<path d="M141.125 6.02137L141.969 6.30293L141.969 6.86605C141.428 6.94489 141.046 6.56196 141.125 6.02137Z" fill="#A5D1B9"/>
<path d="M28.2497 5.54834L27.8447 5.30056L28.5647 4.09548L28.9697 4.34326L28.2497 5.54834Z" fill="#A5D1B9"/>
<path d="M140.562 9.10733C140 9.20869 139.91 8.58926 139.583 9.10733L139.302 8.54421C139.651 9.09607 139.73 8.43158 140.146 8.54421L140.562 9.10733Z" fill="#A5D1B9"/>
<path d="M150.957 7.71069L150.957 7.14757C151.295 7.23767 151.374 7.54176 151.801 7.42913L151.801 7.71069L150.957 7.71069Z" fill="#A5D1B9"/>
<path d="M139.437 6.30297L140 6.30297L140 6.86609L139.437 6.30297Z" fill="#A5D1B9"/>
<path d="M156.864 5.17675L156.301 5.73987L156.02 5.03033L156.166 4.89519L156.864 5.17675Z" fill="#A5D1B9"/>
<path d="M118.916 8.82574L119.051 8.26262L120.042 8.82574L120.042 9.1073L118.916 8.82574Z" fill="#A5D1B9"/>
<path d="M141.406 8.82574L141.406 8.26262L141.687 8.26262L141.26 9.1073L140.843 8.69059L141.406 8.82574Z" fill="#A5D1B9"/>
<path d="M157.427 6.02136L157.708 6.02136L157.708 5.45824L157.427 5.45824L157.427 6.02136Z" fill="#A5D1B9"/>
<path d="M12.9267 5.17664L13.4893 5.17664L13.4893 4.89507L12.9267 4.89507L12.9267 5.17664Z" fill="#A5D1B9"/>
<path d="M15.458 4.33203L16.0205 4.33203L16.0205 4.05047L15.458 4.05047L15.458 4.33203Z" fill="#A5D1B9"/>
<path d="M162.208 5.17663L162.208 4.33195C162.973 4.45584 163.535 4.1968 164.177 4.05039L164.042 3.20571C164.638 3.85893 165.471 3.31833 166.146 3.20571L166.146 3.76883L166.989 3.76883L166.989 3.20571C167.451 3.20571 168.857 2.64258 169.093 2.64258C169.183 2.64258 169.284 2.92415 169.374 2.92415C169.431 2.92415 170.049 2.48491 170.218 2.36102L170.083 2.92415L171.343 2.36102C171.748 2.86783 172.536 2.57501 173.166 2.64258L172.603 3.34085L172.885 3.62242L171.197 3.20571L171.332 3.76883L170.916 3.48727L170.916 4.05039C170.466 3.90398 169.948 4.53467 169.656 4.61351C169.419 4.68109 169.071 4.5572 168.812 4.61351C168.711 4.63604 168.643 4.86129 168.531 4.89507C168.238 4.97391 167.777 4.39952 167.271 4.61351L167.406 3.76883L166.843 4.33195L166.281 4.05039L165.864 4.61351L166.427 4.89507C165.932 4.66982 165.493 5.17663 165.448 5.17663C165.403 5.17663 165.167 4.7374 164.604 4.89507C164.244 4.99643 163.918 5.07527 163.479 5.17663C163.119 5.25547 162.613 5.12032 162.219 5.17663L162.208 5.17663ZM168.114 4.33195L168.677 4.33195L168.677 4.05039L168.114 4.05039L168.114 4.33195ZM169.093 4.05039C169.273 4.05039 169.273 3.76883 169.093 3.76883C168.913 3.76883 168.913 4.05039 169.093 4.05039ZM170.499 3.76883C170.679 3.76883 170.679 3.48727 170.499 3.48727C170.319 3.48727 170.319 3.76883 170.499 3.76883ZM168.531 3.48727C168.711 3.48727 168.711 3.20571 168.531 3.20571C168.351 3.20571 168.351 3.48727 168.531 3.48727Z" fill="#A5D1B9"/>
<path d="M173.593 3.20581C173.413 3.20581 173.413 2.92425 173.593 2.92425C173.773 2.92425 173.773 3.20581 173.593 3.20581Z" fill="#A5D1B9"/>
<path d="M15.8855 3.4873C15.7055 3.4873 15.7055 3.20574 15.8855 3.20574C16.0655 3.20574 16.0655 3.4873 15.8855 3.4873Z" fill="#A5D1B9"/>
<path d="M16.7293 4.05042C16.5492 4.05042 16.5492 3.76885 16.7293 3.76885C16.9093 3.76885 16.9093 4.05042 16.7293 4.05042Z" fill="#A5D1B9"/>
<path d="M36.6875 4.05042C36.5075 4.05042 36.5075 3.76885 36.6875 3.76885C36.8675 3.76885 36.8675 4.05042 36.6875 4.05042Z" fill="#A5D1B9"/>
<path d="M37.25 4.05042C37.07 4.05042 37.07 3.76885 37.25 3.76885C37.43 3.76885 37.43 4.05042 37.25 4.05042Z" fill="#A5D1B9"/>
<path d="M21.7808 4.33203C21.6008 4.33203 21.6008 4.05047 21.7808 4.05047C21.9608 4.05047 21.9608 4.33203 21.7808 4.33203Z" fill="#A5D1B9"/>
<path d="M12.7918 4.61353C12.6117 4.61353 12.6117 4.33196 12.7918 4.33196C12.9718 4.33196 12.9718 4.61353 12.7918 4.61353Z" fill="#A5D1B9"/>
<path d="M27.406 4.61353C27.226 4.61353 27.226 4.33196 27.406 4.33196C27.586 4.33196 27.586 4.61353 27.406 4.61353Z" fill="#A5D1B9"/>
<path d="M15.6043 4.89514C15.4242 4.89514 15.4242 4.61358 15.6043 4.61358C15.7843 4.61358 15.7843 4.89514 15.6043 4.89514Z" fill="#A5D1B9"/>
<path d="M157.843 4.89514C157.663 4.89514 157.663 4.61358 157.843 4.61358C158.023 4.61358 158.023 4.89514 157.843 4.89514Z" fill="#A5D1B9"/>
<path d="M144.635 6.02136C144.455 6.02136 144.455 5.7398 144.635 5.7398C144.815 5.7398 144.815 6.02136 144.635 6.02136Z" fill="#A5D1B9"/>
<path d="M153.635 6.58447L153.208 6.1565L153.354 6.02135L153.77 6.43806L153.635 6.58447Z" fill="#A5D1B9"/>
<path d="M151.948 6.58447C151.768 6.58447 151.768 6.30291 151.948 6.30291C152.128 6.30291 152.128 6.58447 151.948 6.58447Z" fill="#A5D1B9"/>
<path d="M146.885 7.14758C146.705 7.14758 146.705 6.86602 146.885 6.86602C147.065 6.86602 147.065 7.14758 146.885 7.14758Z" fill="#A5D1B9"/>
<path d="M131.708 7.4292C131.528 7.4292 131.528 7.14764 131.708 7.14764C131.888 7.14764 131.888 7.4292 131.708 7.4292Z" fill="#A5D1B9"/>
<path d="M146.041 7.99231L145.343 7.28278L145.479 7.14763L146.176 7.8459L146.041 7.99231Z" fill="#A5D1B9"/>
<path d="M60.302 7.71069C60.122 7.71069 60.122 7.42913 60.302 7.42913C60.482 7.42913 60.482 7.71069 60.302 7.71069Z" fill="#A5D1B9"/>
<path d="M126.927 7.71069C126.747 7.71069 126.747 7.42913 126.927 7.42913C127.107 7.42913 127.107 7.71069 126.927 7.71069Z" fill="#A5D1B9"/>
<path d="M141.822 7.71069C141.642 7.71069 141.642 7.42913 141.822 7.42913C142.002 7.42913 142.002 7.71069 141.822 7.71069Z" fill="#A5D1B9"/>
<path d="M130.021 8.54419C129.841 8.54419 129.841 8.26263 130.021 8.26263C130.201 8.26263 130.201 8.54419 130.021 8.54419Z" fill="#A5D1B9"/>
<path d="M128.614 9.1073C128.434 9.1073 128.434 8.82574 128.614 8.82574C128.794 8.82574 128.794 9.1073 128.614 9.1073Z" fill="#A5D1B9"/>
<path d="M78.2913 9.67041C78.1113 9.67041 78.1113 9.38885 78.2913 9.38885C78.4713 9.38885 78.4713 9.67041 78.2913 9.67041Z" fill="#A5D1B9"/>
<path d="M112.02 9.67041C111.84 9.67041 111.84 9.38885 112.02 9.38885C112.2 9.38885 112.2 9.67041 112.02 9.67041Z" fill="#A5D1B9"/>
</g>
<defs>
<clipPath id="clip0_2021_1553">
<rect width="377" height="57" fill="white" transform="translate(377 57) rotate(-180)"/>
</clipPath>
</defs>
</svg>
