<svg width="440" height="45" viewBox="0 0 440 45" fill="none" xmlns="http://www.w3.org/2000/svg">
<g clip-path="url(#clip0_2025_6338)">
<path d="M436.435 18.6398C436.435 18.6398 436.325 19.4165 436.826 19.6029L435.262 19.0281V18.2515C435.637 18.5932 436.388 18.5932 436.435 18.6398Z" fill="#A5D1B9"/>
<path d="M313.75 8.57422V9.72368H313.562L312.968 9.14895V8.57422H313.75Z" fill="#A5D1B9"/>
<path d="M355.562 5.0794H354.78V4.87747L355.562 4.30273V5.0794Z" fill="#A5D1B9"/>
<path d="M3.12754 42.6855H2.3457V43.0739H3.12754V42.6855Z" fill="#A5D1B9"/>
<path d="M310.231 9.72378V10.1121L309.059 9.53738L309.262 9.33545L310.231 9.72378Z" fill="#A5D1B9"/>
<path d="M317.08 7.40918C317.33 7.40918 317.33 7.79751 317.08 7.79751C316.83 7.79751 316.83 7.40918 317.08 7.40918Z" fill="#A5D1B9"/>
<path d="M312.389 9.33545C312.639 9.33545 312.639 9.72378 312.389 9.72378C312.139 9.72378 312.139 9.33545 312.389 9.33545Z" fill="#A5D1B9"/>
<path d="M434.684 17.4907C434.934 17.4907 434.934 17.8791 434.684 17.8791C434.434 17.8791 434.434 17.4907 434.684 17.4907Z" fill="#A5D1B9"/>
<path d="M64.6574 31.4395C64.9076 31.4395 64.9076 31.8278 64.6574 31.8278C64.4072 31.8278 64.4072 31.4395 64.6574 31.4395Z" fill="#A5D1B9"/>
<path d="M20.9064 37.249C21.1566 37.249 21.1566 37.6374 20.9064 37.6374C20.6562 37.6374 20.6562 37.249 20.9064 37.249Z" fill="#A5D1B9"/>
<path d="M0.578556 43.0737L0.781833 43.2601L0.18764 43.8504L0 43.6485L0.578556 43.0737Z" fill="#A5D1B9"/>
<path d="M3.70571 43.0737C3.95589 43.0737 3.95589 43.4621 3.70571 43.4621C3.45552 43.4621 3.45552 43.0737 3.70571 43.0737Z" fill="#A5D1B9"/>
<path d="M286.792 21.3581C286.792 21.3581 286.37 21.4513 286.401 20.9697C286.933 21.2027 286.761 21.3425 286.792 21.3581Z" fill="#A5D1B9"/>
<path d="M295.392 14.7721C294.798 15.0362 294.876 16.1701 293.829 15.9371L294.61 14.3838C295.22 14.2906 295.205 14.3372 295.392 14.7721Z" fill="#A5D1B9"/>
<path d="M280.146 5.46777H280.928C281.147 5.91824 280.35 6.02697 280.146 5.85611C280.084 5.80951 280.209 5.52991 280.146 5.46777Z" fill="#A5D1B9"/>
<path d="M301.647 15.1606H302.038C302.038 15.6732 301.647 15.6732 301.647 15.1606Z" fill="#A5D1B9"/>
<path d="M180.901 19.0285C180.776 19.0595 180.635 19.0129 180.51 19.0285C180.525 19.0129 180.463 18.6401 180.697 18.6401C180.932 18.7178 180.869 18.8576 180.885 19.0285H180.901Z" fill="#A5D1B9"/>
<path d="M79.325 30.2746C79.1999 30.3056 79.0592 30.2435 78.9341 30.2746C78.9654 30.1037 78.8872 29.9639 79.1217 29.8862C79.3563 29.9639 79.2937 30.1037 79.3094 30.2746H79.325Z" fill="#A5D1B9"/>
<path d="M288.746 20.5815C289.794 20.9233 290.482 22.1815 289.325 22.9115C289.278 22.9426 288.481 23.2999 288.356 23.0979L287.965 22.1349L288.746 21.3582C288.356 21.3271 287.949 21.4048 287.574 21.3582C287.714 21.032 287.933 20.8767 287.965 20.5815C288.09 20.5815 288.23 20.5971 288.356 20.5815C288.402 20.6747 288.293 20.9699 288.543 20.9699C288.809 20.8922 288.7 20.6903 288.731 20.5815H288.746Z" fill="#A5D1B9"/>
<path d="M267.262 26.4064C267.137 26.4064 266.996 26.4219 266.871 26.4064C266.902 26.2355 266.824 26.0957 267.059 26.0181C267.293 26.0957 267.231 26.2355 267.246 26.4064H267.262Z" fill="#A5D1B9"/>
<path d="M180.9 19.0284C181.588 18.8886 181.807 18.8886 182.261 18.2517H182.839L183.027 19.4167C183.793 18.5158 184.81 18.0964 185.951 18.2517V19.0284H186.342V18.2517L187.124 17.4751L187.515 18.2517C188.031 17.8013 188.469 17.9721 188.875 17.8634C189.031 17.8168 189.11 17.5061 189.266 17.4751C189.938 17.3197 190.47 17.5372 191.017 17.8634V17.0867C191.909 17.7547 191.737 17.1333 192.378 16.6984L192.956 17.4751L193.535 16.3101C194.051 16.1703 194.192 16.8382 194.708 16.6984C194.895 16.6518 195.083 16.1082 195.88 16.3101L196.459 16.6984V15.9218L198.21 16.3101C199.258 15.6577 200.274 14.4616 201.338 15.5334C201.947 15.7043 202.76 13.918 203.683 15.1451L204.465 14.3684C205.231 14.7102 205.685 14.6636 206.419 13.9801L207.592 14.3684L207.78 13.5918C208.358 13.3743 208.687 13.9801 208.749 13.9801C208.89 13.9801 209.297 13.0792 209.922 13.9801C210.579 13.0015 211.361 13.1724 212.455 13.2034V13.7782L213.237 13.9646L213.816 12.7996L215.567 13.1879L215.379 12.4112L216.349 12.5976C217.6 12.5044 217.819 11.3239 218.694 12.0229V11.2462H219.867L219.679 12.4112C220.242 11.8676 220.258 11.4482 221.04 12.0229V11.2462L222.009 11.6346L222.791 10.8579C223.323 11.6812 224.214 10.0346 224.746 10.8579L225.324 10.4696V11.2462H226.106C225.997 10.0346 226.763 10.2676 227.466 10.0812C227.623 10.0346 227.732 9.69289 227.857 9.69289C227.982 9.69289 228.092 10.0502 228.248 10.0812C229.671 10.3142 230.531 10.0502 231.376 8.91623L231.563 9.69289L232.533 8.91623C233.143 9.78609 233.69 8.66769 234.675 8.91623V8.13956H235.848V8.91623L237.208 8.13956L238.381 8.52789L239.554 7.75123L240.335 8.13956L241.117 7.3629C241.539 8.03083 242.54 7.16096 243.072 6.58623C245.058 8.03083 246.684 5.37463 248.545 6.1979L250.499 5.0329L250.687 5.80957C250.796 5.93383 251.891 5.06397 252.047 5.0329C253.533 4.7067 255.315 5.39017 256.738 3.8679L258.302 4.64457L259.271 4.25623V3.47957L259.85 3.8679C260.46 2.96697 260.913 3.8679 261.023 3.8679C261.132 3.8679 262.68 3.3087 262.977 3.09124H263.368C264.838 5.06397 265.417 2.8893 266.105 2.7029C266.636 2.5631 267.309 2.96697 267.668 2.31457L268.841 3.09124L270.014 2.31457C270.53 2.9825 271.093 3.29317 271.968 3.09124C272.312 3.01357 274.173 2.31457 274.314 2.31457C274.455 2.31457 274.58 2.7029 274.705 2.7029C274.799 2.7029 274.971 2.17477 275.487 2.31457C275.674 2.36117 275.831 2.90484 276.456 2.7029V3.47957C276.612 3.66597 276.925 2.95144 277.426 3.09124C277.723 3.1689 277.691 3.8213 278.207 3.09124L279.771 5.0329L280.162 4.64457L279.974 5.42123L279.583 5.60763C279.583 5.85617 279.959 5.7785 279.974 5.79403C280.084 5.93383 280.412 6.5241 280.365 6.5707L279.583 6.95903L280.162 7.34736V7.7357C280.615 7.0833 280.725 7.53376 281.131 7.9221L280.35 8.1085L280.74 9.45989C280.568 10.0502 278.833 10.1278 279.177 11.1996H278.395C278.27 12.2248 278.004 12.7996 277.035 13.1413C276.566 13.2966 277.488 13.8092 277.222 14.3063L276.44 13.5296L275.659 15.8596H274.486C274.814 16.6052 273.735 16.9469 273.704 17.0246V15.8596H272.922V17.0246H273.704C273.641 17.1644 273.735 17.5527 273.704 17.8013L271.749 18.1896C271.89 18.9507 271.624 19.5099 270.968 19.9293C270.217 20.4109 270.217 19.5876 269.795 19.9293L270.577 20.8924C269.717 20.7371 269.326 21.0322 268.825 21.6691C268.325 20.9079 268.231 21.8555 267.856 21.4827C267.481 21.1099 267.012 22.0729 266.683 22.2593L267.856 21.6846V23.6263H267.074V24.4029L265.119 24.2165L265.51 25.1796C265.01 25.0087 264.166 25.5835 264.338 26.1427L265.698 27.1057L265.51 26.531L266.089 25.9563C266.277 26.1737 266.37 26.298 266.667 26.3446C266.636 26.5931 266.683 26.8727 266.667 27.1213H267.058C267.043 26.8727 267.09 26.5931 267.058 26.3446C268.012 26.3912 268.372 26.2359 269.201 25.9563C269.717 25.7854 268.935 25.5213 269.013 25.1796L270.577 25.5679L269.795 24.7913H271.358V24.0146L274.486 24.4029L274.673 22.4613L275.252 23.2379C275.096 22.1195 275.44 22.6321 275.831 22.4613C276.175 22.3059 276.425 21.8399 277.191 22.0729L277.003 22.8496L277.582 21.6846L278.16 22.0729C278.833 21.0322 279.208 20.4264 280.694 20.5196V19.7429L282.054 20.1313L283.023 19.7429V18.9663C284.087 19.2925 284.978 17.8323 285.557 18.5779C286.323 17.6459 287.683 17.3819 288.872 17.4129V16.6363L289.841 17.0246C290.42 16.2946 291.108 15.8286 291.796 16.6363L291.608 16.0616C291.936 15.8441 292.296 15.2228 292.577 15.0985C293.406 14.7257 292.968 15.8907 293.547 15.8752C294.047 16.8227 295.455 15.9839 296.283 15.8752C296.205 15.1451 295.361 15.2694 295.111 14.7102C295.736 14.4306 295.47 14.1199 295.501 13.5452C296.283 13.7471 296.377 14.384 296.283 15.0985C296.862 14.4772 297.362 15.2072 297.456 15.0985L298.035 13.5452L298.613 14.7102L298.222 13.1568C298.66 13.1102 299.176 13.2345 299.583 13.1568C299.739 13.1258 299.848 12.7685 299.974 12.7685C300.099 12.7685 300.239 13.1568 300.364 13.1568C300.474 13.1568 300.865 12.3646 301.725 13.1568L301.537 11.9918L301.725 10.8268L303.085 11.9918C303.711 11.7433 303.617 10.8734 303.664 10.8268C303.726 10.7647 305.024 10.3608 305.024 10.8268L305.806 10.0502L307.166 10.8268L306.588 9.66183L308.73 10.0502L308.542 10.8268L310.294 11.4016L309.715 12.3646C308.933 12.3025 308.417 12.2714 307.964 12.9394L308.355 13.5141C307.62 13.8092 307.182 13.1724 306.994 13.1258C306.65 13.0481 305.9 12.9238 306.025 13.5141C306.807 13.4054 307.323 13.9956 307.198 14.6791C308.089 13.8869 308.449 14.6791 308.558 14.6791C308.683 14.6791 308.793 14.3218 308.949 14.2908C309.277 14.2286 310.81 14.0267 310.7 14.6791L307.964 15.0674V15.8441C307.651 15.813 307.276 15.8907 306.994 15.8441C306.744 15.7975 306.822 15.2072 306.025 15.8441L306.807 13.9024L304.852 13.1258L305.634 15.0674L304.07 14.6791L304.852 13.9024L303.492 13.5141L302.131 14.2908C302.397 15.3626 303.257 14.9121 303.883 15.0674C304.023 15.0985 304.102 15.3781 304.274 15.4558C304.868 15.7198 305.009 15.1762 304.852 16.6207L303.101 16.2324L302.319 17.0091C301.897 16.3567 301.334 17.2731 300.568 17.0091L302.913 15.6577C302.726 15.3626 302.1 15.347 301.741 15.083C301.725 15.083 301.787 14.6946 301.553 14.6946C301.287 14.7568 301.381 15.0674 301.365 15.083C301.131 15.1762 300.536 15.0208 300.193 15.083V16.248L299.411 15.8596V16.6363H298.629L299.02 15.8596H297.065V16.6363C296.158 15.8596 296.143 16.9003 295.705 17.0246C295.345 17.1178 294.767 16.9625 294.344 17.0246L294.735 17.8013L292.39 18.1896L292.577 18.9663H293.156L292.374 20.706L293.547 20.5196L292.577 21.2963H291.608L292.39 19.7429L291.029 20.1313L291.217 19.3546C290.607 19.1371 290.341 19.7429 290.248 19.7429C290.185 19.7429 289.857 19.1371 289.278 19.3546L290.06 18.0032L289.278 17.4285C289.372 18.4381 288.621 18.7333 287.714 18.5935L288.684 19.3701C289.184 19.7895 288.684 20.1002 288.496 20.5351C288.418 20.5041 288.215 20.5351 288.105 20.5351C288.058 20.4264 288.184 20.2245 287.918 20.1468C287.668 20.1468 287.746 20.5196 287.73 20.5351C287.464 20.6594 286.761 20.4419 286.37 20.5351C286.151 20.6128 286.182 20.7371 286.182 20.9235C286.088 20.8924 285.901 21.0011 285.791 20.7371C286.01 19.8517 285.228 20.3798 284.822 19.774L285.4 21.1254L284.227 21.7001C284.431 22.6632 283.915 23.036 283.258 23.6418C283.102 23.6418 282.664 22.5855 281.694 22.8651C281.21 23.0049 281.1 24.2321 279.943 23.2535V24.0301H278.77L278.958 24.8068H279.927L278.364 25.1951L278.176 24.4185L277.207 25.3815H277.988L277.801 26.3446L279.943 25.5679C280.256 25.8475 279.239 27.0436 278.974 27.1213C278.739 27.1834 278.442 27.0591 278.192 27.1213C277.097 27.4164 275.799 27.8824 274.673 29.0629L273.892 27.8979C273.501 28.2707 274.47 28.4105 273.704 28.861C273.282 29.1095 272.688 29.2493 272.344 29.4357C272.078 29.5755 271.765 30.1503 271.562 30.2124C271.233 30.3056 270.717 30.1192 270.389 30.2124C269.936 30.3367 268.95 31.3463 268.825 31.3774C267.574 31.7191 266.73 31.191 265.698 32.1541C264.838 31.7191 264.791 32.0609 263.947 32.1541C264.009 31.7968 263.915 31.3774 263.947 30.9891H263.165C263.806 31.7657 263.165 31.7191 263.165 32.1541C262.555 32.2473 261.898 32.4337 261.414 32.9307L258.88 32.5424C259.131 31.1444 257.551 30.4609 256.738 29.4357L256.16 30.2124L256.551 29.0474L255.378 29.4357C255.081 28.1154 255.659 28.0377 256.16 27.3077C256.801 26.3757 257.489 25.1796 258.114 24.201C258.599 23.4554 259.24 23.5952 260.069 23.6263C260.256 23.4709 259.678 23.1447 259.678 23.0515C259.678 22.8651 260.819 21.8399 261.242 22.0885L261.632 20.5351L262.414 20.7215L262.993 22.0729L263.962 21.6846V20.9079L262.79 21.2963L262.399 20.3332L263.759 18.5935L264.15 18.9818C264.275 18.9818 264.635 18.2051 265.323 17.8168C265.886 17.5061 266.105 16.2946 266.886 15.8752L267.856 16.6518L267.465 15.0985C268.81 15.3004 268.466 13.3432 269.81 13.5452V12.7685H270.592V11.6035C271.202 11.588 272.25 10.7958 272.547 11.7899C272.828 12.7064 271.296 12.5355 271.374 13.1413L274.111 12.753L274.298 11.588L274.877 13.5296L275.268 11.4016H276.049L275.659 10.4385C276.519 10.5938 276.894 10.2987 277.41 9.66183C278.051 10.4074 278.426 10.8424 279.161 9.84823H277.988L275.252 8.49683V9.27349H274.079L274.861 10.2366H274.079L272.516 11.1996L273.297 10.423L272.516 9.64629H273.688V8.86963L274.47 8.09296C273.782 7.98423 273.438 8.69876 272.719 8.4813C270.827 7.93763 265.229 9.14923 262.946 9.64629C261.257 10.0036 260.116 10.0812 258.458 9.64629V10.423C257.52 10.1123 256.566 11.0132 255.925 10.8113C255.534 10.7026 255.362 10.2521 254.361 10.423C254.096 10.4696 254.08 11.1686 253.58 10.423L253.767 11.1996L251.813 10.8113V11.588C251.062 11.8676 250.468 11.0909 250.061 11.1996C248.122 11.7278 246.011 11.8054 244.198 13.1413C243.338 12.8306 241.836 12.9549 240.679 13.1413C240.351 13.2034 239.116 13.3743 238.725 13.5296C237.615 13.949 236.332 15.4713 235.207 14.3063C234.159 15.1451 233.002 15.347 232.079 15.083C231.157 14.8189 230.265 16.248 229.734 15.4713C228.796 16.8537 226.997 15.7354 225.825 17.0246C223.635 16.2169 221.368 18.4847 219.57 17.4129L218.788 18.1896C217.834 17.7391 216.677 18.2207 215.661 18.9663L214.488 18.5779C213.753 19.2614 213.3 19.308 212.533 18.9663C211.533 19.9759 209.969 19.4478 208.624 19.7429C208.03 19.8672 208.186 20.4419 207.061 20.1313C205.841 19.7895 201.072 22.4457 199.633 21.2963C198.288 23.0049 196.428 21.4205 194.942 22.8496C193.894 22.3681 192.456 23.0049 191.424 22.4613C188.484 23.9991 185.357 23.502 182.042 25.1796L181.854 24.4029C180.775 24.1699 180.4 24.8845 179.712 25.5679L179.321 24.7913C178.883 24.9311 177.883 25.9252 177.757 25.9563C176.694 26.2514 174.521 25.6611 173.457 25.9563C173.238 26.0184 172.894 26.6708 172.676 26.7329C171.409 27.0902 170.346 26.9193 169.157 27.1213C168.11 27.2921 167.234 27.1213 166.03 27.5096C163.387 28.3639 161.167 28.2241 158.603 28.6746C156.632 29.0163 154.381 29.1095 151.957 29.4513C149.846 29.7464 148.063 30.9425 146.093 30.6163C144.999 30.4299 141.418 31.4551 140.229 31.7813C140.104 31.8123 139.745 31.6725 139.057 31.7813C138.525 31.8745 137.868 31.7191 137.305 31.7813L137.493 31.0046C137.243 31.1755 136.899 31.7191 136.711 31.7813C135.679 32.0764 134.037 32.5579 133.193 31.7813C132.74 32.4803 127.642 33.4278 127.329 33.3346C125.515 32.7909 125.781 33.0395 124.202 33.3346C123.639 33.4433 122.638 33.4744 122.247 32.9463L122.435 33.7229C121.794 33.9404 121.653 33.3812 121.465 33.3346C121.168 33.2569 118.651 34.4219 117.947 33.3346C117.4 33.8006 115.398 34.6549 114.82 34.4996C114.241 34.3443 113.772 32.7443 112.474 34.4996C111.38 33.8006 110.895 34.7015 109.738 34.4996C108.722 34.3287 107.142 34.2821 105.829 34.4996C105.203 34.6083 103.874 34.7792 103.092 34.1113C102.029 35.4937 99.2614 35.5403 97.6196 35.2763C94.0231 34.686 88.5347 36.4257 84.7193 35.6646C82.6553 36.8606 79.3403 36.0374 76.901 36.4412C75.3842 36.6898 73.6955 36.1461 72.6009 36.4412C69.8801 37.1558 66.7372 36.8606 64.0007 37.6063C63.5942 37.715 63.688 37.2334 62.4371 37.6063C61.9054 37.7616 60.4981 36.8917 59.3097 37.2179C58.9657 37.3111 58.6843 38.2742 57.9494 37.9946L57.7617 37.2179C57.5115 37.3732 57.1675 37.948 56.9799 37.9946C55.9635 38.2742 53.9151 37.8237 52.6798 37.9946C52.1638 38.0722 50.5376 38.9421 49.9434 38.7712C48.7706 38.414 45.5026 38.911 44.0796 39.1596C40.8741 39.7032 36.2144 39.7498 33.134 40.7129C32.3991 40.9459 32.0707 40.076 31.3827 40.7129L31.7736 38.7712L32.7431 39.5479C33.1496 39.144 33.5874 39.0353 32.9307 38.5849L33.7125 38.3984L33.9002 39.9518L34.0878 38.3984C34.7289 38.181 34.9009 38.7557 35.0573 38.7868C35.37 38.8489 36.5584 39.0198 36.4177 38.3984C35.6671 38.6625 35.37 37.715 35.0573 37.6218C34.3224 37.4198 32.9307 38.5072 31.93 38.3984L31.3514 37.6218L30.5696 38.3984C30.1005 39.579 31.758 38.8334 31.3514 39.7498C31.1794 40.1226 30.6321 40.4333 30.1786 40.3246L30.9605 41.1012L28.615 41.4896C28.6463 41.241 28.5681 40.9304 28.615 40.7129C27.5048 41.1168 25.644 42.1264 24.9091 41.4896L24.1273 42.2662L23.5487 42.0798H22.376C23.0014 41.4585 22.4385 40.8527 23.7363 41.1168C24.2211 40.3556 24.3305 41.1168 24.5182 41.1168C24.6433 41.1168 24.7527 40.7595 24.9091 40.7284C26.2226 40.511 27.7081 41.1478 28.8183 39.9518C29.2092 40.2003 28.7244 40.309 28.6306 40.7284C28.7714 40.6818 29.0059 40.7906 29.2092 40.7284C29.5063 40.6352 30.3037 40.045 30.5696 39.7654L28.8183 39.579L29.0059 38.8023L27.2546 39.1906L26.8637 38.8023L25.6909 39.579L23.9396 39.1906V39.9673C23.2985 40.1848 23.1578 39.6256 22.9702 39.579C22.4541 39.4392 22.2821 39.9673 22.1883 39.9673C22.0007 39.9673 20.7185 38.9887 20.437 38.6159L21.6098 38.2276C20.8748 37.6839 21.2501 37.3266 21.7974 36.8762C22.3134 37.6063 22.2821 36.9538 22.5792 36.8762C23.1891 36.7209 24.0178 36.7519 24.5338 36.0995L25.7066 37.2645L25.5189 36.0995L26.6917 36.4879V35.7112L27.2702 36.0995L29.2248 35.3229L30.5852 36.0995V34.9345L31.5547 35.7112L32.7274 34.9345C33.5562 35.6491 34.4475 34.5462 34.682 34.5462C34.8071 34.5462 35.542 35.4316 36.4333 34.5462L36.2457 35.7112L37.6061 34.9345V34.1579C38.6381 34.4841 39.7014 34.4219 40.5301 33.3812C41.1869 34.2821 41.4527 33.4433 41.7029 33.3812C42.4222 33.2103 44.58 33.8472 44.8302 33.7695C45.2211 33.6608 45.0335 33.288 46.003 33.7695L47.7543 32.6045V33.3812C49.2085 33.8938 49.8183 31.9987 50.6783 32.9929L50.8659 32.2162L51.6478 32.4026V32.9773L53.3991 32.2007C53.8213 32.7754 54.5406 32.7754 54.9628 32.2007L55.9322 32.9773V31.8123L57.2926 31.424L58.0745 32.2007C58.9501 31.6415 59.4192 32.5735 60.029 31.8123L60.6076 32.2007V31.424L62.3589 31.8123L62.5465 31.0357L63.3284 31.9987C63.2033 33.1948 64.6418 32.5269 65.0797 31.8123L64.892 31.0357L65.6739 31.2221V31.7968L66.6433 31.0201C67.7535 31.7968 68.5041 30.4765 69.3798 31.4085L70.5525 30.6318L71.7253 31.4085C72.3038 30.7095 73.1638 30.9735 73.8675 31.4085V30.6318L74.837 30.2435L76.0097 31.0201C76.4944 30.6163 77.6828 30.1347 77.9643 30.6318C78.1363 30.3988 78.277 30.3211 78.5428 30.2435C78.5116 30.492 78.5585 30.7716 78.5428 31.0201H78.9338C78.9181 30.7716 78.965 30.492 78.9338 30.2435C80.1378 29.9173 80.6538 29.5289 81.8578 30.6318L83.0306 29.8551L85.1728 30.6318L85.7513 29.4668L85.939 30.2435C86.5801 30.4609 86.7208 29.9173 86.9085 29.8551C87.6903 29.6377 88.0187 30.3677 88.4721 30.2435L89.6449 29.4668L90.0358 30.2435L90.8176 29.4668L91.5995 29.8551L92.3813 29.0785C93.0537 29.9328 94.4453 29.0008 95.1177 29.8551L95.3053 29.0785L96.0872 29.2649V29.8396L99.2145 29.0629L99.6054 29.8396L100.184 28.6746L100.966 29.0629L101.544 28.6746V29.4513L102.905 29.0629L104.265 29.8396L103.874 28.6746L105.047 28.2863L105.626 29.4513C106.126 28.6125 106.579 28.8299 107.189 28.6746C107.346 28.628 107.455 28.2863 107.58 28.2863C107.815 28.2863 108.69 29.327 109.535 27.8979L110.707 28.6746C111.849 28.395 112.787 28.7523 114.226 28.2863C115.883 27.7426 117.634 28.2552 119.699 27.8979C120.731 27.7271 121.716 27.4319 122.826 27.5096C122.904 27.5096 123.514 26.8261 124.186 27.1213L124.374 27.8979L125.156 27.1213L125.938 27.5096L128.471 26.3446V27.1213L129.049 26.7329L129.44 27.1213L130.222 26.3446C131.191 26.7174 132.974 26.6863 134.131 25.9563L135.882 26.7329V25.5679L136.852 26.3446L137.634 25.5679L138.025 26.3446L138.603 25.1796C139.307 24.8845 139.901 25.5679 139.964 25.5679C140.089 25.5679 140.198 25.2262 140.355 25.1796C140.605 25.1175 142.09 25.7388 142.7 24.7913L144.06 25.1796L144.639 24.0146L144.827 25.1796L145.796 24.0146C146.453 24.9 146.687 24.0923 146.969 24.0146C147.501 23.8593 147.923 24.9466 148.533 24.0146L148.72 24.7913L149.69 24.0146L150.659 24.7913V23.6263C151.253 24.2631 151.722 23.5175 151.832 23.6263L152.223 24.4029L152.41 23.6263C153.161 23.9369 153.802 23.269 153.974 23.2379C155.569 22.9273 157.008 23.5952 158.274 22.4613C158.618 22.3681 159.259 23.0671 160.229 22.8496C160.401 22.803 160.573 22.2438 161.198 22.4613C161.104 23.1758 161.198 23.8127 161.98 24.0146L161.589 22.6632C162.246 21.7623 163.856 20.7681 163.544 22.8496L164.513 21.6846L165.686 22.0729C166.593 21.0477 167.75 21.4671 168.813 21.2963C168.97 21.2652 169.079 20.9079 169.204 20.9079C169.298 20.9079 170.205 21.638 170.956 21.2963V22.0729H171.737V21.2963C172.644 22.0729 172.644 21.0322 173.098 20.9079C173.676 20.7371 174.161 20.9701 174.661 20.1313L175.834 20.9079L175.646 19.7429C176.209 19.6808 176.882 19.8361 177.398 19.7429C177.507 19.7274 177.804 19.1216 178.571 19.3546C178.774 19.4167 178.899 19.9449 179.54 19.7429C179.321 19.0129 179.775 19.1216 179.931 18.9663C179.931 19.5255 179.759 19.8517 180.322 19.7429C180.306 19.4944 180.353 19.2148 180.322 18.9663L180.9 19.0284ZM272.922 4.30283C272.672 4.30283 272.672 4.69117 272.922 4.69117C273.172 4.69117 273.172 4.30283 272.922 4.30283ZM271.358 4.69117C271.108 4.69117 271.108 5.0795 271.358 5.0795C271.609 5.0795 271.609 4.69117 271.358 4.69117ZM270.186 5.0795C269.936 5.0795 269.936 5.46783 270.186 5.46783C270.436 5.46783 270.436 5.0795 270.186 5.0795ZM274.095 5.0795C273.845 5.0795 273.845 5.46783 274.095 5.46783C274.345 5.46783 274.345 5.0795 274.095 5.0795ZM275.846 6.2445C275.612 5.57657 275.408 5.39017 274.673 5.66977C274.111 5.88723 273.688 5.9183 273.11 5.85617C273.016 6.49303 273.641 6.22897 274.079 6.2445C274.658 6.26003 275.252 6.2445 275.831 6.2445H275.846ZM269.795 5.85617C269.545 5.85617 269.545 6.2445 269.795 6.2445C270.045 6.2445 270.045 5.85617 269.795 5.85617ZM268.825 6.2445H267.653V7.02116C268.122 6.8969 268.231 6.4775 268.825 6.63283V6.2445ZM271.171 7.4095H271.749C272.766 7.00563 271.921 5.66977 271.171 6.83476V7.4095ZM278.192 6.63283L276.237 6.2445L276.628 8.18616L277.988 8.96283C278.833 8.21723 278.239 7.48716 279.74 7.79783L278.379 7.02116L277.801 7.79783L278.192 6.63283ZM266.48 7.4095V6.63283L265.307 7.02116L266.667 7.79783V7.4095H266.48ZM273.313 6.63283C273.063 6.63283 273.063 7.02116 273.313 7.02116C273.563 7.02116 273.563 6.63283 273.313 6.63283ZM274.486 6.63283C274.236 6.63283 274.236 7.02116 274.486 7.02116C274.736 7.02116 274.736 6.63283 274.486 6.63283ZM269.998 7.02116H269.216V7.4095H269.998V7.02116ZM270.577 7.02116C270.326 7.02116 270.326 7.4095 270.577 7.4095C270.827 7.4095 270.827 7.02116 270.577 7.02116ZM259.631 7.4095C259.381 7.4095 259.381 7.79783 259.631 7.79783C259.881 7.79783 259.881 7.4095 259.631 7.4095ZM255.737 7.79783C255.487 7.79783 255.487 8.18616 255.737 8.18616C255.988 8.18616 255.988 7.79783 255.737 7.79783ZM254.174 8.18616C253.924 8.18616 253.924 8.5745 254.174 8.5745C254.424 8.5745 254.424 8.18616 254.174 8.18616ZM260.991 7.98423L258.615 8.2017L258.662 8.76089L261.038 8.54343L260.991 7.98423ZM252.61 8.5745C252.36 8.5745 252.36 8.96283 252.61 8.96283C252.86 8.96283 252.86 8.5745 252.61 8.5745ZM255.925 8.9473L254.752 8.55896V9.72396L255.925 9.33563V8.9473ZM257.098 9.33563V8.55896L256.316 9.13369V9.32009H257.098V9.33563ZM245.37 10.1123H244.589V10.5006H245.37V10.1123ZM249.28 10.889V10.1123H248.889V10.889H249.28ZM277.613 10.889C277.363 10.889 277.363 11.2773 277.613 11.2773C277.863 11.2773 277.863 10.889 277.613 10.889ZM306.322 11.6656L306.134 10.889C305.65 11.1686 305.681 11.4948 305.556 11.852C305.306 12.5044 304.665 11.4948 304.383 11.852C305.243 13.0792 306.041 11.8831 307.12 12.0384L306.338 11.6501L306.322 11.6656ZM218.225 12.4423C217.975 12.4423 217.975 12.8306 218.225 12.8306C218.475 12.8306 218.475 12.4423 218.225 12.4423ZM232.673 12.8306C232.423 12.8306 232.423 13.219 232.673 13.219C232.924 13.219 232.924 12.8306 232.673 12.8306ZM231.11 13.6073C230.86 13.6073 230.86 13.9956 231.11 13.9956C231.36 13.9956 231.36 13.6073 231.11 13.6073ZM270.577 13.6073C270.326 13.6073 270.326 13.9956 270.577 13.9956C270.827 13.9956 270.827 13.6073 270.577 13.6073ZM299.489 13.6073C299.239 13.6073 299.239 13.9956 299.489 13.9956C299.739 13.9956 299.739 13.6073 299.489 13.6073ZM225.058 13.9956H224.276V14.384H225.058V13.9956ZM271.953 14.7723V13.9956H271.562V14.7723H271.953ZM299.489 14.384C299.239 14.384 299.239 14.7723 299.489 14.7723C299.739 14.7723 299.739 14.384 299.489 14.384ZM270.186 14.7723C269.936 14.7723 269.936 15.1606 270.186 15.1606C270.436 15.1606 270.436 14.7723 270.186 14.7723ZM224.855 15.1606C224.605 15.1606 224.605 15.549 224.855 15.549C225.105 15.549 225.105 15.1606 224.855 15.1606ZM274.095 15.1606C273.845 15.1606 273.845 15.549 274.095 15.549C274.345 15.549 274.345 15.1606 274.095 15.1606ZM212.752 15.549C212.502 15.549 212.502 15.9373 212.752 15.9373C213.002 15.9373 213.002 15.549 212.752 15.549ZM222.134 15.549L221.556 16.1237L221.743 16.3101L222.322 15.7354L222.134 15.549ZM268.825 16.3256L269.998 15.7509L269.81 15.5645L268.841 15.9528V16.3412L268.825 16.3256ZM270.577 15.549C270.326 15.549 270.326 15.9373 270.577 15.9373C270.827 15.9373 270.827 15.549 270.577 15.549ZM226.028 15.9373C225.778 15.9373 225.778 16.3256 226.028 16.3256C226.278 16.3256 226.278 15.9373 226.028 15.9373ZM212.752 17.4906C212.502 17.4906 212.502 17.8789 212.752 17.8789C213.002 17.8789 213.002 17.4906 212.752 17.4906ZM293.234 17.4906C292.984 17.4906 292.984 17.8789 293.234 17.8789C293.484 17.8789 293.484 17.4906 293.234 17.4906ZM210.798 17.8634C210.548 17.8634 210.548 18.2517 210.798 18.2517C211.048 18.2517 211.048 17.8634 210.798 17.8634ZM291.874 17.8634H290.701V18.0498L291.28 18.6245L291.858 17.8479L291.874 17.8634ZM266.277 18.6401C266.026 18.6401 266.026 19.0284 266.277 19.0284C266.527 19.0284 266.527 18.6401 266.277 18.6401ZM209.625 19.0284C209.375 19.0284 209.375 19.4167 209.625 19.4167C209.875 19.4167 209.875 19.0284 209.625 19.0284ZM292.061 19.0284C291.811 19.0284 291.811 19.4167 292.061 19.4167C292.312 19.4167 292.312 19.0284 292.061 19.0284ZM264.713 19.8051L264.134 20.3798L264.322 20.5662L264.901 19.9915L264.713 19.8051ZM198.288 20.1934C198.038 20.1934 198.038 20.5817 198.288 20.5817C198.539 20.5817 198.539 20.1934 198.288 20.1934ZM266.089 20.1934C265.761 19.8672 264.619 20.8458 264.525 21.3584H266.48C266.355 20.8924 265.933 20.7837 266.089 20.1934ZM181.291 20.9701H180.51V21.3584H181.291V20.9701ZM180.9 22.5234L180.322 24.4651C181.072 23.1758 182.464 24.1855 183.246 23.1137L182.855 21.7623L182.464 22.9273L182.073 22.1506L180.9 22.5389V22.5234ZM183.84 21.7467C183.59 21.7467 183.59 22.1351 183.84 22.1351C184.09 22.1351 184.09 21.7467 183.84 21.7467ZM187.749 21.7467C187.499 21.7467 187.499 22.1351 187.749 22.1351C187.999 22.1351 187.999 21.7467 187.749 21.7467ZM168.594 22.1351C168.344 22.1351 168.344 22.5234 168.594 22.5234C168.845 22.5234 168.845 22.1351 168.594 22.1351ZM279.755 22.1351H278.974V22.5234H279.755V22.1351ZM184.419 23.3001V22.5234H184.028V23.3001H184.419ZM168.594 22.9117C168.344 22.9117 168.344 23.3001 168.594 23.3001C168.845 23.3001 168.845 22.9117 168.594 22.9117ZM176.6 23.3001L177.57 24.4651L179.321 23.8903L178.352 22.9273V23.7039L176.6 23.3156V23.3001ZM277.019 23.3001L276.049 22.9117L275.862 23.0981L277.035 23.6729V23.2845L277.019 23.3001ZM279.865 23.2845C279.865 23.0205 279.646 22.803 279.38 22.803C279.114 22.803 278.895 23.0205 278.895 23.2845C278.895 23.5486 279.114 23.7661 279.38 23.7661C279.646 23.7661 279.865 23.5486 279.865 23.2845ZM169.767 23.3001C169.517 23.3001 169.517 23.6884 169.767 23.6884C170.017 23.6884 170.017 23.3001 169.767 23.3001ZM179.931 23.3001C179.681 23.3001 179.681 23.6884 179.931 23.6884C180.181 23.6884 180.181 23.3001 179.931 23.3001ZM262.962 23.3001H262.18V23.6884H262.962V23.3001ZM168.985 23.6884L168.798 23.8748L169.376 24.4495L169.564 24.2631L168.985 23.6884ZM173.098 24.8534L171.925 24.0767L171.143 25.0398L172.504 25.6145L173.676 25.2262L175.819 24.0612L174.067 24.4495L173.098 24.0612V24.8379V24.8534ZM170.549 24.4651C170.299 24.4651 170.299 24.8534 170.549 24.8534C170.799 24.8534 170.799 24.4651 170.549 24.4651ZM260.225 24.8534H259.443L259.052 26.0184H259.834L260.225 24.8534ZM168.016 25.6301L166.061 25.2417L166.64 26.4067L168 26.0184V25.6301H168.016ZM170.361 25.2417H169.579V25.6301H170.361V25.2417ZM277.019 26.0184V25.2417C276.55 25.366 276.44 25.7854 275.846 25.6301V26.0184H277.019ZM263.353 25.6301H262.571V26.0184H263.353V25.6301ZM159.228 26.0184C158.978 26.0184 158.978 26.4067 159.228 26.4067C159.478 26.4067 159.478 26.0184 159.228 26.0184ZM161.37 27.1679L160.401 26.0029L160.213 26.1893C160.604 26.4689 160.682 26.6863 160.604 27.1523H161.386L161.37 27.1679ZM165.076 26.0184C164.826 26.0184 164.826 26.4067 165.076 26.4067C165.326 26.4067 165.326 26.0184 165.076 26.0184ZM156.288 27.1679L156.101 26.3912L154.74 26.7795L155.522 27.1679V27.9445H157.273C158.196 27.3543 157.43 27.2145 157.461 26.3912H156.679L156.288 27.1679ZM158.634 26.4067H157.852V26.7951H158.634V26.4067ZM276.44 26.4067L275.862 26.9815L276.049 27.1679L276.628 26.5931L276.44 26.4067ZM260.022 26.7795C259.772 26.7795 259.772 27.1679 260.022 27.1679C260.272 27.1679 260.272 26.7795 260.022 26.7795ZM263.931 26.7795C263.681 26.7795 263.681 27.1679 263.931 27.1679C264.181 27.1679 264.181 26.7795 263.931 26.7795ZM273.892 27.5562V26.7795H273.501V27.5562H273.892ZM274.877 27.1679C274.627 27.1679 274.627 27.5562 274.877 27.5562C275.127 27.5562 275.127 27.1679 274.877 27.1679ZM147.11 27.5562C146.859 27.5562 146.859 27.9445 147.11 27.9445C147.36 27.9445 147.36 27.5562 147.11 27.5562ZM272.735 27.9445L271.171 27.5562V28.9076L272.735 27.9445ZM270.78 27.9445L268.434 28.9076L270.78 29.094V27.929V27.9445ZM149.252 28.3329H148.079V28.7212H148.861V29.4979H149.252V28.3329ZM257.286 28.3329C257.035 28.3329 257.035 28.7212 257.286 28.7212C257.536 28.7212 257.536 28.3329 257.286 28.3329ZM258.067 28.3329C257.817 28.3329 257.817 28.7212 258.067 28.7212C258.318 28.7212 258.318 28.3329 258.067 28.3329ZM137.728 29.1095C137.477 29.1095 137.477 29.4979 137.728 29.4979C137.978 29.4979 137.978 29.1095 137.728 29.1095ZM144.561 29.1095H143.779V29.8862L144.561 29.1095ZM267.262 29.8862L267.074 29.1095L266.105 29.8862L266.886 30.0726V30.6473L267.465 30.259L267.856 30.6473L268.825 29.4823L267.262 29.8707V29.8862ZM269.404 29.1095C269.154 29.1095 269.154 29.4979 269.404 29.4979C269.654 29.4979 269.654 29.1095 269.404 29.1095ZM135.382 29.4979C135.132 29.4979 135.132 29.8862 135.382 29.8862C135.632 29.8862 135.632 29.4979 135.382 29.4979ZM142.81 29.4979C142.559 29.4979 142.559 29.8862 142.81 29.8862C143.06 29.8862 143.06 29.4979 142.81 29.4979ZM132.646 29.8862L132.067 30.4609L132.255 30.6473L132.833 30.0726L132.646 29.8862ZM139.682 29.8862C139.432 29.8862 139.432 30.2745 139.682 30.2745C139.932 30.2745 139.932 29.8862 139.682 29.8862ZM92.4126 30.2745C92.1624 30.2745 92.1624 30.6629 92.4126 30.6629C92.6627 30.6629 92.6627 30.2745 92.4126 30.2745ZM134.413 30.2745H133.631V30.6629H134.413V30.2745ZM262.758 30.2745C262.508 30.2745 262.508 30.6629 262.758 30.6629C263.009 30.6629 263.009 30.2745 262.758 30.2745ZM264.525 31.4395C265.51 31.6415 265.87 31.1289 266.48 30.4765L266.292 30.2901L264.541 30.6784V31.4551L264.525 31.4395ZM131.473 30.6629C131.223 30.6629 131.223 31.0512 131.473 31.0512C131.723 31.0512 131.723 30.6629 131.473 30.6629ZM262.367 31.0512C262.117 31.0512 262.117 31.4395 262.367 31.4395C262.618 31.4395 262.618 31.0512 262.367 31.0512ZM260.022 31.4395C259.772 31.4395 259.772 31.8279 260.022 31.8279C260.272 31.8279 260.272 31.4395 260.022 31.4395ZM260.804 31.4395C260.554 31.4395 260.554 31.8279 260.804 31.8279C261.054 31.8279 261.054 31.4395 260.804 31.4395ZM120.152 31.8279C119.902 31.8279 119.902 32.2162 120.152 32.2162C120.402 32.2162 120.402 31.8279 120.152 31.8279ZM122.888 31.8279C122.638 31.8279 122.638 32.2162 122.888 32.2162C123.139 32.2162 123.139 31.8279 122.888 31.8279ZM129.909 31.8279C129.659 31.8279 129.659 32.2162 129.909 32.2162C130.159 32.2162 130.159 31.8279 129.909 31.8279ZM62.7185 32.2162C62.4684 32.2162 62.4684 32.6045 62.7185 32.6045C62.9687 32.6045 62.9687 32.2162 62.7185 32.2162ZM99.8243 32.2162C99.5742 32.2162 99.5742 32.6045 99.8243 32.6045C100.075 32.6045 100.075 32.2162 99.8243 32.2162ZM104.906 32.2162C104.656 32.2162 104.656 32.6045 104.906 32.6045C105.156 32.6045 105.156 32.2162 104.906 32.2162ZM97.8698 32.6045C97.6196 32.6045 97.6196 32.9929 97.8698 32.9929C98.1199 32.9929 98.1199 32.6045 97.8698 32.6045ZM61.7334 32.9929C61.3582 32.6822 60.2949 33.6297 60.1698 34.1579H60.9516V33.3812H61.7334V32.9929ZM87.1274 34.5462L86.1579 32.9929L85.5793 33.7695H86.3612V34.5462H87.143H87.1274ZM90.458 32.9929C90.2078 32.9929 90.2078 33.3812 90.458 33.3812C90.7082 33.3812 90.7082 32.9929 90.458 32.9929ZM97.6821 33.3812H96.5094V33.7695H97.6821V33.3812ZM98.4639 34.1579V33.3812H98.073V34.1579H98.4639ZM100.606 33.3812C100.356 33.3812 100.356 33.7695 100.606 33.7695C100.856 33.7695 100.856 33.3812 100.606 33.3812ZM42.5942 34.5462V33.7695H42.2032V34.5462H42.5942ZM50.2092 33.7695C49.959 33.7695 49.959 34.1579 50.2092 34.1579C50.4594 34.1579 50.4594 33.7695 50.2092 33.7695ZM77.3701 34.5462V33.7695H76.9792V34.5462H77.3701ZM73.2576 34.1579C73.0075 34.1579 73.0075 34.5462 73.2576 34.5462C73.5078 34.5462 73.5078 34.1579 73.2576 34.1579ZM84.9851 34.1579C84.735 34.1579 84.735 34.5462 84.9851 34.5462C85.2353 34.5462 85.2353 34.1579 84.9851 34.1579ZM88.8943 34.1579C88.6441 34.1579 88.6441 34.5462 88.8943 34.5462C89.1445 34.5462 89.1445 34.1579 88.8943 34.1579ZM52.9456 34.5462C52.6954 34.5462 52.6954 34.9345 52.9456 34.9345C53.1958 34.9345 53.1958 34.5462 52.9456 34.5462ZM65.4393 34.5462C65.1891 34.5462 65.1891 34.9345 65.4393 34.9345C65.6895 34.9345 65.6895 34.5462 65.4393 34.5462ZM45.7215 35.6957V34.919H45.3306V35.6957H45.7215ZM61.3425 34.9345H60.5607V35.3229H61.3425V34.9345ZM63.8913 34.9345C63.6411 34.9345 63.6411 35.3229 63.8913 35.3229C64.1415 35.3229 64.1415 34.9345 63.8913 34.9345ZM64.6575 34.9345C64.4073 34.9345 64.4073 35.3229 64.6575 35.3229C64.9077 35.3229 64.9077 34.9345 64.6575 34.9345ZM74.2428 34.9345H73.4609V35.3229H74.2428V34.9345ZM92.8035 34.9345C92.5533 34.9345 92.5533 35.3229 92.8035 35.3229C93.0537 35.3229 93.0537 34.9345 92.8035 34.9345ZM54.6969 35.3073L53.1333 35.4937L55.2755 36.8451L55.854 36.0685L54.6813 35.8821V35.3073H54.6969ZM56.2606 35.3073H55.4788V35.6957H56.2606V35.3073ZM58.997 35.3073H58.2152V35.6957H58.997V35.3073ZM68.5667 35.3073C68.3165 35.3073 68.3165 35.6957 68.5667 35.6957C68.8168 35.6957 68.8168 35.3073 68.5667 35.3073ZM70.5212 35.3073C70.271 35.3073 70.271 35.6957 70.5212 35.6957C70.7714 35.6957 70.7714 35.3073 70.5212 35.3073ZM32.618 35.6957C32.3678 35.6957 32.3678 36.084 32.618 36.084C32.8682 36.084 32.8682 35.6957 32.618 35.6957ZM47.2852 36.4723L46.1124 36.084V36.8606L47.2852 37.249V36.4723ZM58.2152 36.084H56.6515V36.4723C57.1206 36.3947 57.3552 36.4723 57.621 36.8606L58.1995 36.084H58.2152ZM62.9062 36.084H62.1243V36.4723H62.9062V36.084ZM32.8212 36.4723H32.0394L32.618 37.249H32.8056V36.4723H32.8212ZM53.3365 36.4723C53.0864 36.4723 53.0864 36.8606 53.3365 36.8606C53.5867 36.8606 53.5867 36.4723 53.3365 36.4723ZM25.0029 37.6373L24.2211 36.8606V37.6373H25.0029ZM41.2181 36.8606C40.9679 36.8606 40.9679 37.249 41.2181 37.249C41.4683 37.249 41.4683 36.8606 41.2181 36.8606ZM43.8607 36.7209L43.6887 37.3422L45.5495 37.8703L45.7215 37.249L43.8607 36.7209ZM49.615 36.8606H48.8332V37.249H49.615V36.8606ZM51.9605 36.8606H50.0059V37.249C50.5845 37.2335 51.038 37.1247 51.3663 37.6373L51.9449 36.8606H51.9605ZM38.685 38.414L38.8726 37.249L37.5122 37.6373L37.9032 38.414L37.1213 39.1906L38.685 38.414ZM22.4698 37.6373C22.2196 37.6373 22.2196 38.0257 22.4698 38.0257C22.72 38.0257 22.72 37.6373 22.4698 37.6373ZM40.6396 37.6373H40.061L39.4825 38.414H40.6552V37.6373H40.6396ZM43.1727 37.6373C42.9225 37.6373 42.9225 38.0257 43.1727 38.0257C43.4229 38.0257 43.4229 37.6373 43.1727 37.6373ZM45.1273 38.0257C44.8771 38.0257 44.8771 38.414 45.1273 38.414C45.3775 38.414 45.3775 38.0257 45.1273 38.0257Z" fill="#A5D1B9"/>
<path d="M287.574 21.3581C287.527 21.4513 287.636 21.6843 287.386 21.7464H286.995C286.729 21.6843 286.823 21.3736 286.808 21.3581C287.011 21.4202 287.339 21.327 287.589 21.3581H287.574Z" fill="#A5D1B9"/>
<path d="M264.134 32.216C264.103 32.3869 264.181 32.5422 263.947 32.6043L263.368 32.216C263.618 32.1849 263.9 32.2471 264.15 32.216H264.134Z" fill="#A5D1B9"/>
<path d="M414.168 6.63296V7.02129C413.808 6.85043 413.027 7.02129 412.808 7.40963L412.995 6.24463L414.168 6.63296Z" fill="#A5D1B9"/>
<path d="M364.162 8.94727C364.287 8.94727 364.428 8.94727 364.553 8.94727L364.365 9.3356L364.178 8.94727H364.162Z" fill="#A5D1B9"/>
<path d="M425.114 1.19625V0.03125H425.896C425.864 0.404049 425.958 0.823449 425.896 1.19625C425.708 1.13412 425.364 1.22731 425.114 1.19625Z" fill="#A5D1B9"/>
<path d="M381.347 8.94706C381.941 8.51213 382.676 8.60533 383.302 8.17039V8.94706L384.271 9.33539L384.459 7.78206L386.022 8.17039V8.74512L386.804 8.93152C386.804 8.93152 386.085 8.01506 386.992 7.76653C387.696 7.58013 388.274 8.24806 388.352 8.15486L388.931 6.98986H389.322C390.072 7.87526 390.776 6.78793 391.667 7.37819L392.449 6.60153C392.903 7.19179 393.95 7.19179 394.404 6.60153L394.982 6.98986V5.82486C395.717 6.41513 395.764 5.76273 396.546 5.82486L395.764 6.78793L396.937 6.97433L396.749 6.19766C397.265 6.19766 397.64 6.29086 398.11 6.01126C398.672 5.66953 398.407 5.20353 399.282 5.82486V5.0482L401.237 4.65986V5.43653H401.628V4.65986L402.597 4.27153L403.958 4.84626L403.567 4.45793C403.567 4.31813 404.849 3.49486 404.927 3.49486C405.052 3.49486 405.193 3.8832 405.318 3.8832C405.443 3.8832 405.584 3.49486 405.709 3.49486C405.834 3.49486 405.975 3.8832 406.1 3.8832C406.209 3.8832 407.476 3.02887 407.664 2.7182L408.633 3.49486L409.415 3.10653V2.32987L409.993 2.7182C410.509 2.1124 411.823 2.1124 412.339 2.7182L412.917 1.5532L413.496 1.94153L415.06 1.16487L416.623 1.94153L417.796 0.776535C418.422 1.67747 418.828 0.776535 418.969 0.776535C419.031 0.776535 419.36 1.38233 419.938 1.16487V0.388202L420.517 0.776535C421.314 0.994002 421.627 0.388202 421.69 0.388202C421.815 0.388202 421.924 0.729935 422.081 0.776535C422.471 0.885268 422.925 0.590135 423.253 1.16487L423.441 -0.000130527C424.598 -0.170997 424.098 0.217336 424.223 0.962935C424.207 1.35127 424.801 1.07167 425.005 1.14933C425.036 1.14933 424.942 1.693 425.583 1.53767C425.818 1.46 425.755 1.3202 425.771 1.14933C426.646 1.4134 426.646 1.89493 427.522 0.761002C428.476 1.24253 428.304 0.869735 428.695 0.761002C429.445 0.543535 430.008 1.4134 430.837 1.14933V1.926L432.197 1.53767C432.823 2.17453 432.807 2.46967 433.558 1.926V2.70267H434.34L433.949 3.2774L435.512 3.091C434.856 3.96086 435.434 3.80553 435.903 4.4424C435.966 4.52006 435.841 4.73753 435.903 4.83073C436.294 5.43653 436.779 5.49866 437.467 5.40546L436.685 6.36853L437.858 6.55493L437.467 7.71993C438.218 7.56459 438.515 8.23253 439.031 8.68299C438.624 8.86939 438.874 9.66159 439.031 10.2363C439.265 11.1062 439.171 12.4421 439.422 13.7313C439.453 13.8556 440 14.1507 439.813 14.3061C439.187 14.3371 438.452 13.9799 438.64 14.8808L439.813 17.0088H438.64V17.7855C438.53 17.9098 437.358 17.0088 437.279 17.0088C437.154 17.0088 437.029 17.3816 436.888 17.3972C436.81 17.3972 436.31 16.4962 435.716 17.3972L436.294 15.8438L435.122 16.4186L436.294 15.0672C435.466 14.8186 434.856 15.6574 434.152 15.4555C433.683 15.3157 433.011 14.275 433.183 13.7158C433.667 12.1159 433.12 11.8673 433.573 10.2208C433.683 9.81692 432.901 9.22666 433.183 8.48106C431.697 8.82279 431.541 6.98986 430.055 7.31606V5.76273H430.837L431.416 6.53939H431.994C432.025 6.29086 431.932 5.90253 431.994 5.76273C431.994 5.7472 432.323 5.82486 432.385 5.57633C432.385 5.3278 432.01 5.40546 431.994 5.38993C431.916 5.31226 431.9 5.21906 431.603 5.0016C431.337 4.8152 431.322 4.79966 431.025 4.61326C430.759 4.45793 429.743 3.7434 429.664 3.8366V5.0016L427.71 4.61326L428.492 5.77826L427.131 5.38993C426.224 6.38406 425.474 5.6074 424.395 6.16659L423.613 5.38993C423.019 6.46173 422.034 5.85593 421.267 6.55493L420.877 5.77826L419.125 6.55493C419.094 6.30639 419.172 5.9802 419.125 5.77826C419.469 5.7006 419.923 5.82486 420.298 5.77826V4.22493L418.734 4.61326L419.907 4.22493V3.8366L418.547 3.44826C418.062 3.85213 416.874 4.33366 416.592 3.8366C416.264 3.96086 416.045 4.59773 416.014 4.61326C415.795 4.70646 415.185 4.55113 414.841 4.61326L414.262 5.77826L413.684 5.0016L414.262 4.22493L412.511 6.55493L412.323 4.61326L411.541 5.77826L410.369 6.55493L410.556 5.38993C409.493 5.26566 409.54 6.55493 408.602 5.77826V7.33159C409.118 7.22286 409.102 6.66366 409.571 7.33159C409.993 6.77239 410.322 6.77239 410.744 7.33159L412.104 6.94326C412.448 7.93739 410.681 8.52766 410.541 7.90633L410.15 7.33159C410.431 7.90633 409.118 9.04026 408.977 8.88492L408.398 7.71993L408.586 8.49659L407.226 9.27326C406.428 8.76066 406.131 9.27326 406.053 9.27326C405.865 9.27326 405.756 8.51213 405.271 9.27326L404.693 8.88492L404.114 10.0499C403.129 9.36646 402.769 10.314 402.159 10.4383C401.018 10.6868 399.079 10.9509 398.25 10.8266C397.25 12.3955 395.655 11.6965 394.341 11.9916C394.107 12.0382 393.825 12.8925 393.168 11.9916L393.356 12.7683C392.465 12.6751 391.386 13.0789 390.823 12.3799L389.463 13.5449L389.65 12.3799C389.806 12.4731 389.932 12.7683 390.041 12.7683C390.166 12.7683 391.527 11.2771 392.183 11.6033L391.996 10.0499L390.635 10.4383L391.417 11.2149C390.213 11.5256 390.025 10.3295 389.072 10.4383L389.65 11.6033L387.508 10.8266L387.696 11.6033C386.945 11.4635 386.679 11.9916 385.944 11.9916C385.976 11.5567 385.866 11.3237 386.335 11.0285L386.148 10.8421C385.757 11.3237 385.757 11.3237 385.366 10.8421L384.787 11.4169C385.178 11.9295 385.35 11.9916 385.96 11.9916C385.897 12.6285 385.991 13.2964 385.96 13.9333L385.569 13.1566H384.787V13.9333C384.005 13.8711 383.114 14.1973 382.645 13.5449C381.457 14.3371 379.94 14.5857 378.345 14.3216C377.563 14.1973 376.812 14.0886 375.999 14.3216C375.436 14.4769 367.853 12.5508 367.602 11.9916C368.056 11.8984 368.431 11.3547 369.166 11.6033V10.0499L367.212 9.86352L367.993 10.8266L366.43 10.4383V11.6033C366.101 11.3703 365.695 11.1994 365.46 10.8266L365.069 11.6033L364.287 10.8266C363.881 11.4945 363.427 10.5936 362.536 10.8266V10.0499C361.332 10.0344 360.331 10.3606 359.612 9.27326C359.08 10.1276 357.908 9.04026 357.267 8.88492C357.204 8.86939 356.579 9.81692 355.906 8.69852C356.782 7.59566 358.111 8.63639 358.83 7.34713L358.643 8.12379C359.503 8.21699 360.738 8.65193 360.597 9.67712C361.16 9.73926 361.817 9.59946 362.349 9.67712C362.489 9.69266 362.583 10.0344 362.739 10.0655C364.241 10.3451 364.741 9.73926 365.664 8.71406C365.351 8.55873 365.022 8.85386 364.491 8.90046L364.303 8.51213L364.115 8.90046C363.13 8.90046 362.333 8.86939 361.582 8.12379L361.004 8.90046V7.34713L359.44 7.73546L359.831 6.57046C358.987 6.63259 358.674 5.71613 358.08 6.57046L356.719 5.7938L357.501 6.95879L356.328 6.18213L355.75 7.73546L355.938 6.95879C355.156 7.02093 354.264 6.69473 353.795 7.34713L353.608 6.57046C352.873 6.29086 352.247 7.06753 351.856 6.95879C351.684 6.91219 351.45 6.33746 350.684 6.57046C350.48 6.63259 350.355 7.16073 349.714 6.95879L350.105 6.38406L349.136 5.03266L349.323 6.19766L348.541 6.38406L349.323 7.73546L348.541 6.95879H347.369V6.18213H346.79L346.602 6.95879L346.211 6.18213L344.648 6.95879L344.46 6.18213L342.897 7.34713C342.115 6.47726 340.958 7.16073 339.972 7.34713L338.8 6.57046L339.582 8.12379L338.8 7.34713C338.096 7.64226 337.502 6.95879 337.439 6.95879C337.314 6.95879 337.189 7.33159 337.048 7.34713C336.97 7.34713 336.141 6.61706 335.485 6.95879L335.672 7.73546L333.718 7.34713L334.109 6.57046L332.154 6.18213C331.982 4.75306 332.999 5.49866 333.515 6.18213L333.702 4.6288L334.875 5.59186V6.16659H335.657L335.469 5.0016L336.048 4.61326L336.626 5.38993C337.205 4.56666 337.987 4.45793 338.972 4.61326C339.519 4.70646 340.801 4.79966 341.708 4.61326C341.833 4.5822 341.927 4.31813 342.099 4.22493L342.287 4.79966L343.069 4.98606L342.287 5.3744L342.865 6.15106L343.444 5.3744L343.835 6.15106C344.648 5.66953 345.164 4.8152 345.977 5.76273L346.556 4.98606L345.774 3.82106L346.743 4.98606C347.259 4.256 347.212 4.89286 347.525 4.98606C347.978 5.11033 348.448 4.98606 348.698 4.59773H349.089C349.526 5.07926 350.214 5.38993 350.058 6.15106L350.449 5.3744L352.404 5.76273L352.795 4.2094L353.185 4.98606L353.967 4.2094L354.546 5.3744H356.688L355.906 4.59773C356.25 4.5356 356.844 4.69093 357.079 4.59773L357.267 4.98606C357.517 4.98606 357.439 4.61326 357.454 4.59773C357.876 4.28706 358.486 4.256 358.815 3.82106C359.815 4.722 360.926 5.68506 362.333 5.3744C363.083 5.20353 363.506 5.15693 364.287 4.98606C365.226 5.62293 366.117 6.29086 367.024 5.76273C367.806 6.94326 369.057 6.46173 370.339 6.53939V7.31606L370.917 6.92773L372.872 8.09273C373.404 8.23253 373.81 7.17626 374.436 8.09273L375.014 7.70439V8.48106L375.593 8.09273C376.328 8.58979 377.219 8.26359 378.329 8.09273C378.939 8.52766 380.081 8.91599 380.862 8.86939C380.862 9.05579 380.862 9.18006 381.05 9.25772C381.3 9.25772 381.222 8.88492 381.238 8.86939L381.347 8.94706ZM428.82 1.9726C428.57 1.9726 428.57 2.36093 428.82 2.36093C429.07 2.36093 429.07 1.9726 428.82 1.9726ZM425.896 3.52593L424.145 3.1376C423.957 3.80553 421.893 3.1376 422.393 4.10066C422.769 4.83073 423.785 4.61326 424.348 5.06373L423.175 4.28706L424.145 3.89873L424.723 5.06373C425.489 4.52006 425.474 4.8152 426.084 5.45206L427.444 4.28706H425.489L425.88 3.5104L425.896 3.52593ZM410.853 3.52593C410.603 3.52593 410.603 3.91426 410.853 3.91426C411.104 3.91426 411.104 3.52593 410.853 3.52593ZM421.783 3.52593C421.533 3.52593 421.533 3.91426 421.783 3.91426C422.034 3.91426 422.034 3.52593 421.783 3.52593ZM429.023 3.91426L427.46 3.52593L428.038 4.3026H429.008V3.91426H429.023ZM420.814 5.07926L421.783 5.4676L422.174 4.69093C421.705 5.40546 421.58 4.55113 420.814 4.69093V5.07926ZM337.783 5.07926C337.533 5.07926 337.533 5.4676 337.783 5.4676C338.034 5.4676 338.034 5.07926 337.783 5.07926ZM353.608 5.4676H352.826V5.85593H353.608V5.4676ZM422.565 5.4676C422.315 5.4676 422.315 5.85593 422.565 5.85593C422.815 5.85593 422.815 5.4676 422.565 5.4676ZM434.293 5.4676C434.043 5.4676 434.043 5.85593 434.293 5.85593C434.543 5.85593 434.543 5.4676 434.293 5.4676ZM359.659 5.85593C359.409 5.85593 359.409 6.24426 359.659 6.24426C359.909 6.24426 359.909 5.85593 359.659 5.85593ZM407.132 5.85593H406.35V7.40926H406.741C406.616 6.74133 406.819 6.39959 407.132 5.85593ZM341.693 6.24426C341.442 6.24426 341.442 6.63259 341.693 6.63259C341.943 6.63259 341.943 6.24426 341.693 6.24426ZM364.741 6.24426C364.491 6.24426 364.491 6.63259 364.741 6.63259C364.991 6.63259 364.991 6.24426 364.741 6.24426ZM434.011 6.55493L432.51 7.44033L432.995 8.23253L434.496 7.34713L434.011 6.55493ZM399.908 7.02093C399.658 7.02093 399.658 7.40926 399.908 7.40926C400.158 7.40926 400.158 7.02093 399.908 7.02093ZM405.959 7.02093H405.177V7.40926H405.959V7.02093ZM407.335 7.40926C407.085 7.40926 407.085 7.79759 407.335 7.79759C407.585 7.79759 407.585 7.40926 407.335 7.40926ZM364.35 7.79759C364.1 7.79759 364.1 8.18593 364.35 8.18593C364.6 8.18593 364.6 7.79759 364.35 7.79759ZM404.786 8.18593L402.441 7.99953L403.019 8.96259C403.363 8.17039 404.739 9.05579 404.771 8.18593H404.786ZM363.568 8.18593C363.318 8.18593 363.318 8.57426 363.568 8.57426C363.818 8.57426 363.818 8.18593 363.568 8.18593ZM399.72 9.33539V8.17039L397.766 8.74512L399.72 9.31986V9.33539ZM401.081 8.18593C400.83 8.18593 400.83 8.57426 401.081 8.57426C401.331 8.57426 401.331 8.18593 401.081 8.18593ZM378.032 8.57426C377.782 8.57426 377.782 8.96259 378.032 8.96259C378.282 8.96259 378.282 8.57426 378.032 8.57426ZM385.444 9.33539C385.194 9.33539 385.194 9.72372 385.444 9.72372C385.694 9.72372 385.694 9.33539 385.444 9.33539ZM396.984 9.33539H395.029V10.6868L396.593 10.5004L396.984 9.33539ZM434.684 9.33539C434.434 9.33539 434.434 9.72372 434.684 9.72372C434.934 9.72372 434.934 9.33539 434.684 9.33539ZM365.523 9.72372L365.335 9.91012L365.914 10.4849L366.101 10.2985L365.523 9.72372ZM382.52 9.72372H381.738V10.5004L382.52 9.72372ZM397.766 10.5004V9.72372H397.375V10.5004H397.766ZM435.466 9.72372C435.215 9.72372 435.215 10.1121 435.466 10.1121C435.716 10.1121 435.716 9.72372 435.466 9.72372ZM386.82 10.1121H386.038V10.5004H386.82V10.1121ZM371.183 10.5004H370.01V10.8887H371.183V10.5004ZM394.638 10.5004C393.794 10.2829 393.419 10.9353 392.684 10.8887V11.2771H394.044L394.623 10.5004H394.638ZM372.356 10.8887H371.574V11.2771H372.356V10.8887ZM435.075 11.2771C434.824 11.2771 434.824 11.6654 435.075 11.6654C435.325 11.6654 435.325 11.2771 435.075 11.2771ZM370.792 11.6654H369.62V12.0537H370.792V11.6654ZM372.747 12.0537C372.153 12.2091 372.043 11.7897 371.574 11.6654V12.4421H372.747V12.0537ZM376.656 11.6654H375.483V12.0537H376.656V11.6654ZM378.814 11.6654C378.564 11.6654 378.564 12.0537 378.814 12.0537C379.064 12.0537 379.064 11.6654 378.814 11.6654ZM373.732 12.0537C373.482 12.0537 373.482 12.4421 373.732 12.4421C373.982 12.4421 373.982 12.0537 373.732 12.0537ZM375.092 12.0537H374.311V12.4421H375.092V12.0537ZM384.474 12.4421L382.332 12.0537L382.145 13.0168L384.49 12.4421H384.474ZM392.089 12.0537C391.839 12.0537 391.839 12.4421 392.089 12.4421C392.34 12.4421 392.34 12.0537 392.089 12.0537ZM436.247 12.0537C435.997 12.0537 435.997 12.4421 436.247 12.4421C436.498 12.4421 436.498 12.0537 436.247 12.0537ZM375.483 12.8304L376.453 13.2187L376.844 12.4421C376.359 13.2032 376.234 12.2867 375.671 12.4421C375.515 12.4887 375.436 12.7993 375.28 12.8304C374.748 12.9391 373.497 12.4421 373.529 13.2187L375.671 13.6071L375.483 12.8304ZM381.159 12.4421L380.972 12.6285L381.55 13.2032L381.738 13.0168L381.159 12.4421ZM437.029 12.4421C436.779 12.4421 436.779 12.8304 437.029 12.8304C437.279 12.8304 437.279 12.4421 437.029 12.4421ZM438.984 12.4421C438.734 12.4421 438.734 12.8304 438.984 12.8304C439.234 12.8304 439.234 12.4421 438.984 12.4421ZM380.174 12.8304H378.22V13.2187H380.174V12.8304ZM435.075 12.8304C434.824 12.8304 434.824 13.2187 435.075 13.2187C435.325 13.2187 435.325 12.8304 435.075 12.8304Z" fill="#A5D1B9"/>
<path d="M381.347 8.94741C381.222 8.94741 381.081 8.94741 380.956 8.94741C380.956 8.76102 380.956 8.63675 381.144 8.55908L381.331 8.94741H381.347Z" fill="#A5D1B9"/>
<path d="M357.517 4.69107H357.126C357.126 4.69107 357.063 4.30273 357.313 4.30273L357.501 4.69107H357.517Z" fill="#A5D1B9"/>
<path d="M431.759 5.07959C431.697 5.53006 432.135 5.45239 432.15 5.46792C432.197 5.54559 432.119 5.73199 432.15 5.85626H430.978V5.07959H431.759Z" fill="#A5D1B9"/>
<path d="M416.514 5.07947L417.296 4.89307L416.905 5.4678L418.656 5.07947C418.922 5.328 419.141 5.48333 419.235 5.85613C418.375 6.04253 417.264 6.97453 417.092 7.02113C416.655 7.1454 414.669 7.48713 414.356 7.40946C414.09 7.34733 414.184 7.03666 414.168 7.02113C414.684 7.02113 414.684 6.6328 414.168 6.6328L416.514 5.07947Z" fill="#A5D1B9"/>
<path d="M367.68 12.0539C367.383 12.116 367.024 12.0228 366.711 12.0539C366.445 11.9917 366.539 11.6811 366.523 11.6655H367.493C367.759 11.7277 367.649 11.9607 367.68 12.0539Z" fill="#A5D1B9"/>
<path d="M314.922 9.72387L314.531 9.53747C314.531 9.28894 314.907 9.36661 314.922 9.35107V9.73941V9.72387Z" fill="#A5D1B9"/>
<path d="M317.268 9.72391C317.315 9.02491 317.127 8.63658 317.847 8.17058C318.253 8.83851 318.722 7.93758 319.598 8.17058L319.207 7.00558C320.771 6.78811 320.145 7.20751 320.38 7.58031C320.552 7.85991 320.989 8.27931 321.349 8.15504L321.928 7.37838L320.755 6.99004H322.115L322.897 6.21338C323.288 6.69491 323.288 6.69491 323.679 6.21338L324.648 7.17644C324.805 7.72011 323.882 7.89098 324.648 8.34144C325.352 8.74531 325.29 8.29484 325.821 8.15504C326.103 9.45984 324.961 8.57444 324.461 9.32004L323.288 8.54338L320.161 9.70837L318.988 8.54338L319.567 10.0967C318.832 9.44431 318.707 10.2365 318.206 10.0967C318.065 10.0501 317.612 9.83264 317.237 9.70837C317.221 9.95691 317.237 10.221 317.237 10.485L316.658 9.70837C315.798 10.1744 315.173 11.0753 314.125 10.8734L314.907 9.70837C315.423 9.70837 315.423 9.32004 314.907 9.32004C314.985 9.21131 315.298 8.77638 315.298 8.74531C315.376 8.34144 315.048 7.54924 315.485 7.39391L316.455 7.78224L315.673 9.72391L316.643 9.33557C316.799 9.56857 316.971 9.63071 317.221 9.72391H317.268ZM323.523 8.18611V7.40944H323.132V8.18611H323.523Z" fill="#A5D1B9"/>
<path d="M14.073 39.1904C14.4952 38.8797 15.1051 38.8486 15.4334 38.4137L15.8243 38.802L16.2153 38.0254L16.7938 39.1904L17.3724 38.802C17.6069 39.237 17.9197 39.1127 18.1542 39.1904C18.6233 39.3457 17.9978 40.1068 18.7328 39.967L17.7633 38.4137C17.2004 38.0875 17.8102 37.87 18.1542 38.0254C18.4357 38.1496 18.764 39.004 19.1237 38.6001L20.2964 38.4137L20.6873 39.967L19.1237 39.7806L19.5146 40.3554H17.1691L17.9509 39.5787L15.9964 39.967L15.6054 39.1904L15.2145 40.9301L14.636 41.5048L13.8541 40.7282C13.3381 41.4582 13.385 40.8214 13.0723 40.7282C12.5719 40.5884 12.2592 41.3029 12.1028 41.1165V40.3398C11.9777 40.3398 11.837 40.3398 11.7119 40.3398C11.7745 40.6971 11.6806 41.1165 11.7119 41.5048H9.75732L10.1482 40.3398L10.7268 40.7282C11.0239 40.2932 11.2428 40.3398 11.6963 40.3398C11.6494 40.0447 11.5243 39.9515 11.3054 39.7651L12.869 39.9515L12.4781 39.1748C12.8221 39.1127 13.4163 39.268 13.6509 39.1748L13.8385 39.5632C14.0887 39.5632 14.0105 39.1904 14.0261 39.1748L14.073 39.1904ZM14.6516 40.3554C14.4014 40.3554 14.4014 40.7437 14.6516 40.7437C14.9018 40.7437 14.9018 40.3554 14.6516 40.3554Z" fill="#A5D1B9"/>
<path d="M14.0732 39.1906H13.6822C13.6822 39.1906 13.6197 38.8022 13.8699 38.8022L14.0575 39.1906H14.0732Z" fill="#A5D1B9"/>
<path d="M328.604 6.24444C329.308 6.01144 329.965 5.07944 330.559 6.05804L328.995 6.24444V7.40944L328.026 7.0211L325.102 7.59584L325.68 6.24444L326.462 6.63277L328.417 5.46777L328.604 6.24444Z" fill="#A5D1B9"/>
<path d="M341.489 8.57422V9.35088C342.302 9.42855 343.318 8.90042 343.053 10.1275H340.519L338.768 9.16448L341.504 8.58975L341.489 8.57422Z" fill="#A5D1B9"/>
<path d="M287.574 23.6884L285.432 24.0768C284.775 24.9777 283.712 25.2884 282.898 24.2632L286.417 23.3001V22.5234C287.105 22.3992 287.699 22.9118 287.589 23.6884H287.574Z" fill="#A5D1B9"/>
<path d="M296.174 18.2519L299.692 17.4907L298.316 19.0285L297.144 18.6402L295.189 20.1935L296.565 19.0285L295.392 18.0655L296.174 18.2519Z" fill="#A5D1B9"/>
<path d="M350.089 8.94714L351.262 8.76074C350.84 9.10248 350.449 9.86361 349.901 9.72381C349.636 9.66167 349.729 9.35101 349.714 9.33548L350.105 8.94714H350.089Z" fill="#A5D1B9"/>
<path d="M350.089 8.94726L349.698 9.33559C349.385 9.19579 348.463 9.47539 348.134 9.33559C348.119 9.33559 348.197 9.00939 347.947 8.94726C347.697 8.94726 347.775 9.32006 347.759 9.33559C347.431 9.56859 347.024 9.80159 346.586 9.72393L347.165 8.55893C347.665 8.60553 348.26 8.48126 348.729 8.55893C349.198 8.63659 349.933 8.52786 350.089 8.94726Z" fill="#A5D1B9"/>
<path d="M347.744 9.33545H348.135C348.135 9.84805 347.744 9.84805 347.744 9.33545Z" fill="#A5D1B9"/>
<path d="M313.75 10.1123L312.78 11.2773L311.404 11.0909L313.75 10.1123Z" fill="#A5D1B9"/>
<path d="M331.732 7.021L330.95 7.59573V8.18599L329.386 7.79766L331.732 7.021Z" fill="#A5D1B9"/>
<path d="M318.831 12.4424L316.486 13.2191L318.05 11.8677L318.831 12.4424Z" fill="#A5D1B9"/>
<path d="M331.732 10.5004L330.356 10.8888L329.777 9.72378L331.529 9.33545L331.732 10.5004Z" fill="#A5D1B9"/>
<path d="M328.995 9.72363V10.5003L327.619 10.8886L327.041 10.112L328.995 9.72363Z" fill="#A5D1B9"/>
<path d="M321.568 11.6655C321.881 10.4539 323.116 11.2461 323.71 10.5005L323.898 10.6869C323.21 11.5568 322.694 11.8208 321.552 11.65L321.568 11.6655Z" fill="#A5D1B9"/>
<path d="M9.38183 40.7439L8.0058 41.9089L7.42725 40.542L9.38183 40.7439Z" fill="#A5D1B9"/>
<path d="M352.826 8.57422L353.607 9.72368H351.653L352.826 8.57422Z" fill="#A5D1B9"/>
<path d="M314.375 12.582L314.719 13.1412L313.062 14.1354L312.718 13.5606L314.375 12.582Z" fill="#A5D1B9"/>
<path d="M429.805 6.63277H428.632V6.24444H429.414V5.46777H429.805V6.63277Z" fill="#A5D1B9"/>
<path d="M282.101 24.8535V25.6302C281.538 25.0088 281.022 25.7389 280.928 25.6302V24.8535H282.101Z" fill="#A5D1B9"/>
<path d="M334.077 8.18604V8.57437C333.483 8.41903 333.373 8.83843 332.904 8.9627V8.18604H334.077Z" fill="#A5D1B9"/>
<path d="M3.90908 44.2231V44.6115C3.31488 44.4561 3.20543 44.8755 2.73633 44.9998V44.2231H3.90908Z" fill="#A5D1B9"/>
<path d="M6.64541 43.8506L6.05121 44.6117L5.47266 44.037V43.8506H6.64541Z" fill="#A5D1B9"/>
<path d="M6.25488 42.2971L5.66068 43.0738H4.30029L5.08213 42.0952L6.25488 42.2971Z" fill="#A5D1B9"/>
<path d="M22.2666 42.2971C21.7818 42.5456 20.9062 41.6758 21.0938 41.5204C21.5785 41.2719 22.4542 42.1418 22.2666 42.2971Z" fill="#A5D1B9"/>
<path d="M312.186 13.2188L311.404 13.9954V13.2188H312.186Z" fill="#A5D1B9"/>
<path d="M434.871 16.7137H434.089V16.5117L434.871 15.937V16.7137Z" fill="#A5D1B9"/>
<path d="M298.52 16.7139L297.738 17.4905V16.7139H298.52Z" fill="#A5D1B9"/>
<path d="M291.092 21.7464H290.31V20.9697L291.092 21.7464Z" fill="#A5D1B9"/>
<path d="M345.398 8.94727L344.616 9.72393V8.94727H345.398Z" fill="#A5D1B9"/>
<path d="M336.032 9.72393L335.047 10.1123L334.859 9.92586L336.032 8.94727V9.72393Z" fill="#A5D1B9"/>
<path d="M344.225 7.79785H343.053V8.18618H344.225V7.79785Z" fill="#A5D1B9"/>
<path d="M18.3576 42.6857L17.5758 43.4624V42.6857L16.7939 42.8721L17.3881 42.2974L18.3576 42.6857Z" fill="#A5D1B9"/>
<path d="M26.1759 39.9673H25.394V40.3556H26.1759V39.9673Z" fill="#A5D1B9"/>
<path d="M17.1847 40.7437H16.4028V41.132H17.1847V40.7437Z" fill="#A5D1B9"/>
<path d="M16.7937 41.5205H16.4028V42.2972H16.7937V41.5205Z" fill="#A5D1B9"/>
<path d="M268.434 25.2417H268.043V26.0184H268.434V25.2417Z" fill="#A5D1B9"/>
<path d="M386.82 13.6074H386.429L387.007 12.4424L387.211 12.6443L386.82 13.6074Z" fill="#A5D1B9"/>
<path d="M389.165 12.0537H388.774V12.8304H389.165V12.0537Z" fill="#A5D1B9"/>
<path d="M325.086 10.8887H324.695V11.6653H325.086V10.8887Z" fill="#A5D1B9"/>
<path d="M338.362 9.33545V9.72378L337.392 10.1121L337.189 9.92571L338.362 9.33545Z" fill="#A5D1B9"/>
<path d="M326.65 9.33545H325.868V9.72378H326.65V9.33545Z" fill="#A5D1B9"/>
<path d="M354.389 8.57422H353.999V9.35088H354.389V8.57422Z" fill="#A5D1B9"/>
<path d="M351.074 7.40918L351.653 7.98391L351.465 8.18585L350.871 7.59558L351.074 7.40918Z" fill="#A5D1B9"/>
<path d="M352.638 7.40918C352.888 7.40918 352.888 7.79751 352.638 7.79751C352.388 7.79751 352.388 7.40918 352.638 7.40918Z" fill="#A5D1B9"/>
<path d="M354.577 7.40918C354.827 7.40918 354.827 7.79751 354.577 7.79751C354.327 7.79751 354.327 7.40918 354.577 7.40918Z" fill="#A5D1B9"/>
<path d="M356.923 7.40918C357.173 7.40918 357.173 7.79751 356.923 7.79751C356.672 7.79751 356.672 7.40918 356.923 7.40918Z" fill="#A5D1B9"/>
<path d="M337.392 7.79785L337.58 7.98425L337.001 8.57452L336.813 8.37258L337.392 7.79785Z" fill="#A5D1B9"/>
<path d="M345.992 8.18604C346.243 8.18604 346.243 8.57437 345.992 8.57437C345.742 8.57437 345.742 8.18604 345.992 8.18604Z" fill="#A5D1B9"/>
<path d="M326.838 8.57422C327.088 8.57422 327.088 8.96255 326.838 8.96255C326.587 8.96255 326.587 8.57422 326.838 8.57422Z" fill="#A5D1B9"/>
<path d="M343.647 8.57422C343.897 8.57422 343.897 8.96255 343.647 8.96255C343.397 8.96255 343.397 8.57422 343.647 8.57422Z" fill="#A5D1B9"/>
<path d="M327.619 8.94727C327.869 8.94727 327.869 9.3356 327.619 9.3356C327.369 9.3356 327.369 8.94727 327.619 8.94727Z" fill="#A5D1B9"/>
<path d="M328.401 8.94727C328.651 8.94727 328.651 9.3356 328.401 9.3356C328.151 9.3356 328.151 8.94727 328.401 8.94727Z" fill="#A5D1B9"/>
<path d="M333.092 10.1123C333.342 10.1123 333.342 10.5006 333.092 10.5006C332.842 10.5006 332.842 10.1123 333.092 10.1123Z" fill="#A5D1B9"/>
<path d="M326.838 10.8887C327.088 10.8887 327.088 11.277 326.838 11.277C326.587 11.277 326.587 10.8887 326.838 10.8887Z" fill="#A5D1B9"/>
<path d="M273.313 12.0537C273.563 12.0537 273.563 12.442 273.313 12.442C273.063 12.442 273.063 12.0537 273.313 12.0537Z" fill="#A5D1B9"/>
<path d="M315.907 12.4424C316.158 12.4424 316.158 12.8307 315.907 12.8307C315.657 12.8307 315.657 12.4424 315.907 12.4424Z" fill="#A5D1B9"/>
<path d="M309.653 12.8306C309.903 12.8306 309.903 13.2189 309.653 13.2189C309.403 13.2189 309.403 12.8306 309.653 12.8306Z" fill="#A5D1B9"/>
<path d="M310.435 12.8306C310.685 12.8306 310.685 13.2189 310.435 13.2189C310.185 13.2189 310.185 12.8306 310.435 12.8306Z" fill="#A5D1B9"/>
<path d="M387.789 13.2188C388.039 13.2188 388.039 13.6071 387.789 13.6071C387.539 13.6071 387.539 13.2188 387.789 13.2188Z" fill="#A5D1B9"/>
<path d="M310.825 13.6074C311.076 13.6074 311.076 13.9958 310.825 13.9958C310.575 13.9958 310.575 13.6074 310.825 13.6074Z" fill="#A5D1B9"/>
<path d="M300.662 17.4907C300.912 17.4907 300.912 17.8791 300.662 17.8791C300.412 17.8791 300.412 17.4907 300.662 17.4907Z" fill="#A5D1B9"/>
<path d="M294.798 18.6401C295.048 18.6401 295.048 19.0285 294.798 19.0285C294.548 19.0285 294.548 18.6401 294.798 18.6401Z" fill="#A5D1B9"/>
<path d="M280.74 26.0181C280.991 26.0181 280.991 26.4064 280.74 26.4064C280.49 26.4064 280.49 26.0181 280.74 26.0181Z" fill="#A5D1B9"/>
<path d="M256.895 31.4395C257.145 31.4395 257.145 31.8278 256.895 31.8278C256.644 31.8278 256.644 31.4395 256.895 31.4395Z" fill="#A5D1B9"/>
<path d="M20.1242 40.7437C20.3743 40.7437 20.3743 41.132 20.1242 41.132C19.874 41.132 19.874 40.7437 20.1242 40.7437Z" fill="#A5D1B9"/>
<path d="M18.5607 41.1323C18.8109 41.1323 18.8109 41.5207 18.5607 41.5207C18.3105 41.5207 18.3105 41.1323 18.5607 41.1323Z" fill="#A5D1B9"/>
<path d="M18.9518 42.2974C19.202 42.2974 19.202 42.6857 18.9518 42.6857C18.7016 42.6857 18.7016 42.2974 18.9518 42.2974Z" fill="#A5D1B9"/>
<path d="M13.8698 43.0737C14.12 43.0737 14.12 43.4621 13.8698 43.4621C13.6196 43.4621 13.6196 43.0737 13.8698 43.0737Z" fill="#A5D1B9"/>
<path d="M4.48793 43.4624C4.73812 43.4624 4.73812 43.8507 4.48793 43.8507C4.23775 43.8507 4.23775 43.4624 4.48793 43.4624Z" fill="#A5D1B9"/>
<path d="M14.6515 43.4624C14.9017 43.4624 14.9017 43.8507 14.6515 43.8507C14.4013 43.8507 14.4013 43.4624 14.6515 43.4624Z" fill="#A5D1B9"/>
</g>
<defs>
<clipPath id="clip0_2025_6338">
<rect width="440" height="45" fill="white"/>
</clipPath>
</defs>
</svg>
