<svg width="502" height="37" viewBox="0 0 502 37" fill="none" xmlns="http://www.w3.org/2000/svg">
<g clip-path="url(#clip0_2025_5932)">
<path d="M499.994 1.34326L500.168 2.91653e-05L500.836 2.92238e-05L500.997 0.664861L502 0.33923L501.171 1.34326L499.994 1.34326Z" fill="#A5D1B9"/>
<path d="M3.34363 20.6639L3.83848 19.9855C4.50721 19.9313 4.94856 19.9041 5.33643 20.4875L5.17594 20.6504C4.69445 19.7684 3.6245 20.881 3.34363 20.6504L3.34363 20.6639Z" fill="#A5D1B9"/>
<path d="M140.714 35.5752L141.382 34.8968L141.382 35.5752L140.714 35.5752Z" fill="#A5D1B9"/>
<path d="M498.322 0.339355L498.991 0.339355L498.991 0.0001553L498.322 0.000155241L498.322 0.339355Z" fill="#A5D1B9"/>
<path d="M141.382 34.5576L141.717 34.5576L141.717 33.8792L141.382 33.8792L141.382 34.5576Z" fill="#A5D1B9"/>
<path d="M142.385 34.5576L142.72 34.5576L142.72 33.8792L142.385 33.8792L142.385 34.5576Z" fill="#A5D1B9"/>
<path d="M139.376 35.9146L140.045 35.9146L140.045 35.5754L139.376 35.5754L139.376 35.9146Z" fill="#A5D1B9"/>
<path d="M142.212 35.2363C141.998 35.2363 141.998 34.8971 142.212 34.8971C142.426 34.8971 142.426 35.2363 142.212 35.2363Z" fill="#A5D1B9"/>
<path d="M138.853 33.5262L139.024 33.3535L138.522 32.8451L138.352 33.0178L138.853 33.5262Z" fill="#A5D1B9"/>
<path d="M143.883 36.5928C143.669 36.5928 143.669 36.2536 143.883 36.2536C144.097 36.2536 144.097 36.5928 143.883 36.5928Z" fill="#A5D1B9"/>
<path d="M259.359 13.5547L259.025 13.5547C259.025 13.1069 259.359 13.1069 259.359 13.5547Z" fill="#A5D1B9"/>
<path d="M358.625 14.5723L358.291 14.5723C358.291 14.1245 358.625 14.1245 358.625 14.5723Z" fill="#A5D1B9"/>
<path d="M243.31 13.5547L242.975 13.5547C242.975 13.1069 243.31 13.1069 243.31 13.5547Z" fill="#A5D1B9"/>
<path d="M437.829 7.78821C438.244 7.59826 440.892 7.50329 441.333 7.78821C442.323 7.01484 443.513 7.15052 444.677 7.44901C446.977 6.22789 450.093 6.52639 452.701 6.09221C452.982 6.03794 454.841 5.41381 455.042 5.41381C456.634 5.41381 459.71 5.61733 461.061 4.73541C462.278 5.37311 463.374 4.6133 464.404 4.39621C464.979 4.2741 465.702 4.66757 466.076 4.05701L466.905 4.55903L466.237 5.06105C467.119 4.81682 467.935 5.61733 468.738 5.40024C469.018 5.31884 469.353 4.74898 469.232 4.38265L466.892 4.21983L467.721 3.71781L471.56 3.71781L471.56 3.03941C473.071 3.2158 475.291 3.40575 476.736 2.36101C477.525 2.79519 478.327 2.56454 479.076 2.02181L480.748 2.36101C481.082 2.08966 482.005 1.38412 482.246 1.859L481.577 2.5374L482.406 3.03942L483.236 2.70021L483.236 1.68261L482.232 1.34341C483.048 1.27557 483.944 1.43839 484.734 1.34341C485.442 1.26201 489.08 0.230838 489.415 0.325812C490.19 0.542903 494.056 0.556469 495.433 0.325813C495.567 0.298679 495.661 -0.0133861 495.768 -0.0133861C495.834 -0.0133861 496.329 0.583606 496.931 0.325813L497.426 1.34341L497.76 0.325813L499.258 1.00422C499.446 2.07609 498.897 1.50623 498.429 1.68261C498.148 1.79116 498.202 2.30674 497.76 1.68261C496.236 3.35148 493.868 2.65951 492.41 3.71781L491.742 3.37862C489.615 4.9118 486.432 4.69471 484.051 6.09222L483.048 5.75302C481.911 6.67564 480.721 6.71634 479.705 6.43142C478.822 6.18719 475.144 7.95103 473.352 7.44902C473.017 7.35404 470.396 8.46662 470.008 8.46662C469.219 8.46661 466.678 8.52089 465.661 8.80582C465.367 8.88722 464.859 9.91839 463.829 9.48422L463.99 8.80582C463.468 9.53849 462.612 9.82341 461.983 9.14501C460.887 9.75558 458.774 10.1219 457.637 9.82341C455.657 11.2074 452.541 10.8546 450.615 11.1802C446.991 11.7908 443.125 12.6049 439.581 12.1978C438.819 13.1883 437.414 13.0662 436.572 12.8762C435.555 12.6456 433.83 13.3782 432.894 13.5546C432.238 13.6767 431.596 13.5682 431.061 13.2154L431.061 13.8938C430.473 14.1652 429.951 13.5546 429.898 13.5546C428.132 13.6767 425.819 14.8707 424.214 14.233L423.211 14.9114C421.432 14.3823 420.549 15.3863 418.864 14.9114C418.249 14.735 415.828 16.3632 415.186 14.9114C413.728 16.1461 411.347 15.617 409.502 15.929C408.231 16.1461 406.332 16.0104 404.821 16.2682C404.687 16.2954 404.526 16.7974 403.991 16.6074L403.831 15.929C403.443 16.526 402.761 16.1597 402.159 16.2682C401.223 16.431 399.885 16.7024 398.481 16.9466C397.291 17.1501 395.552 16.9873 394.469 17.2858C392.824 17.7336 391.219 16.6074 389.788 17.9642C389.213 17.0959 388.383 17.9235 388.116 17.9642C386.35 18.2356 384.772 17.1501 383.435 18.3034C376.627 17.7064 369.806 19.7416 362.718 18.9818C362.316 19.5245 359.936 19.7281 359.708 19.6602C357.421 19.0225 352.499 19.8773 349.677 19.9994L348.674 19.321C345.571 20.7049 341.8 19.0496 338.643 20.3386C333.24 19.728 328.292 20.5964 322.607 19.9994L321.939 20.6778C321.337 19.728 319.183 20.7456 318.929 20.6778C317.833 20.3657 316.549 20.1487 315.251 20.3386C315.158 20.3522 314.69 20.9356 314.088 20.6778L314.088 19.9994L313.593 20.3386C313.232 19.7145 312.964 20.5421 312.255 20.3386C311.052 19.9858 308.564 20.5557 307.24 20.3386C305.675 20.0808 304.298 20.6371 302.559 20.3386C301.716 20.1894 300.967 19.9994 299.884 19.6602C299.015 19.3888 298.747 20.61 297.878 20.3386C295.818 19.7009 292.247 19.9044 290.187 19.9994L289.519 19.321L288.516 19.9994C287.352 19.416 285.56 19.3074 284.503 19.9994L283.5 19.321C282.711 20.0265 281.28 19.7009 280.491 18.9818C279.662 20.4064 278.525 19.1175 277.816 19.321C277.682 19.3617 277.589 19.6602 277.482 19.6602C270.259 19.6602 261.218 18.4255 253.755 18.9818C251.816 17.5707 249.221 18.9818 247.068 18.9818C246.038 18.9818 244.888 18.4526 243.724 18.6426C240.889 19.1175 238.522 18.5069 235.7 18.9818C234.603 19.1718 232.837 19.0632 231.353 19.321C228.638 19.7823 225.053 19.6059 221.991 19.9994C221.148 20.1079 220.225 20.5421 218.981 20.3386C216.24 19.8773 213.311 21.5869 210.622 21.017C209.887 21.6683 208.67 22.0889 207.947 21.3562C204.43 23.4321 201.046 21.519 197.917 23.3914L196.913 23.0522C196.392 23.7849 195.536 24.0698 194.907 23.3914C192.767 24.8839 190.106 23.6356 187.886 25.0874C186.655 24.5311 184.796 26.1321 183.539 25.4266L182.87 26.105L182.201 25.7658L181.533 26.4442C178.671 26.6884 175.915 27.9774 173.174 28.4794C172.572 28.5879 171.395 28.7372 171.167 28.4794L170.164 29.497L169.001 29.1578L169.001 29.8362C168.185 29.6055 167.503 30.3518 167.168 29.8362C165.844 31.098 162.969 30.9895 161.819 31.5322C160.521 32.1428 159.117 32.5769 157.806 32.889C156.857 33.1197 155.88 33.5403 154.971 32.889L154.971 33.5674L153.968 33.5674L153.968 34.2458C153.085 33.9337 152.082 35.1277 151.467 35.2634C150.129 35.5619 149.969 35.087 148.457 35.9418C147.428 36.5252 147.414 36.376 146.451 36.6202C146.264 36.6609 145.89 37.2172 145.288 36.9594L145.288 35.9418L145.622 35.779L145.288 35.6162C145.234 34.6393 146.906 33.3774 146.625 35.1142L145.956 35.6162L147.294 35.277C146.625 34.49 147.428 34.178 147.294 33.2418L148.631 33.581L148.297 32.5634C149.113 32.7805 149.206 32.3327 149.634 32.0613C150.062 31.79 150.624 32.0071 150.972 31.3829L148.805 31.885L148.31 31.2066L150.143 30.8674C151.092 29.4834 152.456 29.5377 153.821 29.1714C155.613 28.6829 157.178 27.7603 158.836 27.1362C159.973 26.702 161.31 27.0412 162.18 26.797C162.514 26.702 164.092 25.6437 164.855 25.4402C166.058 25.1145 167.249 24.504 168.198 24.7618C168.706 24.8974 170.445 23.8391 170.873 23.7442C171.448 23.6221 172.358 23.8934 172.879 23.7442C172.973 23.717 173.976 22.7266 174.217 22.7266C176.089 22.7266 176.865 21.9939 178.564 21.709C179.526 21.5461 180.65 21.5461 181.399 21.709L181.399 21.0306C182.135 20.922 182.817 20.827 183.566 20.6914C184.034 20.61 184.85 20.0944 185.237 20.013C187.297 19.5652 190.346 20.3657 191.925 18.6562C192.848 19.2532 194.145 17.9642 194.934 18.6562L195.603 17.9778C197.208 17.9913 198.558 17.7878 200.11 17.6386L200.27 17.9778L200.431 17.6386C201.046 17.5572 201.167 17.3265 201.26 17.2994C204.684 16.526 207.6 16.933 210.957 15.9426L211.96 16.621L212.628 15.9426C213.899 16.1189 215.049 15.5898 215.972 15.9426C216.788 14.7893 217.189 15.3863 217.978 15.6034C218.353 15.7119 221.228 14.2194 221.991 14.925L222.994 14.2466C224.746 15.1149 226.739 13.7988 228.344 14.2466C228.624 14.328 229.895 13.7717 230.35 13.9074C231.701 14.328 233.386 14.3551 235.031 13.9074C235.807 13.6903 237.786 13.826 238.709 13.9074L239.712 13.229C240.247 13.9888 242.721 13.4868 242.882 13.5682C242.895 13.5682 242.828 13.9074 243.042 13.9074C243.27 13.8531 243.189 13.5817 243.203 13.5682C243.764 13.3104 248.004 13.4461 248.713 13.5682C249.556 13.7174 250.117 13.1611 250.385 13.229C252.404 13.7853 254.37 14.4501 256.403 13.229C257.045 14.2466 258.624 13.4325 258.904 13.5682C258.918 13.5682 258.851 13.9074 259.065 13.9074L259.225 13.5682L259.72 13.9074C261.084 13.6496 264.495 13.5682 266.408 13.9074C266.541 13.9345 266.702 14.4365 267.237 14.2466L267.076 13.5682C267.558 14.1923 268.427 13.7988 269.082 13.9074C270.019 14.0702 272.239 13.8531 272.426 13.9074C274.767 14.5586 278.552 14.7622 281.12 14.2466C281.36 14.423 282.296 14.8843 282.457 14.925C282.791 14.9928 283.259 14.8843 283.621 14.925L283.286 14.423L285.627 14.925L285.627 14.2466C285.76 14.0838 286.015 14.5586 286.122 14.5858C286.964 14.7622 288.636 15.1149 289.465 14.925C290.201 14.7622 292.501 14.7486 293.143 14.925C294.521 15.3049 296.206 15.2099 297.156 15.6034L297.824 14.925C298.613 14.6265 299.483 15.2099 299.83 15.2642C300.392 15.3591 301.088 15.0064 301.502 15.6034L301.342 14.925C301.85 14.735 302.104 15.2642 302.171 15.2642C303.682 15.2642 305.341 14.9385 307.521 15.2642C307.614 15.2777 308.083 15.8612 308.684 15.6034L308.684 14.925C309.861 15.6712 311.533 15.0199 312.857 15.2642C314.476 15.5627 315.599 15.1692 317.204 15.6034L317.699 15.2642L317.859 15.6034C318.073 15.6034 318.007 15.2777 318.02 15.2642C318.635 14.9928 319.25 15.7933 319.852 15.6034C321.725 15.0335 322.193 15.3727 323.53 15.6034C325.643 15.9561 327.569 14.6672 329.214 15.9426L329.883 15.2642C331.234 16.119 332.825 14.9657 334.564 15.2642C335.474 15.4134 337.092 14.8843 337.239 14.925C339.499 15.5627 342.482 14.3958 344.595 15.6034L345.264 15.6034C346.24 14.8029 347.39 15.0742 348.273 14.925C349.156 14.7757 350.105 15.3184 350.279 15.2642C352.82 14.5586 352.994 14.5315 355.295 14.925C356.298 15.1014 357.796 14.4365 358.13 14.5858C358.143 14.5858 358.077 14.8707 358.291 14.925C358.505 14.925 358.438 14.5993 358.451 14.5858C358.946 14.2059 359.655 14.138 360.283 14.2466C361.527 14.4501 363.654 14.0024 365.299 14.2466C365.406 14.2601 365.887 14.8571 366.462 14.5858L366.302 13.9074C366.73 13.9616 367.238 13.8395 367.639 13.9074C368.79 14.1109 368.937 14.3551 370.314 13.9074C371.812 13.4189 375.637 13.9752 378.339 13.5682C379.596 13.3782 381.188 12.9712 382.351 13.229C383.515 13.4868 385.307 13.039 386.524 13.229L386.364 12.5506C386.645 12.9712 387.22 12.9712 387.701 12.8898C388.53 12.7405 388.37 12.6591 389.373 12.8898C390.577 13.1611 392.57 12.6863 393.88 12.8898L393.88 12.2114C394.562 11.8857 395.619 12.5506 395.713 12.5506C395.82 12.5506 395.94 12.2114 396.047 12.2114C396.127 12.2114 396.903 12.8491 397.545 12.5506L397.545 11.8722C398.267 12.1978 400.247 11.4923 400.38 11.533C401.37 11.8043 404.018 11.9265 405.061 11.1938C407.843 11.8993 412.578 9.94552 415.092 10.5154C416.256 10.7732 417.419 9.83698 418.102 9.83698C419.105 9.83698 419.533 10.0676 420.776 9.83698C421.552 9.7013 422.649 9.76914 423.277 10.1762L423.772 9.15858C424.067 9.59276 424.909 9.59276 425.444 9.49778C427.424 9.13144 430.299 8.73797 432.466 8.81938L433.469 8.14098C434.673 8.43948 436.037 8.31736 437.307 7.80178L437.468 8.14098C437.682 8.14098 437.615 7.81535 437.628 7.80178L437.829 7.78821ZM148.564 34.5579C148.778 34.5579 148.778 34.2187 148.564 34.2187C148.35 34.2187 148.35 34.5579 148.564 34.5579ZM302.305 18.2898C302.519 18.2898 302.519 17.9506 302.305 17.9506C302.091 17.9506 302.091 18.2898 302.305 18.2898ZM332.384 17.6114C332.598 17.6114 332.598 17.2722 332.384 17.2722C332.17 17.2722 332.17 17.6114 332.384 17.6114ZM346.762 16.933L347.257 16.431L347.096 16.2682L346.601 16.7702L346.762 16.933ZM330.044 16.933C330.258 16.933 330.258 16.5938 330.044 16.5938C329.83 16.5938 329.83 16.933 330.044 16.933ZM324.199 16.933L325.028 16.933L325.523 16.2546L324.186 16.5938L324.186 16.933L324.199 16.933ZM326.539 16.5938L327.208 16.5938L327.208 16.2546L326.539 16.2546L326.539 16.5938ZM306.143 16.5938L306.812 16.5938L306.812 16.2546L306.143 16.2546L306.143 16.5938ZM296.286 16.5938C296.5 16.5938 296.5 16.2546 296.286 16.2546C296.072 16.2546 296.072 16.5938 296.286 16.5938ZM363.306 15.237C363.092 15.6576 363.841 16.4175 363.975 16.2546C364.189 15.834 363.44 15.0742 363.306 15.237ZM299.63 16.2546C299.844 16.2546 299.844 15.9154 299.63 15.9154C299.416 15.9154 299.416 16.2546 299.63 16.2546ZM298.961 16.2546C299.175 16.2546 299.175 15.9154 298.961 15.9154C298.747 15.9154 298.747 16.2546 298.961 16.2546ZM283.005 15.929C283.005 16.1597 283.193 16.3496 283.42 16.3496C283.647 16.3496 283.835 16.1597 283.835 15.929C283.835 15.6983 283.647 15.5084 283.42 15.5084C283.193 15.5084 283.005 15.6983 283.005 15.929ZM365.968 15.237L366.462 15.9154L367.466 15.9154L367.96 15.237C367.359 14.9792 366.85 15.5762 366.797 15.5762C366.73 15.5762 366.462 15.0471 365.968 15.237ZM362.303 15.237L362.972 15.9154L362.972 15.237L362.303 15.237ZM361.126 15.9154C361.34 15.9154 361.34 15.5762 361.126 15.5762C360.912 15.5762 360.912 15.9154 361.126 15.9154ZM355.107 15.9154C355.321 15.9154 355.321 15.5762 355.107 15.5762C354.893 15.5762 354.893 15.9154 355.107 15.9154ZM347.43 15.9154C347.644 15.9154 347.644 15.5762 347.43 15.5762C347.216 15.5762 347.216 15.9154 347.43 15.9154ZM288.262 15.9154C288.476 15.9154 288.476 15.5762 288.262 15.5762C288.048 15.5762 288.048 15.9154 288.262 15.9154ZM267.879 15.5762C268.093 15.5762 268.093 15.237 267.879 15.237C267.665 15.237 267.665 15.5762 267.879 15.5762ZM371.491 15.237C371.705 15.237 371.705 14.8978 371.491 14.8978C371.277 14.8978 371.277 15.237 371.491 15.237ZM260.188 15.237C260.402 15.237 260.402 14.8978 260.188 14.8978C259.974 14.8978 259.974 15.237 260.188 15.237ZM248.994 15.237L250.331 15.237L250.331 14.8978L248.994 14.8978L248.994 15.237ZM391.045 13.5546L391.54 14.233L392.369 13.8938L391.874 13.2154L391.045 13.5546ZM390.537 13.8938C390.751 13.8938 390.751 13.5546 390.537 13.5546C390.323 13.5546 390.323 13.8938 390.537 13.8938ZM399.564 13.2154C399.778 13.2154 399.778 12.8762 399.564 12.8762C399.35 12.8762 399.35 13.2154 399.564 13.2154ZM404.58 12.8762C404.794 12.8762 404.794 12.537 404.58 12.537C404.366 12.537 404.366 12.8762 404.58 12.8762ZM408.084 11.8586L408.084 12.537L408.418 12.537L408.418 11.8586L408.084 11.8586ZM413.929 12.1978C414.143 12.1978 414.143 11.8586 413.929 11.8586C413.715 11.8586 413.715 12.1978 413.929 12.1978ZM412.926 12.1978C413.14 12.1978 413.14 11.8586 412.926 11.8586C412.712 11.8586 412.712 12.1978 412.926 12.1978ZM409.595 12.1978C409.809 12.1978 409.809 11.8586 409.595 11.8586C409.381 11.8586 409.381 12.1978 409.595 12.1978ZM423.96 10.841C424.174 10.841 424.174 10.5018 423.96 10.5018C423.746 10.5018 423.746 10.841 423.96 10.841ZM426.635 10.5018C426.848 10.5018 426.848 10.1626 426.635 10.1626C426.421 10.1626 426.421 10.5018 426.635 10.5018ZM424.963 10.5018C425.177 10.5018 425.177 10.1626 424.963 10.1626C424.749 10.1626 424.749 10.5018 424.963 10.5018ZM425.631 10.1626C425.845 10.1626 425.845 9.82341 425.631 9.82341C425.417 9.82341 425.417 10.1626 425.631 10.1626ZM435.328 9.48421C435.542 9.48421 435.542 9.14501 435.328 9.14501C435.114 9.14501 435.114 9.48421 435.328 9.48421ZM452.033 8.46661L452.193 8.3038L451.364 7.46258L451.204 7.6254L452.033 8.46661ZM445.68 8.46661C445.894 8.46661 445.894 8.12741 445.68 8.12741C445.466 8.12741 445.466 8.46661 445.68 8.46661ZM444.182 8.46661L444.851 8.46661L444.356 7.78821L444.195 7.78821L444.195 8.46661L444.182 8.46661ZM453.544 7.78821L454.213 7.10981L455.216 6.947L454.052 6.78418L453.557 7.80178L453.544 7.78821ZM465.407 6.77061C465.621 6.77061 465.621 6.43141 465.407 6.43141C465.193 6.43141 465.193 6.77061 465.407 6.77061ZM464.07 6.43141C464.284 6.43141 464.284 6.09221 464.07 6.09221C463.856 6.09221 463.856 6.43141 464.07 6.43141ZM460.887 5.75301C461.194 6.78418 461.448 6.13292 461.716 6.09221C462.492 5.99724 463.348 6.41785 463.883 5.5902L462.545 5.5902L460.873 5.75301L460.887 5.75301ZM465.073 6.09221L465.233 5.9294L464.739 5.42738L464.578 5.5902L465.073 6.09221ZM469.246 5.75301L469.915 5.75301L469.915 5.41381L469.246 5.41381L469.246 5.75301ZM472.589 5.41381L473.258 5.41381L473.258 5.07462L472.589 5.07462L472.589 5.41381ZM469.58 5.07461L470.583 5.41381L470.744 4.73541C471.145 5.22386 472.536 5.46809 472.242 4.39621L469.567 4.39621L469.567 5.07461L469.58 5.07461ZM465.407 5.41381C465.621 5.41381 465.621 5.07461 465.407 5.07461C465.193 5.07461 465.193 5.41381 465.407 5.41381ZM481.443 5.07462C481.657 5.07462 481.657 4.73541 481.443 4.73541C481.229 4.73541 481.229 5.07462 481.443 5.07462ZM482.955 4.39622L484.627 3.555L484.466 3.39218C484.051 4.05702 483.958 3.39218 483.797 3.39218C483.73 3.39218 483.463 3.92134 482.968 3.73138L482.968 4.40978L482.955 4.39622ZM477.939 3.71781L477.779 4.39622C478.34 3.82636 478.688 3.17509 479.611 3.37861L478.447 2.70021L477.444 3.37861L474.275 3.88063C475.131 5.07462 475.398 3.81279 475.773 3.71781C476.348 3.56857 477.297 3.82636 477.939 3.71781ZM472.589 4.39622L473.927 4.05701L473.766 3.41932L472.429 3.75852L472.589 4.39622ZM481.283 3.03942L481.283 3.71781L481.617 3.71781L481.617 3.03942L481.283 3.03942ZM494.818 2.70021C495.032 2.70021 495.032 2.36101 494.818 2.36101C494.604 2.36101 494.604 2.70021 494.818 2.70021ZM483.958 2.36101L486.298 1.859L485.295 1.859L483.958 2.36101ZM486.633 2.02182C487.221 1.96754 487.903 2.10322 488.465 2.02182C488.585 2.00825 488.666 1.70975 488.799 1.68261C489.455 1.5605 490.137 1.98111 490.632 1.1806L487.462 1.34341L486.633 2.02182ZM492.812 1.34341C493.026 1.34341 493.026 1.00421 492.812 1.00421C492.598 1.00421 492.598 1.34341 492.812 1.34341ZM492.143 1.34341C492.357 1.34341 492.357 1.00421 492.143 1.00421C491.929 1.00421 491.929 1.34341 492.143 1.34341ZM491.14 1.34341C491.354 1.34341 491.354 1.00421 491.14 1.00421C490.926 1.00421 490.926 1.34341 491.14 1.34341ZM494.31 1.00421L496.316 1.00421L496.316 0.665016L494.31 0.665016L494.31 1.00421Z" fill="#A5D1B9"/>
<path d="M318.18 15.2368L317.846 15.2368C317.846 14.7891 318.18 14.7891 318.18 15.2368Z" fill="#A5D1B9"/>
<path d="M145.395 35.9145C145.221 36.0638 144.539 35.9688 144.726 35.5753L145.395 35.5753C145.395 35.5753 145.448 35.8602 145.395 35.9145Z" fill="#A5D1B9"/>
<path d="M200.538 17.6112C200.431 17.6247 200.31 17.6112 200.203 17.6112L200.364 17.272L200.524 17.6112L200.538 17.6112Z" fill="#A5D1B9"/>
<path d="M437.829 7.78809L437.494 7.78809C437.494 7.34034 437.829 7.34034 437.829 7.78809Z" fill="#A5D1B9"/>
<path d="M89.2349 23.0387L89.5692 23.0387C89.5692 23.0387 89.6094 23.3779 89.4087 23.3779C89.1814 23.3237 89.2616 23.0523 89.2483 23.0387L89.2349 23.0387Z" fill="#A5D1B9"/>
<path d="M157.084 21.6818C157.084 21.6818 156.857 21.7089 156.75 21.6818C156.763 21.6818 156.696 21.3969 156.91 21.3426C157.124 21.3426 157.057 21.6682 157.071 21.6818L157.084 21.6818Z" fill="#A5D1B9"/>
<path d="M54.1536 25.4128L54.488 25.4128C54.488 25.4128 54.5415 25.6977 54.3275 25.752C54.1135 25.752 54.1803 25.4263 54.167 25.4128L54.1536 25.4128Z" fill="#A5D1B9"/>
<path d="M152.737 26.4303C152.563 25.969 152.416 26.1047 152.403 26.0911C152.363 26.0233 152.43 25.8605 152.403 25.7519L153.072 25.7519L153.072 25.0735L154.409 24.9107L155.412 24.7479L154.583 24.4087L153.754 23.3911L155.091 23.5539L154.757 22.7127L156.429 23.0519C156.455 22.8348 156.375 22.5363 156.429 22.3735C156.803 22.4413 156.91 22.862 157.432 22.7127C157.565 22.577 157.231 21.8036 157.097 21.6951C157.592 21.9258 158.1 20.8675 158.595 21.6951C159.291 21.0303 160.053 20.3654 160.093 19.3207C159.866 19.09 158.154 20.4876 158.421 18.9815L159.759 18.6423L159.424 17.9639L160.428 17.9639L160.428 16.9463L161.765 16.9463L161.765 17.6247L162.594 16.9463L163.263 17.2855L163.758 16.6071L161.752 15.9287L163.25 16.2679L163.744 15.7659L163.076 15.4267L164.079 14.9247L164.239 15.2639C164.453 15.2639 164.386 14.9382 164.4 14.9247C164.453 14.884 165.068 14.9247 165.563 14.2463C165.831 13.8799 165.898 13.3508 166.393 13.0659C165.924 12.8216 165.55 13.7578 165.229 13.9071C164.721 14.1649 164.614 13.6493 164.734 13.2287L165.403 13.0659L165.403 12.5638L166.072 12.5638C165.456 11.8176 166.473 11.3427 167.075 10.8678C167.262 10.7186 167.77 10.61 167.743 10.1894C166.994 9.93164 166.794 10.5015 166.74 10.5286C166.553 10.6236 163.49 10.1216 163.236 10.1894C162.246 10.4608 161.538 9.97234 161.069 10.1894C161.069 9.74169 160.735 9.74169 160.735 10.1894C160.561 10.108 160.133 10.2573 159.906 10.1894C159.705 10.1352 159.371 9.60601 158.742 9.85023L158.742 10.5286C158.047 10.4608 157.244 10.6236 156.576 10.5286C156.455 10.5151 156.375 10.2166 156.241 10.1894C155.746 10.0809 155.278 10.3251 154.743 9.85023L155.078 10.8678C154.248 10.9899 153.74 10.3251 152.911 10.5286C151.413 10.8814 150.29 10.203 149.233 11.207C147.307 10.393 145.649 11.8447 143.883 11.5462C142.733 11.3563 141.168 12.306 140.874 12.2246C140.687 12.1704 140.339 11.6412 139.71 11.8854L139.71 12.5638C138.961 12.6317 138.186 13.3643 137.544 12.5638L137.704 13.2422C136.875 13.0523 136.179 14.0834 135.537 13.2422L134.869 13.9206C134.04 13.4729 133.237 13.7442 132.528 14.2598L131.525 13.5814L130.188 14.2598L129.024 13.9206L129.185 14.9382L127.847 14.9382L127.352 14.599L127.352 15.2774L125.52 15.6166L124.183 14.9382L124.343 15.6166C123.741 15.3588 123.233 15.9558 123.179 15.9558C123.072 15.9558 122.979 15.6573 122.845 15.6166C122.631 15.5624 121.695 15.9287 121.508 15.9558C121.053 16.0372 120.491 15.9016 120.01 15.9558L120.01 16.6342L118.846 16.295L118.351 17.3126L117.014 16.6342L117.014 17.6518C116.211 16.9599 116.104 17.5976 115.85 17.6518C115.329 17.7739 114.58 17.5704 114.018 17.6518L114.018 18.3302L113.349 17.6518L113.015 18.1538L112.52 17.991C112.306 18.1674 111.303 18.6423 111.182 18.6694C110.634 18.7644 109.925 18.6016 109.35 18.6694L109.511 19.3478C108.909 18.6966 107.732 19.1172 106.836 19.0086L105.833 20.0262C104.923 19.4699 104.856 19.9448 104.495 20.0262C104.161 20.1076 103.693 19.972 103.332 20.0262L103.332 20.7046L102.837 20.3654C102.449 20.9624 101.767 20.6097 101.165 20.7046C100.991 20.7318 100.403 21.5458 99.8275 20.7046L99.988 21.383L98.8244 21.0438C98.383 21.6408 97.9149 21.885 97.1526 21.7222C97.0054 21.6951 96.8583 21.1931 96.3233 21.383L96.1628 22.0614L95.668 22.4006L94.9993 22.2378L94.9993 21.7358L93.3275 21.7358C93.4478 22.9298 91.883 23.0926 91.1608 22.4142L90.6659 22.7534L90.3316 22.075C90.4921 22.7534 90.024 22.8212 89.6628 23.0926C89.6628 22.6449 89.3285 22.6449 89.3285 23.0926C89.2482 23.0519 88.9138 23.0519 88.8336 23.0926C88.0712 23.4047 86.6134 23.364 85.1556 23.4318L84.4869 24.1102C83.6844 23.079 83.1628 24.3544 82.815 24.4494C82.5476 24.5308 82.1329 24.3951 81.812 24.4494C81.6782 24.4765 81.5846 24.7886 81.4776 24.7886C81.3706 24.7886 81.277 24.4765 81.1432 24.4494C80.7955 24.3816 80.3541 24.4901 79.9796 24.4494L80.1401 23.771C79.6185 23.961 79.6854 24.7479 79.6453 24.7886C79.5784 24.8429 79.3377 24.7208 79.1504 24.7886C79.0033 24.8429 78.9231 25.1278 78.8161 25.1278C78.6556 25.1278 78.562 24.463 78.1473 25.1278C75.8469 24.5444 72.6772 25.0871 70.1226 25.8062L69.4539 25.1278C68.1031 25.5891 66.8191 25.1414 65.4415 25.467C64.4652 25.6977 63.3551 24.6936 62.4323 25.8062L61.603 25.6434L61.2687 25.1414L60.9343 25.8198L60.1051 25.1414L59.9446 25.8198L59.1154 25.1414L58.1123 25.8198C57.3365 25.7112 55.3437 25.1549 54.6081 25.4806C54.6081 25.0328 54.2738 25.0328 54.2738 25.4806C53.9394 25.3313 53.2974 25.4806 53.1102 25.8198L52.1071 24.8022C51.3046 25.8605 50.462 24.7208 49.7666 25.4806L48.9373 24.8022L48.9373 25.8198L45.5937 25.1414L45.5937 24.463L44.4301 24.1238L44.7645 25.1414C44.3499 24.4901 44.2028 25.1549 44.0958 25.1414C43.8951 25.1007 43.8818 24.6936 43.0927 25.1414L42.2635 24.463L42.103 25.1414C41.4343 24.3816 40.2038 25.277 39.6019 24.3001L39.9363 23.9609L38.7727 24.463L37.6091 24.1238L37.6091 23.4454C36.8468 23.3233 36.2048 23.5675 36.2717 24.463C35.5227 23.771 35.2017 24.463 35.1081 24.463C35.0011 24.463 34.9075 24.1509 34.7737 24.1238C33.035 23.8253 31.8046 24.4494 30.427 23.4454C29.2366 23.8795 28.2469 23.2961 27.4177 23.7846L26.749 23.1062L26.0803 23.4454C25.8261 23.2554 25.7058 23.0655 25.5854 22.767C25.8128 22.6991 26.1605 22.8212 26.4146 22.767C26.6554 22.7127 26.6554 22.1157 27.0834 22.767L27.9126 21.4102C27.2438 21.3559 26.4815 21.6408 26.0803 21.071L26.2408 21.7494C25.572 21.7222 25.0237 22.5634 24.4084 21.7494C24.0875 21.9529 24.4887 22.0614 24.5689 22.4278C24.3549 22.4006 24.1008 22.4685 23.9002 22.4278C23.9002 22.6449 23.9002 22.8755 23.9002 23.1062L21.0648 22.767L20.3961 22.0886C19.9146 22.6856 19.393 22.6313 19.5669 21.7494C20.035 21.8172 20.6502 21.6544 21.0648 21.7494C21.7068 21.8986 22.8302 22.3735 23.4054 22.0886C23.5658 22.2785 23.6461 22.3871 23.9002 22.4278C23.9136 21.98 23.9002 21.5187 23.9002 21.071C23.2315 21.3559 22.3354 20.6504 22.0679 20.7318C21.9074 20.7725 21.7737 21.2609 21.2387 21.071C21.1584 21.0031 21.9074 20.4197 21.0782 20.0534C20.784 19.9312 20.2623 20.1076 20.7438 20.3926L21.2387 20.3926L20.9043 21.4102C20.356 21.6001 20.2356 21.1117 20.0751 21.071C19.6337 20.9488 19.5401 21.383 19.4064 21.4102C19.072 21.4916 18.6039 21.3559 18.2428 21.4102L18.9115 22.767L16.9053 22.0886L17.2397 21.071L15.9022 21.071L16.3971 22.0886C15.822 21.4373 14.7922 21.8715 14.0566 21.7494C13.8426 21.7087 13.8158 21.0981 13.3878 21.7494L12.8929 21.071L13.5617 20.7318L12.2242 20.7318L11.7294 19.375L11.2345 20.7318C11.2345 20.284 10.9001 20.284 10.9001 20.7318C10.7798 20.6775 10.5658 20.7996 10.4053 20.7318C9.91045 20.5418 9.53595 20.189 8.73348 20.3926L7.73039 20.0534L8.22524 21.071L7.22215 20.9081L6.7273 21.071L5.89809 20.0534L7.23554 20.2162L5.06886 19.0358L4.73451 19.7142L3.39705 19.0358L2.5678 20.0534L3.23653 18.6966L0.22725 19.0358L0.895982 18.6966L0.895982 18.0182C1.69846 18.7101 1.80548 18.0724 2.0596 18.0182C2.60796 17.896 4.84151 18.2081 5.40323 18.3574C5.53697 18.3981 5.6306 18.6966 5.7376 18.6966C6.35283 18.1267 7.08843 17.9096 7.90427 18.0182L7.90427 18.6966L9.06784 18.3574L10.0709 19.0358L11.4084 18.3574L13.5751 19.0358L13.5751 19.7142C14.217 19.3071 15.2067 19.1036 15.7417 19.7142L16.7448 19.0358C18.109 19.5649 19.4465 19.4971 20.7572 19.7142C21.2119 19.7956 21.7736 19.6599 22.2551 19.7142L22.2551 20.3926L23.4187 19.7142L24.9167 20.0534L24.7562 20.7318L25.2511 20.5689L25.2511 20.0669L26.749 20.0669L27.2438 21.0845L27.9126 21.0845L27.9126 20.4061C28.5011 20.2976 28.7953 20.9353 29.4105 20.7453C30.5607 20.3926 31.6039 20.7453 32.7542 21.4237C35.1749 20.6097 38.3046 22.075 40.4445 21.4237C41.0865 21.2338 41.461 21.9529 42.1163 21.7629C43.2799 21.4237 44.176 22.3192 45.1256 22.1021C47.5598 21.5323 50.8365 22.4956 53.1503 22.1021C54.033 21.9529 55.5444 22.0072 56.3201 22.4413L56.4806 21.7629L59.1555 22.4413L60.9878 21.6001L60.6535 22.1021L62.3253 22.1021L62.1648 21.4237C62.9806 21.8036 62.245 22.3735 62.3253 22.4413C62.6998 22.4006 63.1411 22.5092 63.4889 22.4413C64.1041 22.3328 64.3716 22.482 64.4919 22.4413C66.1103 21.9936 67.8088 22.1021 69.5074 21.7629C69.8551 21.6951 70.2965 21.8036 70.671 21.7629L70.0023 21.0845L71.1658 21.7629C71.6072 21.1252 71.5671 21.6815 71.8346 21.7629C72.6103 21.9936 72.6771 21.5051 72.9981 21.0845C73.0115 21.071 73.386 21.1388 73.3325 20.7453C73.6936 20.9082 74.8171 20.6368 75.3387 20.7453L75.0043 21.4237L77.0105 21.4237L77.0105 21.0845L76.1813 21.0845L75.6864 20.4061L77.0239 20.7453L76.6895 20.0669L78.6957 20.4061L77.0239 20.7453L77.0239 21.0845C79.3644 20.976 81.6515 20.6911 83.8716 20.0669C84.1659 19.9855 84.4066 19.1443 85.0352 19.3885L84.8747 20.0669C85.3027 19.4157 85.3295 20.0262 85.5435 20.0669C86.7204 20.2705 87.9642 20.1755 87.7101 18.7101L87.0414 18.3709L88.7132 18.3709L88.0445 19.7277L89.5424 18.3709L90.2112 19.3885L91.0404 18.8865L90.8799 17.7061C91.1741 17.9775 90.2112 18.5473 91.2142 18.3845C91.7091 18.3031 91.8964 17.9503 92.2173 18.0453C92.7256 18.778 93.2338 18.8051 94.0497 18.7237L93.0466 18.3845L92.8861 17.3669L94.3841 17.3669L94.0497 18.2081L94.7184 18.3709L94.8789 17.6925L95.882 17.0141L95.7215 18.3709C96.3501 18.6152 96.7246 18.0724 96.8851 18.0317C97.6073 17.8418 98.1423 18.181 98.7174 17.1905L97.7143 17.0277L98.5435 16.3493L100.376 17.0277L100.376 16.3493L101.713 16.3493L101.045 17.0277L103.385 16.6885L103.051 16.1865L103.385 15.3453L104.723 15.3453L104.054 16.0237L104.883 16.3629L106.047 16.0237L106.381 15.8609L106.047 15.698C106.221 15.0196 106.756 14.9382 107.384 15.0196L106.715 15.8609C107.13 16.4036 107.866 15.5895 107.718 15.0196L108.882 15.698L109.885 15.0196C110.22 15.5759 111.423 14.7754 111.891 14.6804C112.239 14.6126 112.68 14.7211 113.055 14.6804L112.721 14.1784L112.881 13.3372L113.376 14.3548C114.178 14.3277 114.901 14.5855 115.382 13.8528L115.048 13.5136L115.382 13.5136L115.716 12.6724C116.439 12.5367 115.636 14.5041 116.546 14.0292C117.375 13.595 118.298 13.4458 118.886 12.6724L119.889 13.0116L119.394 11.994L120.558 12.6724L121.722 11.994L121.053 12.6724L123.393 12.3332L122.725 11.6548L124.397 11.3156L123.728 11.6548L123.728 11.994C124.196 11.9261 124.825 12.1025 125.226 11.994C125.453 11.9397 125.373 11.6683 125.386 11.6548C125.627 11.5327 126.349 11.7226 126.724 11.6548L126.055 10.298L127.058 11.3156L127.392 10.298C128.034 10.0673 128.288 10.895 128.556 10.9764C128.823 11.0578 129.88 11.0306 130.228 10.9764C130.348 10.9628 130.442 10.6507 130.562 10.6372C131.084 10.5558 131.753 10.7457 132.234 10.6372C132.903 10.4879 134.534 9.28038 135.243 9.95878L136.915 8.94117L136.915 9.61957L138.747 9.28038C138.6 8.61554 139.002 8.56127 139.416 8.26277C139.175 9.37535 140.232 8.8462 140.914 8.94117L141.743 8.26277L140.406 7.92357C140.78 8.11353 141.476 7.32658 142.078 7.58437L142.238 8.26277L143.067 7.58437L143.228 8.26277C143.629 7.69292 143.576 8.11353 144.057 8.26277L144.057 7.58437C143.937 7.63865 143.602 7.55724 143.388 7.58437L143.388 7.24517L144.218 6.90597L144.378 7.06879C144.111 7.16377 144.07 7.55724 144.044 7.57081L145.876 6.89241L144.712 7.57081L144.712 7.91001C145.395 7.8286 146.237 8.01855 146.879 7.91001C147.093 7.8693 147.12 7.25874 147.548 7.91001L148.217 7.23161L148.217 6.55321L149.046 6.89241L148.377 7.57081C149.073 7.66578 149.741 7.31301 150.209 6.89241L151.373 7.23161L151.039 5.87481L152.202 6.55321L153.366 5.87481L152.537 7.23161L154.034 6.89241L153.7 6.39039L154.864 6.89241L154.864 6.21401C155.439 7.1095 156.843 7.16377 157.539 6.55321L158.542 7.23161C159.023 6.62105 159.959 6.97381 160.708 6.89241L160.04 5.87481L161.043 5.87481L160.882 6.55321L162.22 7.23161L163.383 6.39039L163.049 5.88838L164.386 5.88838L163.383 7.24518L166.219 7.24518C167.503 8.05926 169.188 7.27231 170.231 8.60198L170.565 8.26278L171.06 8.7648L170.726 10.2844L171.729 10.4472C171.288 10.8543 171.034 11.4241 170.392 11.2884L170.552 12.6452L169.549 12.306L169.709 12.9844L168.88 12.6452L168.72 14.002C167.556 13.6764 167.382 15.0739 166.379 15.0196L166.379 16.0372C165.831 16.2136 165.724 15.7523 165.55 15.698C164.935 15.5081 164.627 16.1322 164.052 16.0372L165.055 16.0372L165.389 16.8785C164.828 17.3398 164.467 18.1674 163.718 18.0589L163.718 19.0765L161.885 20.0941L161.39 19.9313L161.725 20.2705C161.163 20.5418 160.949 21.6815 160.561 21.7901C159.545 22.0886 159.037 22.6042 158.06 22.8077L158.06 23.4861L156.723 23.1469C156.602 23.7846 157.258 23.2554 157.391 23.6489C157.498 23.961 157.552 24.1916 157.726 24.4901L156.388 24.4901L156.388 25.5077L155.385 25.5077L155.385 26.1861L155.051 26.1861L155.051 25.5077C154.422 26.0233 154.382 25.4534 153.713 25.5077L154.382 25.8469C154.275 27.163 153.62 26.9595 152.71 26.5253L152.737 26.4303ZM61.6699 24.7343C61.8839 24.7343 61.8839 24.3951 61.6699 24.3951C61.4559 24.3951 61.4559 24.7343 61.6699 24.7343ZM52.4816 24.0559L52.816 24.7343L51.9867 23.7167L50.8232 24.3951L52.495 24.0559L52.4816 24.0559ZM42.785 24.3951L43.4538 24.3951L43.4538 24.0559L42.785 24.0559L42.785 24.3951ZM80.7153 24.0559C80.9293 24.0559 80.9293 23.7167 80.7153 23.7167C80.5013 23.7167 80.5013 24.0559 80.7153 24.0559ZM155.586 23.7167C155.8 23.7167 155.8 23.3775 155.586 23.3775C155.372 23.3775 155.372 23.7167 155.586 23.7167ZM33.4229 22.6991L33.4229 23.3775L33.7572 23.3775L33.7572 22.6991L33.4229 22.6991ZM34.9342 23.0383C35.1482 23.0383 35.1482 22.6991 34.9342 22.6991C34.7202 22.6991 34.7202 23.0383 34.9342 23.0383ZM30.3334 22.6991C30.3334 22.9298 30.5206 23.1197 30.748 23.1197C30.9753 23.1197 31.1626 22.9298 31.1626 22.6991C31.1626 22.4685 30.9753 22.2785 30.748 22.2785C30.5206 22.2785 30.3334 22.4685 30.3334 22.6991ZM60.1586 22.6991L61.1617 22.6991L61.1617 22.3599L60.1586 22.3599L60.1586 22.6991ZM31.4167 21.6815L31.4167 22.6991L32.4198 22.3599L32.4198 22.0207L31.4167 21.6815ZM27.7387 22.6991L28.4074 22.6991L28.4074 22.0207L27.7387 22.6991ZM28.9157 22.0207C29.1297 22.0207 29.1297 21.6815 28.9157 21.6815C28.7017 21.6815 28.7017 22.0207 28.9157 22.0207ZM74.3624 21.3423C74.5764 21.3423 74.5764 21.0031 74.3624 21.0031C74.1484 21.0031 74.1484 21.3423 74.3624 21.3423ZM73.6936 21.3423C73.9076 21.3423 73.9076 21.0031 73.6936 21.0031C73.4796 21.0031 73.4796 21.3423 73.6936 21.3423ZM160.601 21.0031C160.815 21.0031 160.815 20.6639 160.601 20.6639C160.387 20.6639 160.387 21.0031 160.601 21.0031ZM14.0432 19.9855C13.9496 20.6368 14.4043 21.0981 15.0463 21.0031L14.7119 19.9855L14.0432 19.9855ZM86.0651 20.6639C86.2791 20.6639 86.2791 20.3247 86.0651 20.3247C85.8511 20.3247 85.8511 20.6639 86.0651 20.6639ZM101.78 20.3247L101.941 20.1619L101.446 19.6599L101.285 19.8227L101.78 20.3247ZM15.5411 20.3247C15.7551 20.3247 15.7551 19.9855 15.5411 19.9855C15.3271 19.9855 15.3271 20.3247 15.5411 20.3247ZM160.428 19.9855L161.096 19.9855L161.096 19.6463L160.428 19.6463L160.428 19.9855ZM9.87033 19.6463C10.0843 19.6463 10.0843 19.3071 9.87033 19.3071C9.65633 19.3071 9.65633 19.6463 9.87033 19.6463ZM8.53287 19.6463C8.74687 19.6463 8.74687 19.3071 8.53287 19.3071C8.31888 19.3071 8.31888 19.6463 8.53287 19.6463ZM103.118 19.3071C103.332 19.3071 103.332 18.9679 103.118 18.9679C102.904 18.9679 102.904 19.3071 103.118 19.3071ZM91.241 18.9679L91.9098 18.9679L91.9098 18.6287L91.241 18.6287L91.241 18.9679ZM161.27 17.9503C161.484 17.9503 161.484 17.6111 161.27 17.6111C161.056 17.6111 161.056 17.9503 161.27 17.9503ZM99.1053 17.6111L99.6001 17.1091L99.4396 16.9463L98.9448 17.4483L99.1053 17.6111ZM120.491 15.2367C120.705 15.2367 120.705 14.8975 120.491 14.8975C120.277 14.8975 120.277 15.2367 120.491 15.2367ZM166.607 13.8935C166.821 13.8935 166.821 13.5543 166.607 13.5543C166.393 13.5543 166.393 13.8935 166.607 13.8935ZM168.278 13.2151C168.492 13.2151 168.492 12.8759 168.278 12.8759C168.064 12.8759 168.064 13.2151 168.278 13.2151ZM166.607 12.5367C166.821 12.5367 166.821 12.1975 166.607 12.1975C166.393 12.1975 166.393 12.5367 166.607 12.5367ZM138.199 12.5367C138.413 12.5367 138.413 12.1975 138.199 12.1975C137.985 12.1975 137.985 12.5367 138.199 12.5367ZM168.278 12.1975C168.492 12.1975 168.492 11.8583 168.278 11.8583C168.064 11.8583 168.064 12.1975 168.278 12.1975ZM144.886 11.1799C145.1 11.1799 145.1 10.8407 144.886 10.8407C144.672 10.8407 144.672 11.1799 144.886 11.1799ZM156.923 10.1623C157.137 10.1623 157.137 9.8231 156.923 9.8231C156.709 9.8231 156.709 10.1623 156.923 10.1623Z" fill="#A5D1B9"/>
<path d="M152.737 26.4306C152.817 26.6477 152.617 27.0412 153.072 27.2718L153.072 27.611C152.67 27.8688 151.854 29.0628 151.574 29.1306C150.838 29.3342 150.383 28.805 149.741 28.7914L150.744 29.6327C150.169 30.2025 149.166 30.9081 148.578 30.1347C147.789 30.7452 147.896 32.2784 146.745 32.1699L146.745 32.8483C145.782 32.794 145.756 34.0423 144.739 33.1875L144.739 33.8659L143.067 34.2051L143.402 32.5091L143.897 32.8483C144.231 32.4277 144.231 32.4277 144.565 32.8483C145.381 32.4412 144.646 31.9121 144.726 31.8307L146.398 31.8307L145.729 30.8131C146.465 30.9488 146.799 30.691 147.227 30.1347L148.056 30.4739L147.722 29.9719L148.725 29.6327L147.561 29.4698L147.401 28.7914C148.364 28.9814 149.38 27.9638 149.407 27.0954L149.902 27.0954L149.741 27.7738L151.079 27.4346L150.41 26.417L151.747 25.7386L150.744 25.7386L152.751 25.0602C152.751 25.0602 152.51 25.6165 152.416 25.7386C152.416 25.7522 152.135 25.6844 152.082 25.9015C152.082 26.1185 152.403 26.0507 152.416 26.0643C152.443 26.0914 152.323 26.2 152.751 26.4035L152.737 26.4306Z" fill="#A5D1B9"/>
<path d="M72.8645 20.6642L72.8645 21.0034L72.5301 20.8406C72.5301 20.6235 72.8511 20.6914 72.8645 20.6778L72.8645 20.6642Z" fill="#A5D1B9"/>
<path d="M140.379 7.78809L140.045 7.78809C140.045 7.78809 139.991 7.44889 140.205 7.44889C140.433 7.50316 140.352 7.77452 140.366 7.78809L140.379 7.78809Z" fill="#A5D1B9"/>
<path d="M25.4116 22.6993C25.0238 22.8078 24.89 23.1877 24.4085 23.0385C24.3818 22.8214 24.4487 22.55 24.4085 22.3601C24.676 22.3872 24.9703 22.3465 25.2377 22.3601C25.4651 22.4143 25.3715 22.6179 25.3982 22.6993L25.4116 22.6993Z" fill="#A5D1B9"/>
<path d="M10.6996 20.6642L11.0339 20.6642L10.8734 21.0034C10.6595 21.0034 10.7263 20.6778 10.713 20.6642L10.6996 20.6642Z" fill="#A5D1B9"/>
<path d="M73.199 20.6641L72.8646 20.6641C72.8646 20.6641 72.8245 20.3249 73.0251 20.3249C73.2525 20.3791 73.1722 20.6505 73.1856 20.6641L73.199 20.6641Z" fill="#A5D1B9"/>
<path d="M139.376 8.12711C139.376 8.12711 139.296 7.93716 139.537 7.78791C139.67 7.7065 139.911 7.84218 140.031 7.78791L140.031 8.46631L139.363 8.12711L139.376 8.12711Z" fill="#A5D1B9"/>
<path d="M105.953 15.915L104.95 15.5758L104.95 15.2366L105.953 15.5758L105.953 15.915Z" fill="#A5D1B9"/>
<path d="M164.106 14.9111L164.106 14.2327L164.774 14.2327C164.774 14.2327 164.467 14.884 164.44 14.9111C164.387 14.9654 164.159 14.8568 164.106 14.9111Z" fill="#A5D1B9"/>
<path d="M160.762 10.1623L161.096 10.1623C161.096 10.1623 161.15 10.4472 160.936 10.5015C160.722 10.5015 160.789 10.1758 160.775 10.1623L160.762 10.1623Z" fill="#A5D1B9"/>
<path d="M156.415 22.3602C156.001 22.2924 155.506 22.4009 155.078 22.3602L155.078 22.021C155.626 22.1974 155.72 21.7496 155.907 21.6818C156.134 21.6004 156.562 21.7632 156.736 21.6818C156.736 21.9532 156.496 22.0346 156.402 22.3602L156.415 22.3602Z" fill="#A5D1B9"/>
<path d="M124.33 11.1798L125.333 10.5014L125.333 11.519L124.33 11.1798Z" fill="#A5D1B9"/>
<path d="M156.75 21.0034L157.084 20.1622L158.087 19.9858L156.75 21.0034Z" fill="#A5D1B9"/>
<path d="M131.686 9.48389L131.351 9.48389C131.351 9.48389 131.311 9.14469 131.512 9.14469L131.672 9.48389L131.686 9.48389Z" fill="#A5D1B9"/>
<path d="M131.686 9.82324L131.686 9.48404L132.689 9.32123C132.354 9.90465 131.98 9.7147 131.686 9.82324Z" fill="#A5D1B9"/>
<path d="M131.351 9.48387L131.351 9.82307C131.351 9.82307 131.07 9.87734 131.017 9.66026C131.017 9.44317 131.338 9.51101 131.351 9.49744L131.351 9.48387Z" fill="#A5D1B9"/>
<path d="M131.351 9.8234L131.686 9.8234C131.686 9.8234 131.739 10.1083 131.525 10.1626C131.311 10.1626 131.378 9.83697 131.365 9.8234L131.351 9.8234Z" fill="#A5D1B9"/>
<path d="M43.1195 21.3423L44.1226 21.3423L44.1226 21.0031L43.1195 21.0031L43.1195 21.3423Z" fill="#A5D1B9"/>
<path d="M116.318 13.2153L116.653 13.2153L116.653 12.1977L116.318 12.1977L116.318 13.2153Z" fill="#A5D1B9"/>
<path d="M150.397 6.43115L150.731 6.43115L150.731 5.75275L150.397 5.75275L150.397 6.43115Z" fill="#A5D1B9"/>
<path d="M146.732 7.10986L147.066 7.10986L147.066 6.43146L146.732 6.43146L146.732 7.10986Z" fill="#A5D1B9"/>
<path d="M134.026 9.14502L134.361 9.14502L134.361 8.46662L134.026 8.46662L134.026 9.14502Z" fill="#A5D1B9"/>
<path d="M111.637 13.2153L111.972 13.2153L112.306 14.0565L111.464 14.2329L111.637 13.2153Z" fill="#A5D1B9"/>
<path d="M85.5703 19.3071L86.239 19.3071L86.239 18.9679L85.5703 18.9679L85.5703 19.3071Z" fill="#A5D1B9"/>
<path d="M80.5549 19.3071L79.8862 19.8227L80.0467 20.3247L80.5549 19.3071Z" fill="#A5D1B9"/>
<path d="M144.886 35.2363C144.672 35.2363 144.672 34.8971 144.886 34.8971C145.1 34.8971 145.1 35.2363 144.886 35.2363Z" fill="#A5D1B9"/>
<path d="M142.88 33.2007C142.666 33.2007 142.666 32.8615 142.88 32.8615C143.094 32.8615 143.094 33.2007 142.88 33.2007Z" fill="#A5D1B9"/>
<path d="M146.892 29.8091C146.678 29.8091 146.678 29.4699 146.892 29.4699C147.106 29.4699 147.106 29.8091 146.892 29.8091Z" fill="#A5D1B9"/>
<path d="M44.2831 25.752C44.0691 25.752 44.0691 25.4128 44.2831 25.4128C44.4971 25.4128 44.4971 25.752 44.2831 25.752Z" fill="#A5D1B9"/>
<path d="M153.246 24.7344C153.032 24.7344 153.032 24.3952 153.246 24.3952C153.46 24.3952 153.46 24.7344 153.246 24.7344Z" fill="#A5D1B9"/>
<path d="M37.2383 24.7113L37.4084 24.5386L36.9071 24.0302L36.7369 24.2029L37.2383 24.7113Z" fill="#A5D1B9"/>
<path d="M94.4242 22.3599C94.2102 22.3599 94.2102 22.0207 94.4242 22.0207C94.6382 22.0207 94.6382 22.3599 94.4242 22.3599Z" fill="#A5D1B9"/>
<path d="M22.5629 21.6816C22.3489 21.6816 22.3489 21.3424 22.5629 21.3424C22.7769 21.3424 22.7769 21.6816 22.5629 21.6816Z" fill="#A5D1B9"/>
<path d="M68.0229 21.3423C67.8089 21.3423 67.8089 21.0031 68.0229 21.0031C68.2368 21.0031 68.2368 21.3423 68.0229 21.3423Z" fill="#A5D1B9"/>
<path d="M67.0199 21.3423C66.8059 21.3423 66.8059 21.0031 67.0199 21.0031C67.2339 21.0031 67.2339 21.3423 67.0199 21.3423Z" fill="#A5D1B9"/>
<path d="M45.6205 21.3423C45.4065 21.3423 45.4065 21.0031 45.6205 21.0031C45.8345 21.0031 45.8345 21.3423 45.6205 21.3423Z" fill="#A5D1B9"/>
<path d="M12.1977 21.3423C11.9837 21.3423 11.9837 21.0031 12.1977 21.0031C12.4117 21.0031 12.4117 21.3423 12.1977 21.3423Z" fill="#A5D1B9"/>
<path d="M40.2841 21.0034C40.0701 21.0034 40.0701 20.6642 40.2841 20.6642C40.4981 20.6642 40.4981 21.0034 40.2841 21.0034Z" fill="#A5D1B9"/>
<path d="M82.0529 19.9858C81.8389 19.9858 81.8389 19.6466 82.0529 19.6466C82.2669 19.6466 82.2669 19.9858 82.0529 19.9858Z" fill="#A5D1B9"/>
<path d="M81.3842 19.9858C81.1702 19.9858 81.1702 19.6466 81.3842 19.6466C81.5982 19.6466 81.5982 19.9858 81.3842 19.9858Z" fill="#A5D1B9"/>
<path d="M97.0993 16.5937C96.8853 16.5937 96.8853 16.2545 97.0993 16.2545C97.3133 16.2545 97.3133 16.5938 97.0993 16.5937Z" fill="#A5D1B9"/>
<path d="M102.423 16.2381L102.594 16.0654L102.092 15.557L101.922 15.7298L102.423 16.2381Z" fill="#A5D1B9"/>
<path d="M99.7741 16.2544C99.5601 16.2544 99.5601 15.9152 99.7741 15.9152C99.9881 15.9152 99.9881 16.2544 99.7741 16.2544Z" fill="#A5D1B9"/>
<path d="M100.777 15.915C100.563 15.915 100.563 15.5758 100.777 15.5758C100.991 15.5758 100.991 15.915 100.777 15.915Z" fill="#A5D1B9"/>
<path d="M108.12 14.5723C107.906 14.5723 107.906 14.2331 108.12 14.2331C108.334 14.2331 108.334 14.5723 108.12 14.5723Z" fill="#A5D1B9"/>
<path d="M110.795 14.2329C110.581 14.2329 110.581 13.8937 110.795 13.8937C111.009 13.8937 111.009 14.2329 110.795 14.2329Z" fill="#A5D1B9"/>
<path d="M114.138 13.5547C113.924 13.5547 113.924 13.2155 114.138 13.2155C114.352 13.2155 114.352 13.5547 114.138 13.5547Z" fill="#A5D1B9"/>
<path d="M122.163 11.8584C121.949 11.8584 121.949 11.5192 122.163 11.5192C122.377 11.5192 122.377 11.8584 122.163 11.8584Z" fill="#A5D1B9"/>
<path d="M125.841 11.1802C125.627 11.1802 125.627 10.841 125.841 10.841C126.055 10.841 126.055 11.1802 125.841 11.1802Z" fill="#A5D1B9"/>
<path d="M130.188 10.1626C129.974 10.1626 129.974 9.8234 130.188 9.8234C130.402 9.8234 130.402 10.1626 130.188 10.1626Z" fill="#A5D1B9"/>
<path d="M134.855 9.14502C134.641 9.14502 134.641 8.80582 134.855 8.80582C135.069 8.80582 135.069 9.14502 134.855 9.14502Z" fill="#A5D1B9"/>
<path d="M137.196 8.46631C136.982 8.46631 136.982 8.12711 137.196 8.12711C137.41 8.12711 137.41 8.46631 137.196 8.46631Z" fill="#A5D1B9"/>
<path d="M169.616 7.44873C169.402 7.44873 169.402 7.10953 169.616 7.10953C169.83 7.10953 169.83 7.44873 169.616 7.44873Z" fill="#A5D1B9"/>
<path d="M167.944 7.10986C167.73 7.10986 167.73 6.77066 167.944 6.77066C168.158 6.77066 168.158 7.10986 167.944 7.10986Z" fill="#A5D1B9"/>
<path d="M164.927 6.74783L165.428 6.23926L165.257 6.0666L164.756 6.57517L164.927 6.74783Z" fill="#A5D1B9"/>
<path d="M156.236 6.07948L156.406 5.90674L155.904 5.39834L155.734 5.57109L156.236 6.07948Z" fill="#A5D1B9"/>
<path d="M149.902 6.09229C149.688 6.09229 149.688 5.75308 149.902 5.75308C150.116 5.75308 150.116 6.09229 149.902 6.09229Z" fill="#A5D1B9"/>
</g>
<defs>
<clipPath id="clip0_2025_5932">
<rect width="502" height="37" fill="white" transform="translate(502 37) rotate(-180)"/>
</clipPath>
</defs>
</svg>
